<ttFont>
<head>
    <!-- Most of this table will be recalculated by the compiler -->
    <tableVersion value="1.0"/>
    <fontRevision value="3.0"/>
    <checkSumAdjustment value="0xf5bd4b00"/>
    <magicNumber value="0x5f0f3cf5"/>
    <flags value="00000000 00000011"/>
    <unitsPerEm value="1000"/>
    <created value="Tue Oct 11 17:04:32 2016"/>
    <modified value="Wed Oct 12 15:35:43 2016"/>
    <xMin value="-460"/>
    <yMin value="-247"/>
    <xMax value="1190"/>
    <yMax value="1026"/>
    <macStyle value="00000000 00000000"/>
    <lowestRecPPEM value="7"/>
    <fontDirectionHint value="2"/>
    <indexToLocFormat value="0"/>
    <glyphDataFormat value="0"/>
  </head>
    <TTGlyph name=".notdef" xMin="50" yMin="0" xMax="507" yMax="740">
      <contour>
        <pt x="50" y="0" on="1"/>
        <pt x="50" y="740" on="1"/>
        <pt x="507" y="740" on="1"/>
        <pt x="507" y="0" on="1"/>
      </contour>
      <contour>
        <pt x="100" y="50" on="1"/>
        <pt x="457" y="50" on="1"/>
        <pt x="457" y="690" on="1"/>
        <pt x="100" y="690" on="1"/>
      </contour>
    </TTGlyph>
    <TTGlyph name="A" xMin="5" yMin="0" xMax="748" yMax="740">
      <contour>
        <pt x="674" y="84" on="1"/>
        <pt x="748" y="84" on="1"/>
        <pt x="748" y="0" on="1"/>
        <pt x="508" y="0" on="1"/>
        <pt x="508" y="84" on="1"/>
        <pt x="569" y="84" on="1"/>
        <pt x="511" y="252" on="1"/>
        <pt x="226" y="252" on="1"/>
        <pt x="169" y="84" on="1"/>
        <pt x="245" y="84" on="1"/>
        <pt x="245" y="0" on="1"/>
        <pt x="5" y="0" on="1"/>
        <pt x="5" y="84" on="1"/>
        <pt x="70" y="84" on="1"/>
        <pt x="300" y="740" on="1"/>
        <pt x="444" y="740" on="1"/>
      </contour>
      <contour>
        <pt x="254" y="333" on="1"/>
        <pt x="482" y="333" on="1"/>
        <pt x="367" y="664" on="1"/>
      </contour>
    </TTGlyph>
    <TTGlyph name="AE" xMin="-1" yMin="0" xMax="907" yMax="740">
      <contour>
        <pt x="907" y="531" on="1"/>
        <pt x="807" y="531" on="1"/>
        <pt x="807" y="656" on="1"/>
        <pt x="580" y="656" on="1"/>
        <pt x="580" y="421" on="1"/>
        <pt x="765" y="421" on="1"/>
        <pt x="765" y="337" on="1"/>
        <pt x="580" y="337" on="1"/>
        <pt x="580" y="84" on="1"/>
        <pt x="807" y="84" on="1"/>
        <pt x="807" y="209" on="1"/>
        <pt x="907" y="209" on="1"/>
        <pt x="907" y="0" on="1"/>
        <pt x="423" y="0" on="1"/>
        <pt x="423" y="84" on="1"/>
        <pt x="484" y="84" on="1"/>
        <pt x="484" y="208" on="1"/>
        <pt x="232" y="208" on="1"/>
        <pt x="159" y="84" on="1"/>
        <pt x="239" y="84" on="1"/>
        <pt x="239" y="0" on="1"/>
        <pt x="-1" y="0" on="1"/>
        <pt x="-1" y="84" on="1"/>
        <pt x="51" y="84" on="1"/>
        <pt x="449" y="740" on="1"/>
        <pt x="907" y="740" on="1"/>
      </contour>
      <contour>
        <pt x="281" y="292" on="1"/>
        <pt x="484" y="292" on="1"/>
        <pt x="484" y="640" on="1"/>
      </contour>
    </TTGlyph>
    <TTGlyph name="Aacute" xMin="5" yMin="0" xMax="748" yMax="955">
      <contour>
        <pt x="522" y="947" on="1"/>
        <pt x="376" y="809" on="1"/>
        <pt x="301" y="809" on="1"/>
        <pt x="405" y="955" on="1"/>
        <pt x="522" y="955" on="1"/>
      </contour>
      <contour>
        <pt x="674" y="84" on="1"/>
        <pt x="748" y="84" on="1"/>
        <pt x="748" y="0" on="1"/>
        <pt x="508" y="0" on="1"/>
        <pt x="508" y="84" on="1"/>
        <pt x="569" y="84" on="1"/>
        <pt x="511" y="252" on="1"/>
        <pt x="226" y="252" on="1"/>
        <pt x="169" y="84" on="1"/>
        <pt x="245" y="84" on="1"/>
        <pt x="245" y="0" on="1"/>
        <pt x="5" y="0" on="1"/>
        <pt x="5" y="84" on="1"/>
        <pt x="70" y="84" on="1"/>
        <pt x="300" y="740" on="1"/>
        <pt x="444" y="740" on="1"/>
      </contour>
      <contour>
        <pt x="254" y="333" on="1"/>
        <pt x="482" y="333" on="1"/>
        <pt x="367" y="664" on="1"/>
      </contour>
    </TTGlyph>
    <TTGlyph name="Acircumflex" xMin="5" yMin="0" xMax="748" yMax="961">
      <contour>
        <pt x="381" y="884" on="1"/>
        <pt x="315" y="808" on="1"/>
        <pt x="243" y="808" on="1"/>
        <pt x="365" y="961" on="1"/>
        <pt x="396" y="961" on="1"/>
        <pt x="519" y="808" on="1"/>
        <pt x="446" y="808" on="1"/>
      </contour>
      <contour>
        <pt x="674" y="84" on="1"/>
        <pt x="748" y="84" on="1"/>
        <pt x="748" y="0" on="1"/>
        <pt x="508" y="0" on="1"/>
        <pt x="508" y="84" on="1"/>
        <pt x="569" y="84" on="1"/>
        <pt x="511" y="252" on="1"/>
        <pt x="226" y="252" on="1"/>
        <pt x="169" y="84" on="1"/>
        <pt x="245" y="84" on="1"/>
        <pt x="245" y="0" on="1"/>
        <pt x="5" y="0" on="1"/>
        <pt x="5" y="84" on="1"/>
        <pt x="70" y="84" on="1"/>
        <pt x="300" y="740" on="1"/>
        <pt x="444" y="740" on="1"/>
      </contour>
      <contour>
        <pt x="254" y="333" on="1"/>
        <pt x="482" y="333" on="1"/>
        <pt x="367" y="664" on="1"/>
      </contour>
    </TTGlyph>
    <TTGlyph name="Adieresis" xMin="5" yMin="0" xMax="748" yMax="961">
      <component glyphName="A" x="0" y="0" flags="0x0"/>
      <component glyphName="uni0308" x="643" y="234" flags="0x4"/>
    </TTGlyph>
    <TTGlyph name="Agrave" xMin="5" yMin="0" xMax="748" yMax="955">
      <contour>
        <pt x="405" y="809" on="1"/>
        <pt x="334" y="809" on="1"/>
        <pt x="194" y="947" on="1"/>
        <pt x="194" y="955" on="1"/>
        <pt x="315" y="955" on="1"/>
      </contour>
      <contour>
        <pt x="674" y="84" on="1"/>
        <pt x="748" y="84" on="1"/>
        <pt x="748" y="0" on="1"/>
        <pt x="508" y="0" on="1"/>
        <pt x="508" y="84" on="1"/>
        <pt x="569" y="84" on="1"/>
        <pt x="511" y="252" on="1"/>
        <pt x="226" y="252" on="1"/>
        <pt x="169" y="84" on="1"/>
        <pt x="245" y="84" on="1"/>
        <pt x="245" y="0" on="1"/>
        <pt x="5" y="0" on="1"/>
        <pt x="5" y="84" on="1"/>
        <pt x="70" y="84" on="1"/>
        <pt x="300" y="740" on="1"/>
        <pt x="444" y="740" on="1"/>
      </contour>
      <contour>
        <pt x="254" y="333" on="1"/>
        <pt x="482" y="333" on="1"/>
        <pt x="367" y="664" on="1"/>
      </contour>
    </TTGlyph>
    <TTGlyph name="Aogonek" xMin="5" yMin="-237" xMax="738" yMax="740">
      <contour>
        <pt x="614" y="0" on="0"/>
        <pt x="561" y="-27" on="0"/>
        <pt x="530" y="-72" on="0"/>
        <pt x="530" y="-97" on="1"/>
        <pt x="530" y="-120" on="0"/>
        <pt x="570" y="-153" on="0"/>
        <pt x="599" y="-153" on="1"/>
        <pt x="634" y="-153" on="0"/>
        <pt x="656" y="-143" on="1"/>
        <pt x="680" y="-217" on="1"/>
        <pt x="668" y="-224" on="0"/>
        <pt x="619" y="-237" on="0"/>
        <pt x="596" y="-237" on="1"/>
        <pt x="547" y="-237" on="0"/>
        <pt x="480" y="-201" on="0"/>
        <pt x="446" y="-142" on="0"/>
        <pt x="446" y="-110" on="1"/>
        <pt x="446" y="-78" on="0"/>
        <pt x="478" y="-18" on="0"/>
        <pt x="504" y="0" on="1"/>
        <pt x="504" y="84" on="1"/>
        <pt x="569" y="84" on="1"/>
        <pt x="511" y="252" on="1"/>
        <pt x="226" y="252" on="1"/>
        <pt x="169" y="84" on="1"/>
        <pt x="245" y="84" on="1"/>
        <pt x="245" y="0" on="1"/>
        <pt x="5" y="0" on="1"/>
        <pt x="5" y="84" on="1"/>
        <pt x="70" y="84" on="1"/>
        <pt x="300" y="740" on="1"/>
        <pt x="444" y="740" on="1"/>
        <pt x="674" y="84" on="1"/>
        <pt x="738" y="84" on="1"/>
        <pt x="738" y="0" on="1"/>
        <pt x="646" y="0" on="1"/>
      </contour>
      <contour>
        <pt x="254" y="333" on="1"/>
        <pt x="482" y="333" on="1"/>
        <pt x="367" y="664" on="1"/>
      </contour>
    </TTGlyph>
    <TTGlyph name="Aring" xMin="5" yMin="0" xMax="748" yMax="951">
      <contour>
        <pt x="748" y="84" on="1"/>
        <pt x="748" y="0" on="1"/>
        <pt x="508" y="0" on="1"/>
        <pt x="508" y="84" on="1"/>
        <pt x="569" y="84" on="1"/>
        <pt x="511" y="252" on="1"/>
        <pt x="226" y="252" on="1"/>
        <pt x="169" y="84" on="1"/>
        <pt x="245" y="84" on="1"/>
        <pt x="245" y="0" on="1"/>
        <pt x="5" y="0" on="1"/>
        <pt x="5" y="84" on="1"/>
        <pt x="70" y="84" on="1"/>
        <pt x="295" y="727" on="1"/>
        <pt x="273" y="745" on="0"/>
        <pt x="246" y="797" on="0"/>
        <pt x="246" y="826" on="1"/>
        <pt x="246" y="859" on="0"/>
        <pt x="280" y="917" on="0"/>
        <pt x="338" y="951" on="0"/>
        <pt x="371" y="951" on="1"/>
        <pt x="404" y="951" on="0"/>
        <pt x="462" y="917" on="0"/>
        <pt x="496" y="859" on="0"/>
        <pt x="496" y="826" on="1"/>
        <pt x="496" y="797" on="0"/>
        <pt x="470" y="746" on="0"/>
        <pt x="448" y="728" on="1"/>
        <pt x="674" y="84" on="1"/>
      </contour>
      <contour>
        <pt x="351" y="877" on="0"/>
        <pt x="320" y="846" on="0"/>
        <pt x="320" y="826" on="1"/>
        <pt x="320" y="806" on="0"/>
        <pt x="351" y="775" on="0"/>
        <pt x="371" y="775" on="1"/>
        <pt x="391" y="775" on="0"/>
        <pt x="422" y="806" on="0"/>
        <pt x="422" y="826" on="1"/>
        <pt x="422" y="846" on="0"/>
        <pt x="391" y="877" on="0"/>
        <pt x="371" y="877" on="1"/>
      </contour>
      <contour>
        <pt x="254" y="333" on="1"/>
        <pt x="482" y="333" on="1"/>
        <pt x="367" y="664" on="1"/>
      </contour>
    </TTGlyph>
    <TTGlyph name="Atilde" xMin="5" yMin="0" xMax="748" yMax="925">
      <contour>
        <pt x="283" y="857" on="0"/>
        <pt x="256" y="843" on="0"/>
        <pt x="249" y="819" on="1"/>
        <pt x="196" y="845" on="1"/>
        <pt x="208" y="887" on="0"/>
        <pt x="268" y="925" on="0"/>
        <pt x="306" y="925" on="1"/>
        <pt x="329" y="925" on="0"/>
        <pt x="363" y="911" on="0"/>
        <pt x="385" y="897" on="1"/>
        <pt x="403" y="885" on="0"/>
        <pt x="430" y="874" on="0"/>
        <pt x="446" y="874" on="1"/>
        <pt x="461" y="874" on="0"/>
        <pt x="486" y="894" on="0"/>
        <pt x="490" y="913" on="1"/>
        <pt x="548" y="896" on="1"/>
        <pt x="538" y="855" on="0"/>
        <pt x="482" y="809" on="0"/>
        <pt x="442" y="809" on="1"/>
        <pt x="415" y="809" on="0"/>
        <pt x="376" y="824" on="0"/>
        <pt x="353" y="838" on="1"/>
        <pt x="336" y="848" on="0"/>
        <pt x="315" y="857" on="0"/>
        <pt x="302" y="857" on="1"/>
      </contour>
      <contour>
        <pt x="674" y="84" on="1"/>
        <pt x="748" y="84" on="1"/>
        <pt x="748" y="0" on="1"/>
        <pt x="508" y="0" on="1"/>
        <pt x="508" y="84" on="1"/>
        <pt x="569" y="84" on="1"/>
        <pt x="511" y="252" on="1"/>
        <pt x="226" y="252" on="1"/>
        <pt x="169" y="84" on="1"/>
        <pt x="245" y="84" on="1"/>
        <pt x="245" y="0" on="1"/>
        <pt x="5" y="0" on="1"/>
        <pt x="5" y="84" on="1"/>
        <pt x="70" y="84" on="1"/>
        <pt x="300" y="740" on="1"/>
        <pt x="444" y="740" on="1"/>
      </contour>
      <contour>
        <pt x="254" y="333" on="1"/>
        <pt x="482" y="333" on="1"/>
        <pt x="367" y="664" on="1"/>
      </contour>
    </TTGlyph>
    <TTGlyph name="B" xMin="70" yMin="0" xMax="609" yMax="740">
      <contour>
        <pt x="552" y="350" on="0"/>
        <pt x="609" y="267" on="0"/>
        <pt x="609" y="220" on="1"/>
        <pt x="609" y="160" on="0"/>
        <pt x="551" y="59" on="0"/>
        <pt x="452" y="0" on="0"/>
        <pt x="393" y="0" on="1"/>
        <pt x="70" y="0" on="1"/>
        <pt x="70" y="84" on="1"/>
        <pt x="126" y="84" on="1"/>
        <pt x="126" y="656" on="1"/>
        <pt x="70" y="656" on="1"/>
        <pt x="70" y="740" on="1"/>
        <pt x="389" y="740" on="1"/>
        <pt x="448" y="740" on="0"/>
        <pt x="547" y="683" on="0"/>
        <pt x="605" y="583" on="0"/>
        <pt x="605" y="524" on="1"/>
        <pt x="605" y="477" on="0"/>
        <pt x="552" y="399" on="0"/>
        <pt x="504" y="375" on="1"/>
      </contour>
      <contour>
        <pt x="222" y="656" on="1"/>
        <pt x="222" y="414" on="1"/>
        <pt x="390" y="414" on="1"/>
        <pt x="420" y="414" on="0"/>
        <pt x="471" y="446" on="0"/>
        <pt x="501" y="498" on="0"/>
        <pt x="501" y="527" on="1"/>
        <pt x="501" y="559" on="0"/>
        <pt x="471" y="619" on="0"/>
        <pt x="420" y="656" on="0"/>
        <pt x="390" y="656" on="1"/>
      </contour>
      <contour>
        <pt x="424" y="84" on="0"/>
        <pt x="475" y="123" on="0"/>
        <pt x="505" y="185" on="0"/>
        <pt x="505" y="218" on="1"/>
        <pt x="505" y="246" on="0"/>
        <pt x="475" y="298" on="0"/>
        <pt x="424" y="329" on="0"/>
        <pt x="394" y="329" on="1"/>
        <pt x="222" y="329" on="1"/>
        <pt x="222" y="84" on="1"/>
        <pt x="394" y="84" on="1"/>
      </contour>
    </TTGlyph>
    <TTGlyph name="C" xMin="32" yMin="-12" xMax="702" yMax="754">
      <contour>
        <pt x="702" y="201" on="1"/>
        <pt x="655" y="101" on="0"/>
        <pt x="495" y="-12" on="0"/>
        <pt x="385" y="-12" on="1"/>
        <pt x="284" y="-12" on="0"/>
        <pt x="122" y="92" on="0"/>
        <pt x="32" y="268" on="0"/>
        <pt x="32" y="371" on="1"/>
        <pt x="32" y="475" on="0"/>
        <pt x="123" y="650" on="0"/>
        <pt x="284" y="754" on="0"/>
        <pt x="385" y="754" on="1"/>
        <pt x="472" y="754" on="0"/>
        <pt x="596" y="693" on="0"/>
        <pt x="651" y="632" on="1"/>
        <pt x="697" y="632" on="1"/>
        <pt x="697" y="545" on="1"/>
        <pt x="592" y="545" on="1"/>
        <pt x="558" y="603" on="0"/>
        <pt x="458" y="663" on="0"/>
        <pt x="385" y="663" on="1"/>
        <pt x="312" y="663" on="0"/>
        <pt x="196" y="583" on="0"/>
        <pt x="131" y="449" on="0"/>
        <pt x="131" y="371" on="1"/>
        <pt x="131" y="293" on="0"/>
        <pt x="196" y="159" on="0"/>
        <pt x="312" y="80" on="0"/>
        <pt x="385" y="80" on="1"/>
        <pt x="467" y="80" on="0"/>
        <pt x="575" y="158" on="0"/>
        <pt x="614" y="241" on="1"/>
      </contour>
    </TTGlyph>
    <TTGlyph name="Ccedilla" xMin="32" yMin="-211" xMax="702" yMax="754">
      <component glyphName="C" x="0" y="0" flags="0x0"/>
      <component glyphName="cedilla" x="160" y="0" flags="0x0"/>
    </TTGlyph>
    <TTGlyph name="D" xMin="70" yMin="0" xMax="707" yMax="740">
      <contour>
        <pt x="451" y="740" on="0"/>
        <pt x="614" y="642" on="0"/>
        <pt x="707" y="473" on="0"/>
        <pt x="707" y="372" on="1"/>
        <pt x="707" y="270" on="0"/>
        <pt x="614" y="100" on="0"/>
        <pt x="451" y="0" on="0"/>
        <pt x="351" y="0" on="1"/>
        <pt x="70" y="0" on="1"/>
        <pt x="70" y="84" on="1"/>
        <pt x="146" y="84" on="1"/>
        <pt x="146" y="656" on="1"/>
        <pt x="70" y="656" on="1"/>
        <pt x="70" y="740" on="1"/>
        <pt x="351" y="740" on="1"/>
      </contour>
      <contour>
        <pt x="425" y="84" on="0"/>
        <pt x="538" y="161" on="0"/>
        <pt x="605" y="293" on="0"/>
        <pt x="605" y="372" on="1"/>
        <pt x="605" y="450" on="0"/>
        <pt x="538" y="580" on="0"/>
        <pt x="425" y="656" on="0"/>
        <pt x="357" y="656" on="1"/>
        <pt x="242" y="656" on="1"/>
        <pt x="242" y="84" on="1"/>
        <pt x="357" y="84" on="1"/>
      </contour>
    </TTGlyph>
    <TTGlyph name="E" xMin="70" yMin="0" xMax="600" yMax="740">
      <contour>
        <pt x="600" y="531" on="1"/>
        <pt x="500" y="531" on="1"/>
        <pt x="500" y="656" on="1"/>
        <pt x="236" y="656" on="1"/>
        <pt x="236" y="419" on="1"/>
        <pt x="458" y="419" on="1"/>
        <pt x="458" y="335" on="1"/>
        <pt x="236" y="335" on="1"/>
        <pt x="236" y="84" on="1"/>
        <pt x="500" y="84" on="1"/>
        <pt x="500" y="209" on="1"/>
        <pt x="600" y="209" on="1"/>
        <pt x="600" y="0" on="1"/>
        <pt x="70" y="0" on="1"/>
        <pt x="70" y="84" on="1"/>
        <pt x="140" y="84" on="1"/>
        <pt x="140" y="656" on="1"/>
        <pt x="70" y="656" on="1"/>
        <pt x="70" y="740" on="1"/>
        <pt x="600" y="740" on="1"/>
      </contour>
    </TTGlyph>
    <TTGlyph name="Eacute" xMin="60" yMin="0" xMax="590" yMax="955">
      <contour>
        <pt x="497" y="947" on="1"/>
        <pt x="351" y="809" on="1"/>
        <pt x="276" y="809" on="1"/>
        <pt x="380" y="955" on="1"/>
        <pt x="497" y="955" on="1"/>
      </contour>
      <contour>
        <pt x="590" y="531" on="1"/>
        <pt x="490" y="531" on="1"/>
        <pt x="490" y="656" on="1"/>
        <pt x="227" y="656" on="1"/>
        <pt x="227" y="419" on="1"/>
        <pt x="448" y="419" on="1"/>
        <pt x="448" y="335" on="1"/>
        <pt x="227" y="335" on="1"/>
        <pt x="227" y="84" on="1"/>
        <pt x="490" y="84" on="1"/>
        <pt x="490" y="209" on="1"/>
        <pt x="590" y="209" on="1"/>
        <pt x="590" y="0" on="1"/>
        <pt x="60" y="0" on="1"/>
        <pt x="60" y="84" on="1"/>
        <pt x="131" y="84" on="1"/>
        <pt x="131" y="656" on="1"/>
        <pt x="60" y="656" on="1"/>
        <pt x="60" y="740" on="1"/>
        <pt x="590" y="740" on="1"/>
      </contour>
    </TTGlyph>
    <TTGlyph name="Ecircumflex" xMin="60" yMin="0" xMax="590" yMax="961">
      <contour>
        <pt x="356" y="884" on="1"/>
        <pt x="290" y="808" on="1"/>
        <pt x="218" y="808" on="1"/>
        <pt x="340" y="961" on="1"/>
        <pt x="371" y="961" on="1"/>
        <pt x="494" y="808" on="1"/>
        <pt x="421" y="808" on="1"/>
      </contour>
      <contour>
        <pt x="590" y="531" on="1"/>
        <pt x="490" y="531" on="1"/>
        <pt x="490" y="656" on="1"/>
        <pt x="227" y="656" on="1"/>
        <pt x="227" y="419" on="1"/>
        <pt x="448" y="419" on="1"/>
        <pt x="448" y="335" on="1"/>
        <pt x="227" y="335" on="1"/>
        <pt x="227" y="84" on="1"/>
        <pt x="490" y="84" on="1"/>
        <pt x="490" y="209" on="1"/>
        <pt x="590" y="209" on="1"/>
        <pt x="590" y="0" on="1"/>
        <pt x="60" y="0" on="1"/>
        <pt x="60" y="84" on="1"/>
        <pt x="131" y="84" on="1"/>
        <pt x="131" y="656" on="1"/>
        <pt x="60" y="656" on="1"/>
        <pt x="60" y="740" on="1"/>
        <pt x="590" y="740" on="1"/>
      </contour>
    </TTGlyph>
    <TTGlyph name="Edieresis" xMin="70" yMin="0" xMax="600" yMax="961">
      <component glyphName="E" x="0" y="0" flags="0x0"/>
      <component glyphName="uni0308" x="628" y="234" flags="0x4"/>
    </TTGlyph>
    <TTGlyph name="Egrave" xMin="60" yMin="0" xMax="590" yMax="955">
      <contour>
        <pt x="380" y="809" on="1"/>
        <pt x="309" y="809" on="1"/>
        <pt x="169" y="947" on="1"/>
        <pt x="169" y="955" on="1"/>
        <pt x="290" y="955" on="1"/>
      </contour>
      <contour>
        <pt x="590" y="531" on="1"/>
        <pt x="490" y="531" on="1"/>
        <pt x="490" y="656" on="1"/>
        <pt x="227" y="656" on="1"/>
        <pt x="227" y="419" on="1"/>
        <pt x="448" y="419" on="1"/>
        <pt x="448" y="335" on="1"/>
        <pt x="227" y="335" on="1"/>
        <pt x="227" y="84" on="1"/>
        <pt x="490" y="84" on="1"/>
        <pt x="490" y="209" on="1"/>
        <pt x="590" y="209" on="1"/>
        <pt x="590" y="0" on="1"/>
        <pt x="60" y="0" on="1"/>
        <pt x="60" y="84" on="1"/>
        <pt x="131" y="84" on="1"/>
        <pt x="131" y="656" on="1"/>
        <pt x="60" y="656" on="1"/>
        <pt x="60" y="740" on="1"/>
        <pt x="590" y="740" on="1"/>
      </contour>
    </TTGlyph>
    <TTGlyph name="Eogonek" xMin="70" yMin="-230" xMax="600" yMax="740">
      <contour>
        <pt x="500" y="531" on="1"/>
        <pt x="500" y="656" on="1"/>
        <pt x="236" y="656" on="1"/>
        <pt x="236" y="419" on="1"/>
        <pt x="458" y="419" on="1"/>
        <pt x="458" y="335" on="1"/>
        <pt x="236" y="335" on="1"/>
        <pt x="236" y="84" on="1"/>
        <pt x="500" y="84" on="1"/>
        <pt x="500" y="209" on="1"/>
        <pt x="600" y="209" on="1"/>
        <pt x="600" y="0" on="1"/>
        <pt x="591" y="0" on="1"/>
        <pt x="526" y="-22" on="0"/>
        <pt x="461" y="-74" on="0"/>
        <pt x="461" y="-110" on="1"/>
        <pt x="461" y="-131" on="0"/>
        <pt x="492" y="-158" on="0"/>
        <pt x="516" y="-158" on="1"/>
        <pt x="534" y="-158" on="0"/>
        <pt x="569" y="-152" on="0"/>
        <pt x="579" y="-147" on="1"/>
        <pt x="600" y="-209" on="1"/>
        <pt x="586" y="-218" on="0"/>
        <pt x="539" y="-230" on="0"/>
        <pt x="513" y="-230" on="1"/>
        <pt x="452" y="-230" on="0"/>
        <pt x="376" y="-175" on="0"/>
        <pt x="376" y="-127" on="1"/>
        <pt x="376" y="-56" on="0"/>
        <pt x="452" y="0" on="1"/>
        <pt x="70" y="0" on="1"/>
        <pt x="70" y="84" on="1"/>
        <pt x="140" y="84" on="1"/>
        <pt x="140" y="656" on="1"/>
        <pt x="70" y="656" on="1"/>
        <pt x="70" y="740" on="1"/>
        <pt x="600" y="740" on="1"/>
        <pt x="600" y="531" on="1"/>
      </contour>
    </TTGlyph>
    <TTGlyph name="Eth" xMin="62" yMin="0" xMax="705" yMax="740">
      <contour>
        <pt x="449" y="740" on="0"/>
        <pt x="612" y="642" on="0"/>
        <pt x="705" y="473" on="0"/>
        <pt x="705" y="372" on="1"/>
        <pt x="705" y="270" on="0"/>
        <pt x="612" y="100" on="0"/>
        <pt x="449" y="0" on="0"/>
        <pt x="349" y="0" on="1"/>
        <pt x="68" y="0" on="1"/>
        <pt x="68" y="84" on="1"/>
        <pt x="144" y="84" on="1"/>
        <pt x="144" y="330" on="1"/>
        <pt x="62" y="330" on="1"/>
        <pt x="62" y="414" on="1"/>
        <pt x="144" y="414" on="1"/>
        <pt x="144" y="656" on="1"/>
        <pt x="68" y="656" on="1"/>
        <pt x="68" y="740" on="1"/>
        <pt x="349" y="740" on="1"/>
      </contour>
      <contour>
        <pt x="423" y="84" on="0"/>
        <pt x="536" y="161" on="0"/>
        <pt x="603" y="293" on="0"/>
        <pt x="603" y="372" on="1"/>
        <pt x="603" y="450" on="0"/>
        <pt x="536" y="580" on="0"/>
        <pt x="423" y="656" on="0"/>
        <pt x="355" y="656" on="1"/>
        <pt x="240" y="656" on="1"/>
        <pt x="240" y="414" on="1"/>
        <pt x="331" y="414" on="1"/>
        <pt x="331" y="330" on="1"/>
        <pt x="240" y="330" on="1"/>
        <pt x="240" y="84" on="1"/>
        <pt x="355" y="84" on="1"/>
      </contour>
    </TTGlyph>
    <TTGlyph name="Euro" xMin="32" yMin="-12" xMax="702" yMax="754">
      <contour>
        <pt x="702" y="201" on="1"/>
        <pt x="655" y="101" on="0"/>
        <pt x="495" y="-12" on="0"/>
        <pt x="385" y="-12" on="1"/>
        <pt x="284" y="-12" on="0"/>
        <pt x="122" y="92" on="0"/>
        <pt x="32" y="268" on="0"/>
        <pt x="32" y="371" on="1"/>
        <pt x="32" y="475" on="0"/>
        <pt x="123" y="650" on="0"/>
        <pt x="284" y="754" on="0"/>
        <pt x="385" y="754" on="1"/>
        <pt x="472" y="754" on="0"/>
        <pt x="596" y="693" on="0"/>
        <pt x="651" y="632" on="1"/>
        <pt x="697" y="632" on="1"/>
        <pt x="697" y="545" on="1"/>
        <pt x="592" y="545" on="1"/>
        <pt x="558" y="603" on="0"/>
        <pt x="458" y="663" on="0"/>
        <pt x="385" y="663" on="1"/>
        <pt x="296" y="663" on="0"/>
        <pt x="167" y="555" on="0"/>
        <pt x="143" y="469" on="1"/>
        <pt x="440" y="469" on="1"/>
        <pt x="387" y="378" on="1"/>
        <pt x="131" y="378" on="1"/>
        <pt x="131" y="351" on="0"/>
        <pt x="136" y="319" on="1"/>
        <pt x="440" y="319" on="1"/>
        <pt x="387" y="228" on="1"/>
        <pt x="166" y="228" on="1"/>
        <pt x="199" y="161" on="0"/>
        <pt x="314" y="80" on="0"/>
        <pt x="385" y="80" on="1"/>
        <pt x="467" y="80" on="0"/>
        <pt x="575" y="158" on="0"/>
        <pt x="614" y="241" on="1"/>
      </contour>
    </TTGlyph>
    <TTGlyph name="F" xMin="70" yMin="0" xMax="602" yMax="740">
      <contour>
        <pt x="72" y="740" on="1"/>
        <pt x="602" y="740" on="1"/>
        <pt x="602" y="531" on="1"/>
        <pt x="502" y="531" on="1"/>
        <pt x="502" y="656" on="1"/>
        <pt x="234" y="656" on="1"/>
        <pt x="234" y="418" on="1"/>
        <pt x="492" y="418" on="1"/>
        <pt x="492" y="336" on="1"/>
        <pt x="234" y="336" on="1"/>
        <pt x="234" y="84" on="1"/>
        <pt x="310" y="84" on="1"/>
        <pt x="310" y="0" on="1"/>
        <pt x="70" y="0" on="1"/>
        <pt x="70" y="84" on="1"/>
        <pt x="138" y="84" on="1"/>
        <pt x="138" y="656" on="1"/>
        <pt x="72" y="656" on="1"/>
      </contour>
    </TTGlyph>
    <TTGlyph name="G" xMin="32" yMin="-6" xMax="729" yMax="754">
      <contour>
        <pt x="729" y="315" on="1"/>
        <pt x="729" y="-3" on="1"/>
        <pt x="638" y="-3" on="1"/>
        <pt x="638" y="146" on="1"/>
        <pt x="603" y="72" on="0"/>
        <pt x="462" y="-6" on="0"/>
        <pt x="378" y="-6" on="1"/>
        <pt x="312" y="-6" on="0"/>
        <pt x="189" y="42" on="0"/>
        <pt x="144" y="88" on="1"/>
        <pt x="91" y="142" on="0"/>
        <pt x="32" y="289" on="0"/>
        <pt x="32" y="371" on="1"/>
        <pt x="32" y="475" on="0"/>
        <pt x="123" y="650" on="0"/>
        <pt x="284" y="754" on="0"/>
        <pt x="385" y="754" on="1"/>
        <pt x="462" y="754" on="0"/>
        <pt x="587" y="696" on="0"/>
        <pt x="626" y="651" on="1"/>
        <pt x="697" y="632" on="1"/>
        <pt x="697" y="545" on="1"/>
        <pt x="592" y="545" on="1"/>
        <pt x="558" y="603" on="0"/>
        <pt x="458" y="663" on="0"/>
        <pt x="385" y="663" on="1"/>
        <pt x="312" y="663" on="0"/>
        <pt x="196" y="583" on="0"/>
        <pt x="131" y="449" on="0"/>
        <pt x="131" y="371" on="1"/>
        <pt x="131" y="293" on="0"/>
        <pt x="196" y="159" on="0"/>
        <pt x="312" y="80" on="0"/>
        <pt x="385" y="80" on="1"/>
        <pt x="576" y="80" on="0"/>
        <pt x="623" y="268" on="1"/>
        <pt x="416" y="268" on="1"/>
        <pt x="416" y="352" on="1"/>
        <pt x="728" y="352" on="1"/>
        <pt x="728" y="315" on="1"/>
      </contour>
    </TTGlyph>
    <TTGlyph name="H" xMin="70" yMin="0" xMax="830" yMax="740">
      <contour>
        <pt x="830" y="656" on="1"/>
        <pt x="760" y="656" on="1"/>
        <pt x="760" y="84" on="1"/>
        <pt x="830" y="84" on="1"/>
        <pt x="830" y="0" on="1"/>
        <pt x="590" y="0" on="1"/>
        <pt x="590" y="84" on="1"/>
        <pt x="664" y="84" on="1"/>
        <pt x="664" y="350" on="1"/>
        <pt x="236" y="350" on="1"/>
        <pt x="236" y="84" on="1"/>
        <pt x="310" y="84" on="1"/>
        <pt x="310" y="0" on="1"/>
        <pt x="70" y="0" on="1"/>
        <pt x="70" y="84" on="1"/>
        <pt x="140" y="84" on="1"/>
        <pt x="140" y="656" on="1"/>
        <pt x="70" y="656" on="1"/>
        <pt x="70" y="740" on="1"/>
        <pt x="310" y="740" on="1"/>
        <pt x="310" y="656" on="1"/>
        <pt x="236" y="656" on="1"/>
        <pt x="236" y="432" on="1"/>
        <pt x="664" y="432" on="1"/>
        <pt x="664" y="656" on="1"/>
        <pt x="590" y="656" on="1"/>
        <pt x="590" y="740" on="1"/>
        <pt x="830" y="740" on="1"/>
      </contour>
    </TTGlyph>
    <TTGlyph name="I" xMin="70" yMin="0" xMax="311" yMax="740">
      <contour>
        <pt x="311" y="656" on="1"/>
        <pt x="234" y="656" on="1"/>
        <pt x="234" y="84" on="1"/>
        <pt x="310" y="84" on="1"/>
        <pt x="310" y="0" on="1"/>
        <pt x="70" y="0" on="1"/>
        <pt x="70" y="84" on="1"/>
        <pt x="138" y="84" on="1"/>
        <pt x="138" y="656" on="1"/>
        <pt x="71" y="656" on="1"/>
        <pt x="71" y="740" on="1"/>
        <pt x="311" y="740" on="1"/>
      </contour>
    </TTGlyph>
    <TTGlyph name="Iacute" xMin="51" yMin="0" xMax="322" yMax="955">
      <contour>
        <pt x="205" y="955" on="1"/>
        <pt x="322" y="955" on="1"/>
        <pt x="322" y="947" on="1"/>
        <pt x="176" y="809" on="1"/>
        <pt x="101" y="809" on="1"/>
      </contour>
      <contour>
        <pt x="52" y="656" on="1"/>
        <pt x="52" y="740" on="1"/>
        <pt x="292" y="740" on="1"/>
        <pt x="292" y="656" on="1"/>
        <pt x="215" y="656" on="1"/>
        <pt x="215" y="84" on="1"/>
        <pt x="291" y="84" on="1"/>
        <pt x="291" y="0" on="1"/>
        <pt x="51" y="0" on="1"/>
        <pt x="51" y="84" on="1"/>
        <pt x="119" y="84" on="1"/>
        <pt x="119" y="656" on="1"/>
      </contour>
    </TTGlyph>
    <TTGlyph name="Icircumflex" xMin="43" yMin="0" xMax="319" yMax="961">
      <contour>
        <pt x="181" y="884" on="1"/>
        <pt x="115" y="808" on="1"/>
        <pt x="43" y="808" on="1"/>
        <pt x="165" y="961" on="1"/>
        <pt x="196" y="961" on="1"/>
        <pt x="319" y="808" on="1"/>
        <pt x="246" y="808" on="1"/>
      </contour>
      <contour>
        <pt x="52" y="656" on="1"/>
        <pt x="52" y="740" on="1"/>
        <pt x="292" y="740" on="1"/>
        <pt x="292" y="656" on="1"/>
        <pt x="215" y="656" on="1"/>
        <pt x="215" y="84" on="1"/>
        <pt x="291" y="84" on="1"/>
        <pt x="291" y="0" on="1"/>
        <pt x="51" y="0" on="1"/>
        <pt x="51" y="84" on="1"/>
        <pt x="119" y="84" on="1"/>
        <pt x="119" y="656" on="1"/>
      </contour>
    </TTGlyph>
    <TTGlyph name="Idieresis" xMin="14" yMin="0" xMax="362" yMax="961">
      <component glyphName="I" x="0" y="0" flags="0x0"/>
      <component glyphName="uni0308" x="462" y="234" flags="0x4"/>
    </TTGlyph>
    <TTGlyph name="Igrave" xMin="-6" yMin="0" xMax="292" yMax="955">
      <contour>
        <pt x="205" y="809" on="1"/>
        <pt x="134" y="809" on="1"/>
        <pt x="-6" y="947" on="1"/>
        <pt x="-6" y="955" on="1"/>
        <pt x="115" y="955" on="1"/>
      </contour>
      <contour>
        <pt x="292" y="656" on="1"/>
        <pt x="215" y="656" on="1"/>
        <pt x="215" y="84" on="1"/>
        <pt x="291" y="84" on="1"/>
        <pt x="291" y="0" on="1"/>
        <pt x="51" y="0" on="1"/>
        <pt x="51" y="84" on="1"/>
        <pt x="119" y="84" on="1"/>
        <pt x="119" y="656" on="1"/>
        <pt x="52" y="656" on="1"/>
        <pt x="52" y="740" on="1"/>
        <pt x="292" y="740" on="1"/>
      </contour>
    </TTGlyph>
    <TTGlyph name="Iogonek" xMin="70" yMin="-230" xMax="311" yMax="740">
      <contour>
        <pt x="234" y="656" on="1"/>
        <pt x="234" y="84" on="1"/>
        <pt x="310" y="84" on="1"/>
        <pt x="310" y="0" on="1"/>
        <pt x="302" y="0" on="1"/>
        <pt x="237" y="-22" on="0"/>
        <pt x="172" y="-74" on="0"/>
        <pt x="172" y="-110" on="1"/>
        <pt x="172" y="-131" on="0"/>
        <pt x="203" y="-158" on="0"/>
        <pt x="227" y="-158" on="1"/>
        <pt x="245" y="-158" on="0"/>
        <pt x="280" y="-152" on="0"/>
        <pt x="290" y="-147" on="1"/>
        <pt x="311" y="-209" on="1"/>
        <pt x="297" y="-218" on="0"/>
        <pt x="250" y="-230" on="0"/>
        <pt x="224" y="-230" on="1"/>
        <pt x="163" y="-230" on="0"/>
        <pt x="87" y="-175" on="0"/>
        <pt x="87" y="-127" on="1"/>
        <pt x="87" y="-56" on="0"/>
        <pt x="163" y="0" on="1"/>
        <pt x="70" y="0" on="1"/>
        <pt x="70" y="84" on="1"/>
        <pt x="138" y="84" on="1"/>
        <pt x="138" y="656" on="1"/>
        <pt x="71" y="656" on="1"/>
        <pt x="71" y="740" on="1"/>
        <pt x="311" y="740" on="1"/>
        <pt x="311" y="656" on="1"/>
      </contour>
    </TTGlyph>
    <TTGlyph name="J" xMin="50" yMin="-116" xMax="313" yMax="740">
      <contour>
        <pt x="313" y="656" on="1"/>
        <pt x="251" y="656" on="1"/>
        <pt x="251" y="84" on="1"/>
        <pt x="251" y="59" on="0"/>
        <pt x="199" y="-30" on="0"/>
        <pt x="143" y="-105" on="0"/>
        <pt x="134" y="-116" on="1"/>
        <pt x="50" y="-109" on="1"/>
        <pt x="58" y="-97" on="0"/>
        <pt x="108" y="-17" on="0"/>
        <pt x="154" y="76" on="0"/>
        <pt x="154" y="100" on="1"/>
        <pt x="154" y="656" on="1"/>
        <pt x="73" y="656" on="1"/>
        <pt x="73" y="740" on="1"/>
        <pt x="313" y="740" on="1"/>
      </contour>
    </TTGlyph>
    <TTGlyph name="K" xMin="70" yMin="0" xMax="728" yMax="740">
      <contour>
        <pt x="234" y="656" on="1"/>
        <pt x="234" y="84" on="1"/>
        <pt x="310" y="84" on="1"/>
        <pt x="310" y="0" on="1"/>
        <pt x="70" y="0" on="1"/>
        <pt x="70" y="84" on="1"/>
        <pt x="138" y="84" on="1"/>
        <pt x="138" y="656" on="1"/>
        <pt x="71" y="656" on="1"/>
        <pt x="71" y="740" on="1"/>
        <pt x="311" y="740" on="1"/>
        <pt x="311" y="656" on="1"/>
      </contour>
      <contour>
        <pt x="728" y="656" on="1"/>
        <pt x="670" y="656" on="1"/>
        <pt x="346" y="383" on="1"/>
        <pt x="649" y="84" on="1"/>
        <pt x="728" y="84" on="1"/>
        <pt x="728" y="0" on="1"/>
        <pt x="529" y="0" on="1"/>
        <pt x="529" y="84" on="1"/>
        <pt x="235" y="378" on="1"/>
        <pt x="558" y="656" on="1"/>
        <pt x="558" y="740" on="1"/>
        <pt x="728" y="740" on="1"/>
      </contour>
    </TTGlyph>
    <TTGlyph name="L" xMin="70" yMin="0" xMax="628" yMax="740">
      <contour>
        <pt x="628" y="219" on="1"/>
        <pt x="628" y="0" on="1"/>
        <pt x="70" y="0" on="1"/>
        <pt x="70" y="84" on="1"/>
        <pt x="137" y="84" on="1"/>
        <pt x="137" y="656" on="1"/>
        <pt x="70" y="656" on="1"/>
        <pt x="70" y="740" on="1"/>
        <pt x="310" y="740" on="1"/>
        <pt x="310" y="656" on="1"/>
        <pt x="233" y="656" on="1"/>
        <pt x="233" y="84" on="1"/>
        <pt x="488" y="84" on="1"/>
        <pt x="504" y="84" on="0"/>
        <pt x="532" y="110" on="0"/>
        <pt x="532" y="126" on="1"/>
        <pt x="532" y="219" on="1"/>
      </contour>
    </TTGlyph>
    <TTGlyph name="Lslash" xMin="70" yMin="0" xMax="628" yMax="740">
      <contour>
        <pt x="628" y="219" on="1"/>
        <pt x="628" y="0" on="1"/>
        <pt x="70" y="0" on="1"/>
        <pt x="70" y="84" on="1"/>
        <pt x="137" y="84" on="1"/>
        <pt x="137" y="231" on="1"/>
        <pt x="70" y="195" on="1"/>
        <pt x="70" y="297" on="1"/>
        <pt x="137" y="333" on="1"/>
        <pt x="137" y="656" on="1"/>
        <pt x="70" y="656" on="1"/>
        <pt x="70" y="740" on="1"/>
        <pt x="310" y="740" on="1"/>
        <pt x="310" y="656" on="1"/>
        <pt x="233" y="656" on="1"/>
        <pt x="233" y="385" on="1"/>
        <pt x="507" y="532" on="1"/>
        <pt x="507" y="430" on="1"/>
        <pt x="233" y="283" on="1"/>
        <pt x="233" y="84" on="1"/>
        <pt x="488" y="84" on="1"/>
        <pt x="504" y="84" on="0"/>
        <pt x="532" y="110" on="0"/>
        <pt x="532" y="126" on="1"/>
        <pt x="532" y="219" on="1"/>
      </contour>
    </TTGlyph>
    <TTGlyph name="M" xMin="70" yMin="0" xMax="1012" yMax="740">
      <contour>
        <pt x="1012" y="647" on="1"/>
        <pt x="935" y="647" on="1"/>
        <pt x="935" y="84" on="1"/>
        <pt x="1010" y="84" on="1"/>
        <pt x="1010" y="0" on="1"/>
        <pt x="770" y="0" on="1"/>
        <pt x="770" y="84" on="1"/>
        <pt x="844" y="84" on="1"/>
        <pt x="844" y="653" on="1"/>
        <pt x="585" y="0" on="1"/>
        <pt x="502" y="0" on="1"/>
        <pt x="240" y="653" on="1"/>
        <pt x="240" y="84" on="1"/>
        <pt x="316" y="84" on="1"/>
        <pt x="316" y="0" on="1"/>
        <pt x="76" y="0" on="1"/>
        <pt x="76" y="84" on="1"/>
        <pt x="146" y="84" on="1"/>
        <pt x="146" y="647" on="1"/>
        <pt x="70" y="647" on="1"/>
        <pt x="70" y="740" on="1"/>
        <pt x="310" y="740" on="1"/>
        <pt x="545" y="101" on="1"/>
        <pt x="783" y="740" on="1"/>
        <pt x="1012" y="740" on="1"/>
      </contour>
    </TTGlyph>
    <TTGlyph name="N" xMin="70" yMin="0" xMax="766" yMax="741">
      <contour>
        <pt x="766" y="740" on="1"/>
        <pt x="766" y="656" on="1"/>
        <pt x="703" y="656" on="1"/>
        <pt x="703" y="0" on="1"/>
        <pt x="578" y="0" on="1"/>
        <pt x="234" y="614" on="1"/>
        <pt x="234" y="84" on="1"/>
        <pt x="310" y="84" on="1"/>
        <pt x="310" y="0" on="1"/>
        <pt x="70" y="0" on="1"/>
        <pt x="70" y="84" on="1"/>
        <pt x="138" y="84" on="1"/>
        <pt x="138" y="656" on="1"/>
        <pt x="72" y="656" on="1"/>
        <pt x="72" y="741" on="1"/>
        <pt x="267" y="741" on="1"/>
        <pt x="609" y="131" on="1"/>
        <pt x="609" y="656" on="1"/>
        <pt x="526" y="656" on="1"/>
        <pt x="526" y="740" on="1"/>
      </contour>
    </TTGlyph>
    <TTGlyph name="Ntilde" xMin="50" yMin="0" xMax="746" yMax="925">
      <contour>
        <pt x="297" y="857" on="0"/>
        <pt x="270" y="843" on="0"/>
        <pt x="263" y="819" on="1"/>
        <pt x="210" y="845" on="1"/>
        <pt x="222" y="887" on="0"/>
        <pt x="282" y="925" on="0"/>
        <pt x="320" y="925" on="1"/>
        <pt x="343" y="925" on="0"/>
        <pt x="377" y="911" on="0"/>
        <pt x="399" y="897" on="1"/>
        <pt x="417" y="885" on="0"/>
        <pt x="444" y="874" on="0"/>
        <pt x="460" y="874" on="1"/>
        <pt x="475" y="874" on="0"/>
        <pt x="500" y="894" on="0"/>
        <pt x="504" y="913" on="1"/>
        <pt x="562" y="896" on="1"/>
        <pt x="552" y="855" on="0"/>
        <pt x="496" y="809" on="0"/>
        <pt x="456" y="809" on="1"/>
        <pt x="429" y="809" on="0"/>
        <pt x="390" y="824" on="0"/>
        <pt x="367" y="838" on="1"/>
        <pt x="350" y="848" on="0"/>
        <pt x="329" y="857" on="0"/>
        <pt x="316" y="857" on="1"/>
      </contour>
      <contour>
        <pt x="746" y="740" on="1"/>
        <pt x="746" y="656" on="1"/>
        <pt x="683" y="656" on="1"/>
        <pt x="683" y="0" on="1"/>
        <pt x="558" y="0" on="1"/>
        <pt x="214" y="614" on="1"/>
        <pt x="214" y="84" on="1"/>
        <pt x="290" y="84" on="1"/>
        <pt x="290" y="0" on="1"/>
        <pt x="50" y="0" on="1"/>
        <pt x="50" y="84" on="1"/>
        <pt x="118" y="84" on="1"/>
        <pt x="118" y="656" on="1"/>
        <pt x="52" y="656" on="1"/>
        <pt x="52" y="741" on="1"/>
        <pt x="247" y="741" on="1"/>
        <pt x="589" y="131" on="1"/>
        <pt x="589" y="656" on="1"/>
        <pt x="506" y="656" on="1"/>
        <pt x="506" y="740" on="1"/>
      </contour>
    </TTGlyph>
    <TTGlyph name="O" xMin="37" yMin="-15" xMax="747" yMax="755">
      <contour>
        <pt x="290" y="-15" on="0"/>
        <pt x="128" y="88" on="0"/>
        <pt x="37" y="264" on="0"/>
        <pt x="37" y="370" on="1"/>
        <pt x="37" y="476" on="0"/>
        <pt x="128" y="653" on="0"/>
        <pt x="290" y="755" on="0"/>
        <pt x="392" y="755" on="1"/>
        <pt x="495" y="755" on="0"/>
        <pt x="657" y="653" on="0"/>
        <pt x="747" y="476" on="0"/>
        <pt x="747" y="370" on="1"/>
        <pt x="747" y="264" on="0"/>
        <pt x="656" y="88" on="0"/>
        <pt x="494" y="-15" on="0"/>
        <pt x="392" y="-15" on="1"/>
      </contour>
      <contour>
        <pt x="467" y="77" on="0"/>
        <pt x="583" y="157" on="0"/>
        <pt x="646" y="291" on="0"/>
        <pt x="646" y="370" on="1"/>
        <pt x="646" y="448" on="0"/>
        <pt x="582" y="583" on="0"/>
        <pt x="467" y="664" on="0"/>
        <pt x="392" y="664" on="1"/>
        <pt x="317" y="664" on="0"/>
        <pt x="201" y="584" on="0"/>
        <pt x="137" y="449" on="0"/>
        <pt x="137" y="370" on="1"/>
        <pt x="137" y="291" on="0"/>
        <pt x="201" y="157" on="0"/>
        <pt x="317" y="77" on="0"/>
        <pt x="392" y="77" on="1"/>
      </contour>
    </TTGlyph>
    <TTGlyph name="OE" xMin="37" yMin="-15" xMax="1112" yMax="755">
      <contour>
        <pt x="1012" y="531" on="1"/>
        <pt x="1012" y="656" on="1"/>
        <pt x="748" y="656" on="1"/>
        <pt x="748" y="419" on="1"/>
        <pt x="970" y="419" on="1"/>
        <pt x="970" y="335" on="1"/>
        <pt x="748" y="335" on="1"/>
        <pt x="748" y="84" on="1"/>
        <pt x="1012" y="84" on="1"/>
        <pt x="1012" y="209" on="1"/>
        <pt x="1112" y="209" on="1"/>
        <pt x="1112" y="0" on="1"/>
        <pt x="652" y="0" on="1"/>
        <pt x="652" y="103" on="1"/>
        <pt x="604" y="47" on="0"/>
        <pt x="471" y="-15" on="0"/>
        <pt x="392" y="-15" on="1"/>
        <pt x="290" y="-15" on="0"/>
        <pt x="128" y="88" on="0"/>
        <pt x="37" y="264" on="0"/>
        <pt x="37" y="370" on="1"/>
        <pt x="37" y="476" on="0"/>
        <pt x="128" y="653" on="0"/>
        <pt x="290" y="755" on="0"/>
        <pt x="392" y="755" on="1"/>
        <pt x="471" y="755" on="0"/>
        <pt x="604" y="694" on="0"/>
        <pt x="652" y="639" on="1"/>
        <pt x="652" y="740" on="1"/>
        <pt x="1112" y="740" on="1"/>
        <pt x="1112" y="531" on="1"/>
      </contour>
      <contour>
        <pt x="467" y="77" on="0"/>
        <pt x="583" y="157" on="0"/>
        <pt x="646" y="291" on="0"/>
        <pt x="646" y="370" on="1"/>
        <pt x="646" y="448" on="0"/>
        <pt x="582" y="583" on="0"/>
        <pt x="467" y="664" on="0"/>
        <pt x="392" y="664" on="1"/>
        <pt x="317" y="664" on="0"/>
        <pt x="201" y="584" on="0"/>
        <pt x="137" y="449" on="0"/>
        <pt x="137" y="370" on="1"/>
        <pt x="137" y="291" on="0"/>
        <pt x="201" y="157" on="0"/>
        <pt x="317" y="77" on="0"/>
        <pt x="392" y="77" on="1"/>
      </contour>
    </TTGlyph>
    <TTGlyph name="Oacute" xMin="37" yMin="-15" xMax="747" yMax="955">
      <component glyphName="O" x="0" y="0" flags="0x0"/>
      <component glyphName="acute" x="280" y="234" flags="0x4"/>
    </TTGlyph>
    <TTGlyph name="Ocircumflex" xMin="37" yMin="-15" xMax="747" yMax="961">
      <component glyphName="O" x="0" y="0" flags="0x0"/>
      <component glyphName="circumflex" x="157" y="234" flags="0x4"/>
    </TTGlyph>
    <TTGlyph name="Odieresis" xMin="37" yMin="-15" xMax="747" yMax="961">
      <component glyphName="O" x="0" y="0" flags="0x0"/>
      <component glyphName="uni0308" x="663" y="234" flags="0x4"/>
    </TTGlyph>
    <TTGlyph name="Ograve" xMin="37" yMin="-15" xMax="747" yMax="955">
      <component glyphName="O" x="0" y="0" flags="0x0"/>
      <component glyphName="grave" x="124" y="234" flags="0x4"/>
    </TTGlyph>
    <TTGlyph name="Oslash" xMin="11" yMin="-30" xMax="747" yMax="770">
      <contour>
        <pt x="691" y="599" on="0"/>
        <pt x="747" y="453" on="0"/>
        <pt x="747" y="370" on="1"/>
        <pt x="747" y="264" on="0"/>
        <pt x="656" y="88" on="0"/>
        <pt x="494" y="-15" on="0"/>
        <pt x="392" y="-15" on="1"/>
        <pt x="331" y="-15" on="0"/>
        <pt x="221" y="23" on="0"/>
        <pt x="177" y="59" on="1"/>
        <pt x="108" y="-30" on="1"/>
        <pt x="11" y="-30" on="1"/>
        <pt x="123" y="113" on="1"/>
        <pt x="81" y="164" on="0"/>
        <pt x="37" y="296" on="0"/>
        <pt x="37" y="370" on="1"/>
        <pt x="37" y="476" on="0"/>
        <pt x="128" y="653" on="0"/>
        <pt x="290" y="755" on="0"/>
        <pt x="392" y="755" on="1"/>
        <pt x="496" y="755" on="0"/>
        <pt x="580" y="701" on="1"/>
        <pt x="634" y="770" on="1"/>
        <pt x="731" y="770" on="1"/>
        <pt x="639" y="652" on="1"/>
      </contour>
      <contour>
        <pt x="137" y="271" on="0"/>
        <pt x="185" y="194" on="1"/>
        <pt x="522" y="626" on="1"/>
        <pt x="463" y="664" on="0"/>
        <pt x="392" y="664" on="1"/>
        <pt x="317" y="664" on="0"/>
        <pt x="201" y="584" on="0"/>
        <pt x="137" y="449" on="0"/>
        <pt x="137" y="370" on="1"/>
      </contour>
      <contour>
        <pt x="467" y="77" on="0"/>
        <pt x="583" y="157" on="0"/>
        <pt x="646" y="291" on="0"/>
        <pt x="646" y="370" on="1"/>
        <pt x="646" y="428" on="0"/>
        <pt x="611" y="534" on="0"/>
        <pt x="578" y="574" on="1"/>
        <pt x="236" y="135" on="1"/>
        <pt x="304" y="77" on="0"/>
        <pt x="392" y="77" on="1"/>
      </contour>
    </TTGlyph>
    <TTGlyph name="Otilde" xMin="37" yMin="-15" xMax="747" yMax="925">
      <component glyphName="O" x="0" y="0" flags="0x0"/>
      <component glyphName="tilde" x="173" y="234" flags="0x4"/>
    </TTGlyph>
    <TTGlyph name="P" xMin="70" yMin="0" xMax="609" yMax="741">
      <contour>
        <pt x="483" y="740" on="0"/>
        <pt x="609" y="636" on="0"/>
        <pt x="609" y="540" on="1"/>
        <pt x="609" y="486" on="0"/>
        <pt x="551" y="396" on="0"/>
        <pt x="446" y="343" on="0"/>
        <pt x="379" y="343" on="1"/>
        <pt x="248" y="343" on="1"/>
        <pt x="248" y="84" on="1"/>
        <pt x="312" y="84" on="1"/>
        <pt x="312" y="0" on="1"/>
        <pt x="72" y="0" on="1"/>
        <pt x="72" y="84" on="1"/>
        <pt x="152" y="84" on="1"/>
        <pt x="152" y="656" on="1"/>
        <pt x="70" y="656" on="1"/>
        <pt x="70" y="741" on="1"/>
        <pt x="381" y="740" on="1"/>
      </contour>
      <contour>
        <pt x="438" y="423" on="0"/>
        <pt x="508" y="484" on="0"/>
        <pt x="508" y="540" on="1"/>
        <pt x="508" y="656" on="0"/>
        <pt x="369" y="656" on="1"/>
        <pt x="248" y="656" on="1"/>
        <pt x="248" y="423" on="1"/>
        <pt x="381" y="423" on="1"/>
      </contour>
    </TTGlyph>
    <TTGlyph name="Pi" xMin="70" yMin="0" xMax="800" yMax="740">
      <contour>
        <pt x="800" y="656" on="1"/>
        <pt x="730" y="656" on="1"/>
        <pt x="730" y="84" on="1"/>
        <pt x="800" y="84" on="1"/>
        <pt x="800" y="0" on="1"/>
        <pt x="560" y="0" on="1"/>
        <pt x="560" y="84" on="1"/>
        <pt x="634" y="84" on="1"/>
        <pt x="634" y="656" on="1"/>
        <pt x="236" y="656" on="1"/>
        <pt x="236" y="84" on="1"/>
        <pt x="310" y="84" on="1"/>
        <pt x="310" y="0" on="1"/>
        <pt x="70" y="0" on="1"/>
        <pt x="70" y="84" on="1"/>
        <pt x="140" y="84" on="1"/>
        <pt x="140" y="656" on="1"/>
        <pt x="71" y="656" on="1"/>
        <pt x="71" y="740" on="1"/>
        <pt x="800" y="740" on="1"/>
      </contour>
    </TTGlyph>
    <TTGlyph name="Q" xMin="37" yMin="-159" xMax="747" yMax="755">
      <contour>
        <pt x="622" y="-72" on="0"/>
        <pt x="664" y="-43" on="0"/>
        <pt x="671" y="-15" on="1"/>
        <pt x="745" y="-49" on="1"/>
        <pt x="734" y="-101" on="0"/>
        <pt x="644" y="-159" on="0"/>
        <pt x="593" y="-159" on="1"/>
        <pt x="553" y="-159" on="0"/>
        <pt x="499" y="-140" on="0"/>
        <pt x="467" y="-121" on="1"/>
        <pt x="442" y="-107" on="0"/>
        <pt x="407" y="-93" on="0"/>
        <pt x="384" y="-93" on="1"/>
        <pt x="357" y="-93" on="0"/>
        <pt x="343" y="-99" on="1"/>
        <pt x="343" y="-12" on="1"/>
        <pt x="253" y="0" on="0"/>
        <pt x="114" y="107" on="0"/>
        <pt x="37" y="273" on="0"/>
        <pt x="37" y="370" on="1"/>
        <pt x="37" y="476" on="0"/>
        <pt x="128" y="653" on="0"/>
        <pt x="290" y="755" on="0"/>
        <pt x="392" y="755" on="1"/>
        <pt x="495" y="755" on="0"/>
        <pt x="657" y="653" on="0"/>
        <pt x="747" y="476" on="0"/>
        <pt x="747" y="370" on="1"/>
        <pt x="747" y="272" on="0"/>
        <pt x="668" y="105" on="0"/>
        <pt x="527" y="-1" on="0"/>
        <pt x="436" y="-12" on="1"/>
        <pt x="458" y="-19" on="0"/>
        <pt x="492" y="-39" on="1"/>
        <pt x="518" y="-55" on="0"/>
        <pt x="561" y="-72" on="0"/>
        <pt x="593" y="-72" on="1"/>
      </contour>
      <contour>
        <pt x="137" y="291" on="0"/>
        <pt x="201" y="157" on="0"/>
        <pt x="317" y="77" on="0"/>
        <pt x="392" y="77" on="1"/>
        <pt x="467" y="77" on="0"/>
        <pt x="583" y="157" on="0"/>
        <pt x="646" y="291" on="0"/>
        <pt x="646" y="370" on="1"/>
        <pt x="646" y="448" on="0"/>
        <pt x="582" y="583" on="0"/>
        <pt x="467" y="664" on="0"/>
        <pt x="392" y="664" on="1"/>
        <pt x="317" y="664" on="0"/>
        <pt x="201" y="584" on="0"/>
        <pt x="137" y="449" on="0"/>
        <pt x="137" y="370" on="1"/>
      </contour>
    </TTGlyph>
    <TTGlyph name="R" xMin="70" yMin="0" xMax="664" yMax="741">
      <contour>
        <pt x="664" y="0" on="1"/>
        <pt x="520" y="0" on="1"/>
        <pt x="465" y="225" on="1"/>
        <pt x="450" y="286" on="0"/>
        <pt x="388" y="343" on="0"/>
        <pt x="334" y="343" on="1"/>
        <pt x="239" y="343" on="1"/>
        <pt x="239" y="84" on="1"/>
        <pt x="315" y="84" on="1"/>
        <pt x="315" y="0" on="1"/>
        <pt x="75" y="0" on="1"/>
        <pt x="75" y="84" on="1"/>
        <pt x="143" y="84" on="1"/>
        <pt x="143" y="656" on="1"/>
        <pt x="70" y="656" on="1"/>
        <pt x="70" y="741" on="1"/>
        <pt x="381" y="740" on="1"/>
        <pt x="483" y="740" on="0"/>
        <pt x="609" y="636" on="0"/>
        <pt x="609" y="540" on="1"/>
        <pt x="609" y="484" on="0"/>
        <pt x="534" y="386" on="0"/>
        <pt x="476" y="366" on="1"/>
        <pt x="502" y="355" on="0"/>
        <pt x="548" y="294" on="0"/>
        <pt x="558" y="254" on="1"/>
        <pt x="599" y="93" on="1"/>
        <pt x="663" y="93" on="1"/>
      </contour>
      <contour>
        <pt x="381" y="423" on="1"/>
        <pt x="438" y="423" on="0"/>
        <pt x="508" y="483" on="0"/>
        <pt x="508" y="539" on="1"/>
        <pt x="508" y="656" on="0"/>
        <pt x="369" y="656" on="1"/>
        <pt x="239" y="656" on="1"/>
        <pt x="239" y="423" on="1"/>
      </contour>
    </TTGlyph>
    <TTGlyph name="S" xMin="39" yMin="-16" xMax="569" yMax="751">
      <contour>
        <pt x="449" y="539" on="1"/>
        <pt x="449" y="572" on="1"/>
        <pt x="440" y="612" on="0"/>
        <pt x="360" y="660" on="0"/>
        <pt x="313" y="660" on="1"/>
        <pt x="242" y="660" on="0"/>
        <pt x="165" y="599" on="0"/>
        <pt x="165" y="553" on="1"/>
        <pt x="165" y="502" on="0"/>
        <pt x="218" y="459" on="0"/>
        <pt x="277" y="440" on="0"/>
        <pt x="285" y="437" on="1"/>
        <pt x="384" y="405" on="1"/>
        <pt x="477" y="375" on="0"/>
        <pt x="566" y="280" on="0"/>
        <pt x="566" y="198" on="1"/>
        <pt x="566" y="138" on="0"/>
        <pt x="501" y="40" on="0"/>
        <pt x="385" y="-16" on="0"/>
        <pt x="312" y="-16" on="1"/>
        <pt x="123" y="-16" on="0"/>
        <pt x="76" y="138" on="1"/>
        <pt x="39" y="138" on="1"/>
        <pt x="39" y="222" on="1"/>
        <pt x="162" y="222" on="1"/>
        <pt x="162" y="198" on="1"/>
        <pt x="162" y="140" on="0"/>
        <pt x="246" y="78" on="0"/>
        <pt x="317" y="78" on="1"/>
        <pt x="384" y="78" on="0"/>
        <pt x="461" y="139" on="0"/>
        <pt x="461" y="193" on="1"/>
        <pt x="461" y="245" on="0"/>
        <pt x="387" y="301" on="0"/>
        <pt x="329" y="319" on="1"/>
        <pt x="222" y="349" on="1"/>
        <pt x="147" y="372" on="0"/>
        <pt x="65" y="467" on="0"/>
        <pt x="65" y="547" on="1"/>
        <pt x="65" y="604" on="0"/>
        <pt x="125" y="697" on="0"/>
        <pt x="238" y="751" on="0"/>
        <pt x="316" y="751" on="1"/>
        <pt x="393" y="751" on="0"/>
        <pt x="503" y="683" on="0"/>
        <pt x="532" y="623" on="1"/>
        <pt x="569" y="623" on="1"/>
        <pt x="569" y="539" on="1"/>
      </contour>
    </TTGlyph>
    <TTGlyph name="Scommaaccent" xMin="39" yMin="-231" xMax="569" yMax="751">
      <component glyphName="S" x="0" y="0" flags="0x0"/>
      <component glyphName="commabelow" x="202" y="0" flags="0x0"/>
    </TTGlyph>
    <TTGlyph name="T" xMin="20" yMin="0" xMax="680" yMax="740">
      <contour>
        <pt x="20" y="740" on="1"/>
        <pt x="680" y="740" on="1"/>
        <pt x="680" y="545" on="1"/>
        <pt x="580" y="545" on="1"/>
        <pt x="580" y="660" on="1"/>
        <pt x="385" y="660" on="1"/>
        <pt x="385" y="84" on="1"/>
        <pt x="461" y="84" on="1"/>
        <pt x="461" y="0" on="1"/>
        <pt x="221" y="0" on="1"/>
        <pt x="221" y="84" on="1"/>
        <pt x="289" y="84" on="1"/>
        <pt x="289" y="660" on="1"/>
        <pt x="120" y="660" on="1"/>
        <pt x="120" y="545" on="1"/>
        <pt x="20" y="545" on="1"/>
      </contour>
    </TTGlyph>
    <TTGlyph name="Thorn" xMin="51" yMin="0" xMax="603" yMax="740">
      <contour>
        <pt x="477" y="590" on="0"/>
        <pt x="603" y="486" on="0"/>
        <pt x="603" y="390" on="1"/>
        <pt x="603" y="336" on="0"/>
        <pt x="545" y="246" on="0"/>
        <pt x="440" y="193" on="0"/>
        <pt x="373" y="193" on="1"/>
        <pt x="215" y="193" on="1"/>
        <pt x="215" y="84" on="1"/>
        <pt x="291" y="84" on="1"/>
        <pt x="291" y="0" on="1"/>
        <pt x="51" y="0" on="1"/>
        <pt x="51" y="84" on="1"/>
        <pt x="119" y="84" on="1"/>
        <pt x="119" y="656" on="1"/>
        <pt x="52" y="656" on="1"/>
        <pt x="52" y="740" on="1"/>
        <pt x="292" y="740" on="1"/>
        <pt x="292" y="656" on="1"/>
        <pt x="215" y="656" on="1"/>
        <pt x="215" y="591" on="1"/>
        <pt x="375" y="590" on="1"/>
      </contour>
      <contour>
        <pt x="432" y="273" on="0"/>
        <pt x="502" y="334" on="0"/>
        <pt x="502" y="390" on="1"/>
        <pt x="502" y="506" on="0"/>
        <pt x="363" y="506" on="1"/>
        <pt x="215" y="506" on="1"/>
        <pt x="215" y="273" on="1"/>
        <pt x="375" y="273" on="1"/>
      </contour>
    </TTGlyph>
    <TTGlyph name="U" xMin="55" yMin="-10" xMax="755" yMax="740">
      <contour>
        <pt x="755" y="656" on="1"/>
        <pt x="689" y="656" on="1"/>
        <pt x="689" y="322" on="1"/>
        <pt x="689" y="219" on="0"/>
        <pt x="614" y="69" on="0"/>
        <pt x="484" y="-10" on="0"/>
        <pt x="403" y="-10" on="1"/>
        <pt x="325" y="-10" on="0"/>
        <pt x="197" y="68" on="0"/>
        <pt x="123" y="215" on="0"/>
        <pt x="123" y="313" on="1"/>
        <pt x="123" y="656" on="1"/>
        <pt x="55" y="656" on="1"/>
        <pt x="55" y="740" on="1"/>
        <pt x="295" y="740" on="1"/>
        <pt x="295" y="656" on="1"/>
        <pt x="230" y="656" on="1"/>
        <pt x="230" y="313" on="1"/>
        <pt x="230" y="201" on="0"/>
        <pt x="325" y="96" on="0"/>
        <pt x="407" y="96" on="1"/>
        <pt x="493" y="96" on="0"/>
        <pt x="584" y="194" on="0"/>
        <pt x="584" y="313" on="1"/>
        <pt x="584" y="656" on="1"/>
        <pt x="515" y="656" on="1"/>
        <pt x="515" y="740" on="1"/>
        <pt x="755" y="740" on="1"/>
      </contour>
    </TTGlyph>
    <TTGlyph name="Uacute" xMin="55" yMin="-10" xMax="755" yMax="955">
      <contour>
        <pt x="557" y="947" on="1"/>
        <pt x="411" y="809" on="1"/>
        <pt x="336" y="809" on="1"/>
        <pt x="440" y="955" on="1"/>
        <pt x="557" y="955" on="1"/>
      </contour>
      <contour>
        <pt x="755" y="656" on="1"/>
        <pt x="689" y="656" on="1"/>
        <pt x="689" y="322" on="1"/>
        <pt x="689" y="219" on="0"/>
        <pt x="614" y="69" on="0"/>
        <pt x="484" y="-10" on="0"/>
        <pt x="403" y="-10" on="1"/>
        <pt x="325" y="-10" on="0"/>
        <pt x="197" y="68" on="0"/>
        <pt x="123" y="215" on="0"/>
        <pt x="123" y="313" on="1"/>
        <pt x="123" y="656" on="1"/>
        <pt x="55" y="656" on="1"/>
        <pt x="55" y="740" on="1"/>
        <pt x="295" y="740" on="1"/>
        <pt x="295" y="656" on="1"/>
        <pt x="230" y="656" on="1"/>
        <pt x="230" y="313" on="1"/>
        <pt x="230" y="201" on="0"/>
        <pt x="325" y="96" on="0"/>
        <pt x="407" y="96" on="1"/>
        <pt x="493" y="96" on="0"/>
        <pt x="584" y="194" on="0"/>
        <pt x="584" y="313" on="1"/>
        <pt x="584" y="656" on="1"/>
        <pt x="515" y="656" on="1"/>
        <pt x="515" y="740" on="1"/>
        <pt x="755" y="740" on="1"/>
      </contour>
    </TTGlyph>
    <TTGlyph name="Ucircumflex" xMin="55" yMin="-10" xMax="755" yMax="961">
      <contour>
        <pt x="416" y="884" on="1"/>
        <pt x="350" y="808" on="1"/>
        <pt x="278" y="808" on="1"/>
        <pt x="400" y="961" on="1"/>
        <pt x="431" y="961" on="1"/>
        <pt x="554" y="808" on="1"/>
        <pt x="481" y="808" on="1"/>
      </contour>
      <contour>
        <pt x="755" y="656" on="1"/>
        <pt x="689" y="656" on="1"/>
        <pt x="689" y="322" on="1"/>
        <pt x="689" y="219" on="0"/>
        <pt x="614" y="69" on="0"/>
        <pt x="484" y="-10" on="0"/>
        <pt x="403" y="-10" on="1"/>
        <pt x="325" y="-10" on="0"/>
        <pt x="197" y="68" on="0"/>
        <pt x="123" y="215" on="0"/>
        <pt x="123" y="313" on="1"/>
        <pt x="123" y="656" on="1"/>
        <pt x="55" y="656" on="1"/>
        <pt x="55" y="740" on="1"/>
        <pt x="295" y="740" on="1"/>
        <pt x="295" y="656" on="1"/>
        <pt x="230" y="656" on="1"/>
        <pt x="230" y="313" on="1"/>
        <pt x="230" y="201" on="0"/>
        <pt x="325" y="96" on="0"/>
        <pt x="407" y="96" on="1"/>
        <pt x="493" y="96" on="0"/>
        <pt x="584" y="194" on="0"/>
        <pt x="584" y="313" on="1"/>
        <pt x="584" y="656" on="1"/>
        <pt x="515" y="656" on="1"/>
        <pt x="515" y="740" on="1"/>
        <pt x="755" y="740" on="1"/>
      </contour>
    </TTGlyph>
    <TTGlyph name="Udieresis" xMin="55" yMin="-10" xMax="755" yMax="961">
      <component glyphName="U" x="0" y="0" flags="0x0"/>
      <component glyphName="uni0308" x="678" y="234" flags="0x4"/>
    </TTGlyph>
    <TTGlyph name="Ugrave" xMin="55" yMin="-10" xMax="755" yMax="955">
      <contour>
        <pt x="440" y="809" on="1"/>
        <pt x="369" y="809" on="1"/>
        <pt x="229" y="947" on="1"/>
        <pt x="229" y="955" on="1"/>
        <pt x="350" y="955" on="1"/>
      </contour>
      <contour>
        <pt x="755" y="656" on="1"/>
        <pt x="689" y="656" on="1"/>
        <pt x="689" y="322" on="1"/>
        <pt x="689" y="219" on="0"/>
        <pt x="614" y="69" on="0"/>
        <pt x="484" y="-10" on="0"/>
        <pt x="403" y="-10" on="1"/>
        <pt x="325" y="-10" on="0"/>
        <pt x="197" y="68" on="0"/>
        <pt x="123" y="215" on="0"/>
        <pt x="123" y="313" on="1"/>
        <pt x="123" y="656" on="1"/>
        <pt x="55" y="656" on="1"/>
        <pt x="55" y="740" on="1"/>
        <pt x="295" y="740" on="1"/>
        <pt x="295" y="656" on="1"/>
        <pt x="230" y="656" on="1"/>
        <pt x="230" y="313" on="1"/>
        <pt x="230" y="201" on="0"/>
        <pt x="325" y="96" on="0"/>
        <pt x="407" y="96" on="1"/>
        <pt x="493" y="96" on="0"/>
        <pt x="584" y="194" on="0"/>
        <pt x="584" y="313" on="1"/>
        <pt x="584" y="656" on="1"/>
        <pt x="515" y="656" on="1"/>
        <pt x="515" y="740" on="1"/>
        <pt x="755" y="740" on="1"/>
      </contour>
    </TTGlyph>
    <TTGlyph name="Uogonek" xMin="55" yMin="-230" xMax="755" yMax="740">
      <contour>
        <pt x="755" y="656" on="1"/>
        <pt x="689" y="656" on="1"/>
        <pt x="689" y="322" on="1"/>
        <pt x="689" y="234" on="0"/>
        <pt x="633" y="98" on="0"/>
        <pt x="583" y="55" on="1"/>
        <pt x="532" y="4" on="0"/>
        <pt x="494" y="-54" on="0"/>
        <pt x="494" y="-93" on="1"/>
        <pt x="494" y="-124" on="0"/>
        <pt x="532" y="-158" on="0"/>
        <pt x="559" y="-158" on="1"/>
        <pt x="577" y="-158" on="0"/>
        <pt x="617" y="-150" on="0"/>
        <pt x="628" y="-145" on="1"/>
        <pt x="649" y="-205" on="1"/>
        <pt x="604" y="-230" on="0"/>
        <pt x="548" y="-230" on="1"/>
        <pt x="490" y="-230" on="0"/>
        <pt x="409" y="-168" on="0"/>
        <pt x="409" y="-108" on="1"/>
        <pt x="409" y="-51" on="0"/>
        <pt x="445" y="-7" on="1"/>
        <pt x="424" y="-10" on="0"/>
        <pt x="403" y="-10" on="1"/>
        <pt x="325" y="-10" on="0"/>
        <pt x="197" y="68" on="0"/>
        <pt x="123" y="215" on="0"/>
        <pt x="123" y="313" on="1"/>
        <pt x="123" y="656" on="1"/>
        <pt x="55" y="656" on="1"/>
        <pt x="55" y="740" on="1"/>
        <pt x="295" y="740" on="1"/>
        <pt x="295" y="656" on="1"/>
        <pt x="230" y="656" on="1"/>
        <pt x="230" y="313" on="1"/>
        <pt x="230" y="201" on="0"/>
        <pt x="325" y="96" on="0"/>
        <pt x="407" y="96" on="1"/>
        <pt x="493" y="96" on="0"/>
        <pt x="584" y="194" on="0"/>
        <pt x="584" y="313" on="1"/>
        <pt x="584" y="656" on="1"/>
        <pt x="515" y="656" on="1"/>
        <pt x="515" y="740" on="1"/>
        <pt x="755" y="740" on="1"/>
      </contour>
    </TTGlyph>
    <TTGlyph name="V" xMin="5" yMin="0" xMax="720" yMax="740">
      <contour>
        <pt x="720" y="740" on="1"/>
        <pt x="720" y="656" on="1"/>
        <pt x="647" y="656" on="1"/>
        <pt x="434" y="0" on="1"/>
        <pt x="285" y="0" on="1"/>
        <pt x="70" y="656" on="1"/>
        <pt x="5" y="656" on="1"/>
        <pt x="5" y="740" on="1"/>
        <pt x="245" y="740" on="1"/>
        <pt x="245" y="656" on="1"/>
        <pt x="181" y="656" on="1"/>
        <pt x="361" y="85" on="1"/>
        <pt x="545" y="656" on="1"/>
        <pt x="480" y="656" on="1"/>
        <pt x="480" y="740" on="1"/>
      </contour>
    </TTGlyph>
    <TTGlyph name="W" xMin="3" yMin="0" xMax="1103" yMax="740">
      <contour>
        <pt x="1103" y="740" on="1"/>
        <pt x="1103" y="656" on="1"/>
        <pt x="1042" y="656" on="1"/>
        <pt x="849" y="0" on="1"/>
        <pt x="713" y="0" on="1"/>
        <pt x="555" y="572" on="1"/>
        <pt x="398" y="0" on="1"/>
        <pt x="262" y="0" on="1"/>
        <pt x="67" y="656" on="1"/>
        <pt x="3" y="656" on="1"/>
        <pt x="3" y="740" on="1"/>
        <pt x="243" y="740" on="1"/>
        <pt x="243" y="656" on="1"/>
        <pt x="168" y="656" on="1"/>
        <pt x="331" y="87" on="1"/>
        <pt x="509" y="740" on="1"/>
        <pt x="609" y="740" on="1"/>
        <pt x="783" y="87" on="1"/>
        <pt x="949" y="656" on="1"/>
        <pt x="863" y="656" on="1"/>
        <pt x="863" y="740" on="1"/>
      </contour>
    </TTGlyph>
    <TTGlyph name="X" xMin="83" yMin="0" xMax="704" yMax="740">
      <contour>
        <pt x="649" y="656" on="1"/>
        <pt x="449" y="378" on="1"/>
        <pt x="658" y="84" on="1"/>
        <pt x="704" y="84" on="1"/>
        <pt x="704" y="0" on="1"/>
        <pt x="464" y="0" on="1"/>
        <pt x="464" y="84" on="1"/>
        <pt x="554" y="84" on="1"/>
        <pt x="396" y="304" on="1"/>
        <pt x="237" y="84" on="1"/>
        <pt x="323" y="84" on="1"/>
        <pt x="323" y="0" on="1"/>
        <pt x="83" y="0" on="1"/>
        <pt x="83" y="84" on="1"/>
        <pt x="131" y="84" on="1"/>
        <pt x="343" y="378" on="1"/>
        <pt x="143" y="656" on="1"/>
        <pt x="83" y="656" on="1"/>
        <pt x="83" y="740" on="1"/>
        <pt x="323" y="740" on="1"/>
        <pt x="323" y="656" on="1"/>
        <pt x="252" y="656" on="1"/>
        <pt x="396" y="453" on="1"/>
        <pt x="542" y="656" on="1"/>
        <pt x="464" y="656" on="1"/>
        <pt x="464" y="740" on="1"/>
        <pt x="704" y="740" on="1"/>
        <pt x="704" y="656" on="1"/>
      </contour>
    </TTGlyph>
    <TTGlyph name="Y" xMin="25" yMin="0" xMax="646" yMax="740">
      <contour>
        <pt x="583" y="656" on="1"/>
        <pt x="375" y="341" on="1"/>
        <pt x="375" y="84" on="1"/>
        <pt x="451" y="84" on="1"/>
        <pt x="451" y="0" on="1"/>
        <pt x="211" y="0" on="1"/>
        <pt x="211" y="84" on="1"/>
        <pt x="279" y="84" on="1"/>
        <pt x="279" y="342" on="1"/>
        <pt x="82" y="656" on="1"/>
        <pt x="25" y="656" on="1"/>
        <pt x="25" y="740" on="1"/>
        <pt x="265" y="740" on="1"/>
        <pt x="265" y="656" on="1"/>
        <pt x="194" y="656" on="1"/>
        <pt x="334" y="418" on="1"/>
        <pt x="483" y="656" on="1"/>
        <pt x="406" y="656" on="1"/>
        <pt x="406" y="740" on="1"/>
        <pt x="646" y="740" on="1"/>
        <pt x="646" y="656" on="1"/>
      </contour>
    </TTGlyph>
    <TTGlyph name="Yacute" xMin="25" yMin="0" xMax="646" yMax="955">
      <contour>
        <pt x="497" y="947" on="1"/>
        <pt x="351" y="809" on="1"/>
        <pt x="276" y="809" on="1"/>
        <pt x="380" y="955" on="1"/>
        <pt x="497" y="955" on="1"/>
      </contour>
      <contour>
        <pt x="583" y="656" on="1"/>
        <pt x="375" y="341" on="1"/>
        <pt x="375" y="84" on="1"/>
        <pt x="451" y="84" on="1"/>
        <pt x="451" y="0" on="1"/>
        <pt x="211" y="0" on="1"/>
        <pt x="211" y="84" on="1"/>
        <pt x="279" y="84" on="1"/>
        <pt x="279" y="342" on="1"/>
        <pt x="82" y="656" on="1"/>
        <pt x="25" y="656" on="1"/>
        <pt x="25" y="740" on="1"/>
        <pt x="265" y="740" on="1"/>
        <pt x="265" y="656" on="1"/>
        <pt x="194" y="656" on="1"/>
        <pt x="334" y="418" on="1"/>
        <pt x="483" y="656" on="1"/>
        <pt x="406" y="656" on="1"/>
        <pt x="406" y="740" on="1"/>
        <pt x="646" y="740" on="1"/>
        <pt x="646" y="656" on="1"/>
      </contour>
    </TTGlyph>
    <TTGlyph name="Z" xMin="25" yMin="0" xMax="568" yMax="740">
      <contour>
        <pt x="568" y="740" on="1"/>
        <pt x="568" y="631" on="1"/>
        <pt x="122" y="84" on="1"/>
        <pt x="469" y="84" on="1"/>
        <pt x="469" y="207" on="1"/>
        <pt x="565" y="207" on="1"/>
        <pt x="565" y="0" on="1"/>
        <pt x="25" y="0" on="1"/>
        <pt x="25" y="111" on="1"/>
        <pt x="464" y="656" on="1"/>
        <pt x="129" y="656" on="1"/>
        <pt x="129" y="531" on="1"/>
        <pt x="33" y="531" on="1"/>
        <pt x="33" y="740" on="1"/>
      </contour>
    </TTGlyph>
    <TTGlyph name="a" xMin="25" yMin="-14" xMax="484" yMax="517">
      <contour>
        <pt x="484" y="84" on="1"/>
        <pt x="484" y="0" on="1"/>
        <pt x="337" y="0" on="1"/>
        <pt x="337" y="47" on="1"/>
        <pt x="271" y="-14" on="0"/>
        <pt x="194" y="-14" on="1"/>
        <pt x="146" y="-14" on="0"/>
        <pt x="68" y="26" on="0"/>
        <pt x="25" y="94" on="0"/>
        <pt x="25" y="134" on="1"/>
        <pt x="25" y="220" on="0"/>
        <pt x="153" y="296" on="0"/>
        <pt x="235" y="296" on="1"/>
        <pt x="295" y="296" on="0"/>
        <pt x="338" y="286" on="1"/>
        <pt x="338" y="332" on="1"/>
        <pt x="338" y="384" on="0"/>
        <pt x="280" y="437" on="0"/>
        <pt x="230" y="437" on="1"/>
        <pt x="187" y="437" on="0"/>
        <pt x="111" y="416" on="0"/>
        <pt x="87" y="400" on="1"/>
        <pt x="57" y="463" on="1"/>
        <pt x="94" y="487" on="0"/>
        <pt x="192" y="517" on="0"/>
        <pt x="239" y="517" on="1"/>
        <pt x="330" y="517" on="0"/>
        <pt x="428" y="429" on="0"/>
        <pt x="428" y="337" on="1"/>
        <pt x="427" y="84" on="1"/>
      </contour>
      <contour>
        <pt x="249" y="62" on="0"/>
        <pt x="317" y="94" on="0"/>
        <pt x="337" y="117" on="1"/>
        <pt x="338" y="233" on="1"/>
        <pt x="232" y="233" on="1"/>
        <pt x="178" y="233" on="0"/>
        <pt x="113" y="186" on="0"/>
        <pt x="113" y="144" on="1"/>
        <pt x="113" y="104" on="0"/>
        <pt x="168" y="62" on="0"/>
        <pt x="214" y="62" on="1"/>
      </contour>
    </TTGlyph>
    <TTGlyph name="aacute" xMin="25" yMin="-14" xMax="484" yMax="721">
      <contour>
        <pt x="407" y="713" on="1"/>
        <pt x="261" y="575" on="1"/>
        <pt x="186" y="575" on="1"/>
        <pt x="290" y="721" on="1"/>
        <pt x="407" y="721" on="1"/>
      </contour>
      <contour>
        <pt x="484" y="84" on="1"/>
        <pt x="484" y="0" on="1"/>
        <pt x="337" y="0" on="1"/>
        <pt x="337" y="47" on="1"/>
        <pt x="271" y="-14" on="0"/>
        <pt x="194" y="-14" on="1"/>
        <pt x="146" y="-14" on="0"/>
        <pt x="68" y="26" on="0"/>
        <pt x="25" y="94" on="0"/>
        <pt x="25" y="134" on="1"/>
        <pt x="25" y="220" on="0"/>
        <pt x="153" y="296" on="0"/>
        <pt x="235" y="296" on="1"/>
        <pt x="295" y="296" on="0"/>
        <pt x="338" y="286" on="1"/>
        <pt x="338" y="332" on="1"/>
        <pt x="338" y="384" on="0"/>
        <pt x="280" y="437" on="0"/>
        <pt x="230" y="437" on="1"/>
        <pt x="187" y="437" on="0"/>
        <pt x="111" y="416" on="0"/>
        <pt x="87" y="400" on="1"/>
        <pt x="57" y="463" on="1"/>
        <pt x="94" y="487" on="0"/>
        <pt x="192" y="517" on="0"/>
        <pt x="239" y="517" on="1"/>
        <pt x="330" y="517" on="0"/>
        <pt x="428" y="429" on="0"/>
        <pt x="428" y="337" on="1"/>
        <pt x="427" y="84" on="1"/>
      </contour>
      <contour>
        <pt x="249" y="62" on="0"/>
        <pt x="317" y="94" on="0"/>
        <pt x="337" y="117" on="1"/>
        <pt x="338" y="233" on="1"/>
        <pt x="232" y="233" on="1"/>
        <pt x="178" y="233" on="0"/>
        <pt x="113" y="186" on="0"/>
        <pt x="113" y="144" on="1"/>
        <pt x="113" y="104" on="0"/>
        <pt x="168" y="62" on="0"/>
        <pt x="214" y="62" on="1"/>
      </contour>
    </TTGlyph>
    <TTGlyph name="acircumflex" xMin="25" yMin="-14" xMax="484" yMax="727">
      <contour>
        <pt x="266" y="650" on="1"/>
        <pt x="200" y="574" on="1"/>
        <pt x="128" y="574" on="1"/>
        <pt x="250" y="727" on="1"/>
        <pt x="281" y="727" on="1"/>
        <pt x="404" y="574" on="1"/>
        <pt x="331" y="574" on="1"/>
      </contour>
      <contour>
        <pt x="484" y="84" on="1"/>
        <pt x="484" y="0" on="1"/>
        <pt x="337" y="0" on="1"/>
        <pt x="337" y="47" on="1"/>
        <pt x="271" y="-14" on="0"/>
        <pt x="194" y="-14" on="1"/>
        <pt x="146" y="-14" on="0"/>
        <pt x="68" y="26" on="0"/>
        <pt x="25" y="94" on="0"/>
        <pt x="25" y="134" on="1"/>
        <pt x="25" y="220" on="0"/>
        <pt x="153" y="296" on="0"/>
        <pt x="235" y="296" on="1"/>
        <pt x="295" y="296" on="0"/>
        <pt x="338" y="286" on="1"/>
        <pt x="338" y="332" on="1"/>
        <pt x="338" y="384" on="0"/>
        <pt x="280" y="437" on="0"/>
        <pt x="230" y="437" on="1"/>
        <pt x="187" y="437" on="0"/>
        <pt x="111" y="416" on="0"/>
        <pt x="87" y="400" on="1"/>
        <pt x="57" y="463" on="1"/>
        <pt x="94" y="487" on="0"/>
        <pt x="192" y="517" on="0"/>
        <pt x="239" y="517" on="1"/>
        <pt x="330" y="517" on="0"/>
        <pt x="428" y="429" on="0"/>
        <pt x="428" y="337" on="1"/>
        <pt x="427" y="84" on="1"/>
      </contour>
      <contour>
        <pt x="249" y="62" on="0"/>
        <pt x="317" y="94" on="0"/>
        <pt x="337" y="117" on="1"/>
        <pt x="338" y="233" on="1"/>
        <pt x="232" y="233" on="1"/>
        <pt x="178" y="233" on="0"/>
        <pt x="113" y="186" on="0"/>
        <pt x="113" y="144" on="1"/>
        <pt x="113" y="104" on="0"/>
        <pt x="168" y="62" on="0"/>
        <pt x="214" y="62" on="1"/>
      </contour>
    </TTGlyph>
    <TTGlyph name="acute" xMin="41" yMin="575" xMax="262" yMax="721">
      <contour>
        <pt x="41" y="575" on="1"/>
        <pt x="145" y="721" on="1"/>
        <pt x="262" y="721" on="1"/>
        <pt x="262" y="713" on="1"/>
        <pt x="116" y="575" on="1"/>
      </contour>
    </TTGlyph>
    <TTGlyph name="acutecomb" xMin="-262" yMin="575" xMax="-41" yMax="721">
      <component glyphName="acute" x="-303" y="0" flags="0x0"/>
    </TTGlyph>
    <TTGlyph name="adieresis" xMin="25" yMin="-14" xMax="484" yMax="727">
      <component glyphName="a" x="0" y="0" flags="0x0"/>
      <component glyphName="uni0308" x="528" y="0" flags="0x0"/>
    </TTGlyph>
    <TTGlyph name="ae" xMin="25" yMin="-14" xMax="791" yMax="519">
      <contour>
        <pt x="664" y="70" on="0"/>
        <pt x="742" y="115" on="1"/>
        <pt x="779" y="53" on="1"/>
        <pt x="681" y="-14" on="0"/>
        <pt x="574" y="-14" on="1"/>
        <pt x="516" y="-14" on="0"/>
        <pt x="422" y="29" on="0"/>
        <pt x="391" y="70" on="1"/>
        <pt x="361" y="31" on="0"/>
        <pt x="259" y="-14" on="0"/>
        <pt x="204" y="-14" on="1"/>
        <pt x="151" y="-14" on="0"/>
        <pt x="69" y="26" on="0"/>
        <pt x="25" y="93" on="0"/>
        <pt x="25" y="134" on="1"/>
        <pt x="25" y="220" on="0"/>
        <pt x="153" y="296" on="0"/>
        <pt x="235" y="296" on="1"/>
        <pt x="295" y="296" on="0"/>
        <pt x="338" y="286" on="1"/>
        <pt x="338" y="288" on="1"/>
        <pt x="339" y="332" on="1"/>
        <pt x="340" y="384" on="0"/>
        <pt x="281" y="437" on="0"/>
        <pt x="230" y="437" on="1"/>
        <pt x="187" y="437" on="0"/>
        <pt x="111" y="416" on="0"/>
        <pt x="87" y="400" on="1"/>
        <pt x="57" y="463" on="1"/>
        <pt x="94" y="487" on="0"/>
        <pt x="192" y="517" on="0"/>
        <pt x="239" y="517" on="1"/>
        <pt x="356" y="517" on="0"/>
        <pt x="401" y="446" on="1"/>
        <pt x="466" y="519" on="0"/>
        <pt x="575" y="519" on="1"/>
        <pt x="761" y="519" on="0"/>
        <pt x="787" y="316" on="1"/>
        <pt x="791" y="283" on="0"/>
        <pt x="791" y="241" on="1"/>
        <pt x="427" y="241" on="1"/>
        <pt x="427" y="237" on="1"/>
        <pt x="428" y="200" on="0"/>
        <pt x="439" y="168" on="1"/>
        <pt x="457" y="120" on="0"/>
        <pt x="535" y="70" on="0"/>
        <pt x="587" y="70" on="1"/>
      </contour>
      <contour>
        <pt x="453" y="443" on="0"/>
        <pt x="432" y="312" on="1"/>
        <pt x="694" y="312" on="1"/>
        <pt x="685" y="443" on="0"/>
        <pt x="569" y="443" on="1"/>
      </contour>
      <contour>
        <pt x="260" y="62" on="0"/>
        <pt x="333" y="97" on="0"/>
        <pt x="359" y="127" on="1"/>
        <pt x="339" y="176" on="0"/>
        <pt x="338" y="233" on="1"/>
        <pt x="232" y="233" on="1"/>
        <pt x="178" y="233" on="0"/>
        <pt x="113" y="186" on="0"/>
        <pt x="113" y="144" on="1"/>
        <pt x="113" y="104" on="0"/>
        <pt x="168" y="62" on="0"/>
        <pt x="214" y="62" on="1"/>
      </contour>
    </TTGlyph>
    <TTGlyph name="agrave" xMin="25" yMin="-14" xMax="484" yMax="721">
      <contour>
        <pt x="320" y="575" on="1"/>
        <pt x="249" y="575" on="1"/>
        <pt x="109" y="713" on="1"/>
        <pt x="109" y="721" on="1"/>
        <pt x="230" y="721" on="1"/>
      </contour>
      <contour>
        <pt x="484" y="84" on="1"/>
        <pt x="484" y="0" on="1"/>
        <pt x="337" y="0" on="1"/>
        <pt x="337" y="47" on="1"/>
        <pt x="271" y="-14" on="0"/>
        <pt x="194" y="-14" on="1"/>
        <pt x="146" y="-14" on="0"/>
        <pt x="68" y="26" on="0"/>
        <pt x="25" y="94" on="0"/>
        <pt x="25" y="134" on="1"/>
        <pt x="25" y="220" on="0"/>
        <pt x="153" y="296" on="0"/>
        <pt x="235" y="296" on="1"/>
        <pt x="295" y="296" on="0"/>
        <pt x="338" y="286" on="1"/>
        <pt x="338" y="332" on="1"/>
        <pt x="338" y="384" on="0"/>
        <pt x="280" y="437" on="0"/>
        <pt x="230" y="437" on="1"/>
        <pt x="187" y="437" on="0"/>
        <pt x="111" y="416" on="0"/>
        <pt x="87" y="400" on="1"/>
        <pt x="57" y="463" on="1"/>
        <pt x="94" y="487" on="0"/>
        <pt x="192" y="517" on="0"/>
        <pt x="239" y="517" on="1"/>
        <pt x="330" y="517" on="0"/>
        <pt x="428" y="429" on="0"/>
        <pt x="428" y="337" on="1"/>
        <pt x="427" y="84" on="1"/>
      </contour>
      <contour>
        <pt x="249" y="62" on="0"/>
        <pt x="317" y="94" on="0"/>
        <pt x="337" y="117" on="1"/>
        <pt x="338" y="233" on="1"/>
        <pt x="232" y="233" on="1"/>
        <pt x="178" y="233" on="0"/>
        <pt x="113" y="186" on="0"/>
        <pt x="113" y="144" on="1"/>
        <pt x="113" y="104" on="0"/>
        <pt x="168" y="62" on="0"/>
        <pt x="214" y="62" on="1"/>
      </contour>
    </TTGlyph>
    <TTGlyph name="ampersand" xMin="70" yMin="-7" xMax="697" yMax="755">
      <contour>
        <pt x="629" y="-3" on="1"/>
        <pt x="514" y="108" on="1"/>
        <pt x="420" y="-7" on="0"/>
        <pt x="296" y="-7" on="1"/>
        <pt x="234" y="-7" on="0"/>
        <pt x="130" y="50" on="0"/>
        <pt x="70" y="148" on="0"/>
        <pt x="70" y="208" on="1"/>
        <pt x="70" y="266" on="0"/>
        <pt x="136" y="368" on="0"/>
        <pt x="187" y="395" on="1"/>
        <pt x="207" y="405" on="1"/>
        <pt x="175" y="436" on="1"/>
        <pt x="147" y="461" on="0"/>
        <pt x="109" y="535" on="0"/>
        <pt x="109" y="570" on="1"/>
        <pt x="109" y="621" on="0"/>
        <pt x="161" y="706" on="0"/>
        <pt x="249" y="755" on="0"/>
        <pt x="302" y="755" on="1"/>
        <pt x="357" y="755" on="0"/>
        <pt x="448" y="704" on="0"/>
        <pt x="500" y="619" on="0"/>
        <pt x="500" y="570" on="1"/>
        <pt x="500" y="516" on="0"/>
        <pt x="459" y="449" on="0"/>
        <pt x="419" y="419" on="1"/>
        <pt x="392" y="399" on="0"/>
        <pt x="349" y="379" on="1"/>
        <pt x="499" y="239" on="1"/>
        <pt x="528" y="306" on="0"/>
        <pt x="539" y="373" on="1"/>
        <pt x="631" y="373" on="1"/>
        <pt x="612" y="272" on="0"/>
        <pt x="562" y="181" on="1"/>
        <pt x="697" y="56" on="1"/>
      </contour>
      <contour>
        <pt x="284" y="439" on="1"/>
        <pt x="351" y="469" on="0"/>
        <pt x="383" y="501" on="1"/>
        <pt x="397" y="515" on="0"/>
        <pt x="413" y="551" on="0"/>
        <pt x="413" y="570" on="1"/>
        <pt x="413" y="597" on="0"/>
        <pt x="383" y="646" on="0"/>
        <pt x="331" y="675" on="0"/>
        <pt x="302" y="675" on="1"/>
        <pt x="254" y="675" on="0"/>
        <pt x="194" y="615" on="0"/>
        <pt x="194" y="571" on="1"/>
        <pt x="194" y="523" on="0"/>
        <pt x="240" y="480" on="1"/>
      </contour>
      <contour>
        <pt x="392" y="78" on="0"/>
        <pt x="456" y="164" on="1"/>
        <pt x="271" y="343" on="1"/>
        <pt x="231" y="325" on="1"/>
        <pt x="198" y="312" on="0"/>
        <pt x="157" y="247" on="0"/>
        <pt x="157" y="210" on="1"/>
        <pt x="157" y="173" on="0"/>
        <pt x="195" y="113" on="0"/>
        <pt x="261" y="78" on="0"/>
        <pt x="300" y="78" on="1"/>
      </contour>
    </TTGlyph>
    <TTGlyph name="aogonek" xMin="25" yMin="-237" xMax="484" yMax="517">
      <contour>
        <pt x="417" y="0" on="0"/>
        <pt x="363" y="-36" on="0"/>
        <pt x="339" y="-87" on="0"/>
        <pt x="339" y="-110" on="1"/>
        <pt x="339" y="-134" on="0"/>
        <pt x="369" y="-159" on="0"/>
        <pt x="392" y="-159" on="1"/>
        <pt x="420" y="-159" on="0"/>
        <pt x="446" y="-148" on="1"/>
        <pt x="471" y="-216" on="1"/>
        <pt x="460" y="-223" on="0"/>
        <pt x="406" y="-237" on="0"/>
        <pt x="384" y="-237" on="1"/>
        <pt x="338" y="-237" on="0"/>
        <pt x="276" y="-206" on="0"/>
        <pt x="247" y="-158" on="0"/>
        <pt x="247" y="-132" on="1"/>
        <pt x="247" y="-83" on="0"/>
        <pt x="300" y="-11" on="0"/>
        <pt x="340" y="0" on="1"/>
        <pt x="337" y="0" on="1"/>
        <pt x="337" y="47" on="1"/>
        <pt x="271" y="-14" on="0"/>
        <pt x="194" y="-14" on="1"/>
        <pt x="146" y="-14" on="0"/>
        <pt x="68" y="26" on="0"/>
        <pt x="25" y="94" on="0"/>
        <pt x="25" y="134" on="1"/>
        <pt x="25" y="220" on="0"/>
        <pt x="153" y="296" on="0"/>
        <pt x="235" y="296" on="1"/>
        <pt x="295" y="296" on="0"/>
        <pt x="338" y="286" on="1"/>
        <pt x="338" y="332" on="1"/>
        <pt x="338" y="384" on="0"/>
        <pt x="280" y="437" on="0"/>
        <pt x="230" y="437" on="1"/>
        <pt x="187" y="437" on="0"/>
        <pt x="111" y="416" on="0"/>
        <pt x="87" y="400" on="1"/>
        <pt x="57" y="463" on="1"/>
        <pt x="94" y="487" on="0"/>
        <pt x="192" y="517" on="0"/>
        <pt x="239" y="517" on="1"/>
        <pt x="330" y="517" on="0"/>
        <pt x="428" y="429" on="0"/>
        <pt x="428" y="337" on="1"/>
        <pt x="427" y="84" on="1"/>
        <pt x="484" y="84" on="1"/>
        <pt x="484" y="0" on="1"/>
        <pt x="459" y="0" on="1"/>
      </contour>
      <contour>
        <pt x="249" y="62" on="0"/>
        <pt x="317" y="94" on="0"/>
        <pt x="337" y="117" on="1"/>
        <pt x="338" y="233" on="1"/>
        <pt x="232" y="233" on="1"/>
        <pt x="178" y="233" on="0"/>
        <pt x="113" y="186" on="0"/>
        <pt x="113" y="144" on="1"/>
        <pt x="113" y="104" on="0"/>
        <pt x="168" y="62" on="0"/>
        <pt x="214" y="62" on="1"/>
      </contour>
    </TTGlyph>
    <TTGlyph name="approxequal" xMin="69" yMin="118" xMax="531" yMax="427">
      <component glyphName="asciitilde" x="0" y="-62" flags="0x4"/>
      <component glyphName="asciitilde" x="0" y="101" flags="0x4"/>
    </TTGlyph>
    <TTGlyph name="aring" xMin="25" yMin="-14" xMax="484" yMax="827">
      <contour>
        <pt x="223" y="577" on="0"/>
        <pt x="165" y="611" on="0"/>
        <pt x="131" y="669" on="0"/>
        <pt x="131" y="702" on="1"/>
        <pt x="131" y="735" on="0"/>
        <pt x="165" y="793" on="0"/>
        <pt x="223" y="827" on="0"/>
        <pt x="256" y="827" on="1"/>
        <pt x="289" y="827" on="0"/>
        <pt x="347" y="793" on="0"/>
        <pt x="381" y="735" on="0"/>
        <pt x="381" y="702" on="1"/>
        <pt x="381" y="669" on="0"/>
        <pt x="347" y="611" on="0"/>
        <pt x="289" y="577" on="0"/>
        <pt x="256" y="577" on="1"/>
      </contour>
      <contour>
        <pt x="236" y="753" on="0"/>
        <pt x="205" y="722" on="0"/>
        <pt x="205" y="702" on="1"/>
        <pt x="205" y="682" on="0"/>
        <pt x="236" y="651" on="0"/>
        <pt x="256" y="651" on="1"/>
        <pt x="276" y="651" on="0"/>
        <pt x="307" y="682" on="0"/>
        <pt x="307" y="702" on="1"/>
        <pt x="307" y="722" on="0"/>
        <pt x="276" y="753" on="0"/>
        <pt x="256" y="753" on="1"/>
      </contour>
      <contour>
        <pt x="484" y="84" on="1"/>
        <pt x="484" y="0" on="1"/>
        <pt x="337" y="0" on="1"/>
        <pt x="337" y="47" on="1"/>
        <pt x="271" y="-14" on="0"/>
        <pt x="194" y="-14" on="1"/>
        <pt x="146" y="-14" on="0"/>
        <pt x="68" y="26" on="0"/>
        <pt x="25" y="94" on="0"/>
        <pt x="25" y="134" on="1"/>
        <pt x="25" y="220" on="0"/>
        <pt x="153" y="296" on="0"/>
        <pt x="235" y="296" on="1"/>
        <pt x="295" y="296" on="0"/>
        <pt x="338" y="286" on="1"/>
        <pt x="338" y="332" on="1"/>
        <pt x="338" y="384" on="0"/>
        <pt x="280" y="437" on="0"/>
        <pt x="230" y="437" on="1"/>
        <pt x="187" y="437" on="0"/>
        <pt x="111" y="416" on="0"/>
        <pt x="87" y="400" on="1"/>
        <pt x="57" y="463" on="1"/>
        <pt x="94" y="487" on="0"/>
        <pt x="192" y="517" on="0"/>
        <pt x="239" y="517" on="1"/>
        <pt x="330" y="517" on="0"/>
        <pt x="428" y="429" on="0"/>
        <pt x="428" y="337" on="1"/>
        <pt x="427" y="84" on="1"/>
      </contour>
      <contour>
        <pt x="249" y="62" on="0"/>
        <pt x="317" y="94" on="0"/>
        <pt x="337" y="117" on="1"/>
        <pt x="338" y="233" on="1"/>
        <pt x="232" y="233" on="1"/>
        <pt x="178" y="233" on="0"/>
        <pt x="113" y="186" on="0"/>
        <pt x="113" y="144" on="1"/>
        <pt x="113" y="104" on="0"/>
        <pt x="168" y="62" on="0"/>
        <pt x="214" y="62" on="1"/>
      </contour>
    </TTGlyph>
    <TTGlyph name="asciicircum" xMin="76" yMin="353" xMax="525" yMax="739">
      <contour>
        <pt x="525" y="353" on="1"/>
        <pt x="455" y="353" on="1"/>
        <pt x="301" y="659" on="1"/>
        <pt x="145" y="353" on="1"/>
        <pt x="76" y="353" on="1"/>
        <pt x="273" y="739" on="1"/>
        <pt x="328" y="739" on="1"/>
      </contour>
    </TTGlyph>
    <TTGlyph name="asciitilde" xMin="69" yMin="180" xMax="531" yMax="326">
      <contour>
        <pt x="378" y="184" on="0"/>
        <pt x="321" y="205" on="0"/>
        <pt x="277" y="225" on="1"/>
        <pt x="242" y="241" on="0"/>
        <pt x="208" y="254" on="0"/>
        <pt x="193" y="254" on="1"/>
        <pt x="149" y="254" on="0"/>
        <pt x="105" y="180" on="1"/>
        <pt x="69" y="236" on="1"/>
        <pt x="92" y="278" on="0"/>
        <pt x="152" y="322" on="0"/>
        <pt x="194" y="322" on="1"/>
        <pt x="222" y="322" on="0"/>
        <pt x="279" y="301" on="0"/>
        <pt x="323" y="281" on="1"/>
        <pt x="358" y="265" on="0"/>
        <pt x="392" y="252" on="0"/>
        <pt x="407" y="252" on="1"/>
        <pt x="451" y="252" on="0"/>
        <pt x="495" y="326" on="1"/>
        <pt x="531" y="270" on="1"/>
        <pt x="508" y="228" on="0"/>
        <pt x="448" y="184" on="0"/>
        <pt x="406" y="184" on="1"/>
      </contour>
    </TTGlyph>
    <TTGlyph name="asterisk" xMin="29" yMin="435" xMax="375" yMax="755">
      <contour>
        <pt x="375" y="614" on="1"/>
        <pt x="253" y="575" on="1"/>
        <pt x="330" y="470" on="1"/>
        <pt x="277" y="435" on="1"/>
        <pt x="204" y="536" on="1"/>
        <pt x="132" y="436" on="1"/>
        <pt x="79" y="470" on="1"/>
        <pt x="155" y="574" on="1"/>
        <pt x="29" y="614" on="1"/>
        <pt x="48" y="675" on="1"/>
        <pt x="171" y="635" on="1"/>
        <pt x="171" y="755" on="1"/>
        <pt x="236" y="755" on="1"/>
        <pt x="236" y="633" on="1"/>
        <pt x="357" y="672" on="1"/>
      </contour>
    </TTGlyph>
    <TTGlyph name="at" xMin="71" yMin="-247" xMax="1048" yMax="728">
      <contour>
        <pt x="693" y="728" on="0"/>
        <pt x="917" y="602" on="0"/>
        <pt x="1048" y="390" on="0"/>
        <pt x="1048" y="267" on="1"/>
        <pt x="1048" y="199" on="0"/>
        <pt x="996" y="70" on="0"/>
        <pt x="897" y="-11" on="0"/>
        <pt x="832" y="-11" on="1"/>
        <pt x="789" y="-11" on="0"/>
        <pt x="727" y="27" on="0"/>
        <pt x="710" y="59" on="1"/>
        <pt x="645" y="5" on="0"/>
        <pt x="557" y="5" on="1"/>
        <pt x="490" y="5" on="0"/>
        <pt x="383" y="66" on="0"/>
        <pt x="323" y="171" on="0"/>
        <pt x="323" y="234" on="1"/>
        <pt x="323" y="296" on="0"/>
        <pt x="385" y="402" on="0"/>
        <pt x="493" y="464" on="0"/>
        <pt x="557" y="464" on="1"/>
        <pt x="627" y="464" on="0"/>
        <pt x="686" y="426" on="1"/>
        <pt x="686" y="467" on="1"/>
        <pt x="776" y="467" on="1"/>
        <pt x="776" y="143" on="1"/>
        <pt x="779" y="109" on="0"/>
        <pt x="804" y="69" on="0"/>
        <pt x="832" y="69" on="1"/>
        <pt x="899" y="69" on="0"/>
        <pt x="958" y="192" on="0"/>
        <pt x="958" y="267" on="1"/>
        <pt x="958" y="365" on="0"/>
        <pt x="851" y="536" on="0"/>
        <pt x="668" y="638" on="0"/>
        <pt x="559" y="638" on="1"/>
        <pt x="450" y="638" on="0"/>
        <pt x="268" y="532" on="0"/>
        <pt x="161" y="349" on="0"/>
        <pt x="161" y="241" on="1"/>
        <pt x="161" y="132" on="0"/>
        <pt x="268" y="-50" on="0"/>
        <pt x="450" y="-157" on="0"/>
        <pt x="559" y="-157" on="1"/>
        <pt x="670" y="-157" on="0"/>
        <pt x="765" y="-100" on="1"/>
        <pt x="811" y="-177" on="1"/>
        <pt x="755" y="-211" on="0"/>
        <pt x="627" y="-247" on="0"/>
        <pt x="559" y="-247" on="1"/>
        <pt x="426" y="-247" on="0"/>
        <pt x="202" y="-116" on="0"/>
        <pt x="71" y="108" on="0"/>
        <pt x="71" y="241" on="1"/>
        <pt x="71" y="373" on="0"/>
        <pt x="202" y="597" on="0"/>
        <pt x="426" y="728" on="0"/>
        <pt x="559" y="728" on="1"/>
      </contour>
      <contour>
        <pt x="601" y="95" on="0"/>
        <pt x="669" y="137" on="0"/>
        <pt x="686" y="171" on="1"/>
        <pt x="686" y="295" on="1"/>
        <pt x="669" y="330" on="0"/>
        <pt x="600" y="374" on="0"/>
        <pt x="557" y="374" on="1"/>
        <pt x="516" y="374" on="0"/>
        <pt x="451" y="336" on="0"/>
        <pt x="413" y="272" on="0"/>
        <pt x="413" y="234" on="1"/>
        <pt x="413" y="175" on="0"/>
        <pt x="493" y="95" on="0"/>
        <pt x="557" y="95" on="1"/>
      </contour>
    </TTGlyph>
    <TTGlyph name="atilde" xMin="25" yMin="-14" xMax="484" yMax="691">
      <contour>
        <pt x="168" y="623" on="0"/>
        <pt x="141" y="609" on="0"/>
        <pt x="134" y="585" on="1"/>
        <pt x="81" y="611" on="1"/>
        <pt x="93" y="653" on="0"/>
        <pt x="153" y="691" on="0"/>
        <pt x="191" y="691" on="1"/>
        <pt x="214" y="691" on="0"/>
        <pt x="248" y="677" on="0"/>
        <pt x="270" y="663" on="1"/>
        <pt x="288" y="651" on="0"/>
        <pt x="315" y="640" on="0"/>
        <pt x="331" y="640" on="1"/>
        <pt x="346" y="640" on="0"/>
        <pt x="371" y="660" on="0"/>
        <pt x="375" y="679" on="1"/>
        <pt x="433" y="662" on="1"/>
        <pt x="423" y="621" on="0"/>
        <pt x="367" y="575" on="0"/>
        <pt x="327" y="575" on="1"/>
        <pt x="300" y="575" on="0"/>
        <pt x="261" y="590" on="0"/>
        <pt x="238" y="604" on="1"/>
        <pt x="221" y="614" on="0"/>
        <pt x="200" y="623" on="0"/>
        <pt x="187" y="623" on="1"/>
      </contour>
      <contour>
        <pt x="484" y="84" on="1"/>
        <pt x="484" y="0" on="1"/>
        <pt x="337" y="0" on="1"/>
        <pt x="337" y="47" on="1"/>
        <pt x="271" y="-14" on="0"/>
        <pt x="194" y="-14" on="1"/>
        <pt x="146" y="-14" on="0"/>
        <pt x="68" y="26" on="0"/>
        <pt x="25" y="94" on="0"/>
        <pt x="25" y="134" on="1"/>
        <pt x="25" y="220" on="0"/>
        <pt x="153" y="296" on="0"/>
        <pt x="235" y="296" on="1"/>
        <pt x="295" y="296" on="0"/>
        <pt x="338" y="286" on="1"/>
        <pt x="338" y="332" on="1"/>
        <pt x="338" y="384" on="0"/>
        <pt x="280" y="437" on="0"/>
        <pt x="230" y="437" on="1"/>
        <pt x="187" y="437" on="0"/>
        <pt x="111" y="416" on="0"/>
        <pt x="87" y="400" on="1"/>
        <pt x="57" y="463" on="1"/>
        <pt x="94" y="487" on="0"/>
        <pt x="192" y="517" on="0"/>
        <pt x="239" y="517" on="1"/>
        <pt x="330" y="517" on="0"/>
        <pt x="428" y="429" on="0"/>
        <pt x="428" y="337" on="1"/>
        <pt x="427" y="84" on="1"/>
      </contour>
      <contour>
        <pt x="249" y="62" on="0"/>
        <pt x="317" y="94" on="0"/>
        <pt x="337" y="117" on="1"/>
        <pt x="338" y="233" on="1"/>
        <pt x="232" y="233" on="1"/>
        <pt x="178" y="233" on="0"/>
        <pt x="113" y="186" on="0"/>
        <pt x="113" y="144" on="1"/>
        <pt x="113" y="104" on="0"/>
        <pt x="168" y="62" on="0"/>
        <pt x="214" y="62" on="1"/>
      </contour>
    </TTGlyph>
    <TTGlyph name="b" xMin="28" yMin="-8" xMax="567" yMax="760">
      <contour>
        <pt x="406" y="518" on="0"/>
        <pt x="509" y="453" on="0"/>
        <pt x="567" y="337" on="0"/>
        <pt x="567" y="262" on="1"/>
        <pt x="567" y="182" on="0"/>
        <pt x="503" y="60" on="0"/>
        <pt x="391" y="-8" on="0"/>
        <pt x="319" y="-8" on="1"/>
        <pt x="282" y="-8" on="0"/>
        <pt x="216" y="14" on="0"/>
        <pt x="192" y="32" on="1"/>
        <pt x="192" y="0" on="1"/>
        <pt x="101" y="0" on="1"/>
        <pt x="101" y="676" on="1"/>
        <pt x="28" y="676" on="1"/>
        <pt x="28" y="760" on="1"/>
        <pt x="192" y="760" on="1"/>
        <pt x="192" y="464" on="1"/>
        <pt x="262" y="518" on="0"/>
        <pt x="341" y="518" on="1"/>
      </contour>
      <contour>
        <pt x="357" y="71" on="0"/>
        <pt x="430" y="114" on="0"/>
        <pt x="473" y="199" on="0"/>
        <pt x="473" y="259" on="1"/>
        <pt x="473" y="314" on="0"/>
        <pt x="432" y="395" on="0"/>
        <pt x="361" y="438" on="0"/>
        <pt x="317" y="438" on="1"/>
        <pt x="282" y="438" on="0"/>
        <pt x="216" y="409" on="0"/>
        <pt x="192" y="384" on="1"/>
        <pt x="192" y="112" on="1"/>
        <pt x="209" y="94" on="0"/>
        <pt x="272" y="71" on="0"/>
        <pt x="314" y="71" on="1"/>
      </contour>
    </TTGlyph>
    <TTGlyph name="backslash" xMin="20" yMin="-12" xMax="443" yMax="772">
      <contour>
        <pt x="364" y="-12" on="1"/>
        <pt x="20" y="772" on="1"/>
        <pt x="99" y="772" on="1"/>
        <pt x="443" y="-12" on="1"/>
      </contour>
    </TTGlyph>
    <TTGlyph name="bar" xMin="74" yMin="-132" xMax="150" yMax="843">
      <contour>
        <pt x="74" y="-132" on="1"/>
        <pt x="74" y="843" on="1"/>
        <pt x="150" y="843" on="1"/>
        <pt x="150" y="-132" on="1"/>
      </contour>
    </TTGlyph>
    <TTGlyph name="braceleft" xMin="65" yMin="-184" xMax="317" yMax="760">
      <contour>
        <pt x="224" y="-184" on="0"/>
        <pt x="176" y="-153" on="0"/>
        <pt x="147" y="-94" on="0"/>
        <pt x="147" y="-55" on="1"/>
        <pt x="147" y="127" on="1"/>
        <pt x="147" y="180" on="0"/>
        <pt x="103" y="257" on="0"/>
        <pt x="65" y="257" on="1"/>
        <pt x="65" y="319" on="1"/>
        <pt x="103" y="319" on="0"/>
        <pt x="147" y="396" on="0"/>
        <pt x="147" y="449" on="1"/>
        <pt x="147" y="631" on="1"/>
        <pt x="147" y="670" on="0"/>
        <pt x="176" y="729" on="0"/>
        <pt x="224" y="760" on="0"/>
        <pt x="250" y="760" on="1"/>
        <pt x="317" y="760" on="1"/>
        <pt x="317" y="698" on="1"/>
        <pt x="283" y="698" on="1"/>
        <pt x="258" y="698" on="0"/>
        <pt x="237" y="649" on="0"/>
        <pt x="237" y="601" on="1"/>
        <pt x="237" y="431" on="1"/>
        <pt x="237" y="374" on="0"/>
        <pt x="192" y="303" on="0"/>
        <pt x="155" y="289" on="1"/>
        <pt x="155" y="287" on="1"/>
        <pt x="192" y="273" on="0"/>
        <pt x="237" y="202" on="0"/>
        <pt x="237" y="145" on="1"/>
        <pt x="237" y="-25" on="1"/>
        <pt x="237" y="-73" on="0"/>
        <pt x="258" y="-122" on="0"/>
        <pt x="283" y="-122" on="1"/>
        <pt x="317" y="-122" on="1"/>
        <pt x="317" y="-184" on="1"/>
        <pt x="250" y="-184" on="1"/>
      </contour>
    </TTGlyph>
    <TTGlyph name="braceright" xMin="35" yMin="-184" xMax="287" yMax="760">
      <contour>
        <pt x="35" y="-122" on="1"/>
        <pt x="69" y="-122" on="1"/>
        <pt x="94" y="-122" on="0"/>
        <pt x="115" y="-73" on="0"/>
        <pt x="115" y="-25" on="1"/>
        <pt x="115" y="145" on="1"/>
        <pt x="115" y="202" on="0"/>
        <pt x="160" y="273" on="0"/>
        <pt x="197" y="287" on="1"/>
        <pt x="197" y="289" on="1"/>
        <pt x="160" y="303" on="0"/>
        <pt x="115" y="374" on="0"/>
        <pt x="115" y="431" on="1"/>
        <pt x="115" y="601" on="1"/>
        <pt x="115" y="649" on="0"/>
        <pt x="94" y="698" on="0"/>
        <pt x="69" y="698" on="1"/>
        <pt x="35" y="698" on="1"/>
        <pt x="35" y="760" on="1"/>
        <pt x="102" y="760" on="1"/>
        <pt x="128" y="760" on="0"/>
        <pt x="176" y="729" on="0"/>
        <pt x="205" y="670" on="0"/>
        <pt x="205" y="631" on="1"/>
        <pt x="205" y="595" on="1"/>
        <pt x="205" y="449" on="1"/>
        <pt x="205" y="396" on="0"/>
        <pt x="249" y="319" on="0"/>
        <pt x="287" y="319" on="1"/>
        <pt x="287" y="257" on="1"/>
        <pt x="249" y="257" on="0"/>
        <pt x="205" y="180" on="0"/>
        <pt x="205" y="127" on="1"/>
        <pt x="205" y="-19" on="1"/>
        <pt x="205" y="-55" on="1"/>
        <pt x="205" y="-94" on="0"/>
        <pt x="176" y="-153" on="0"/>
        <pt x="128" y="-184" on="0"/>
        <pt x="102" y="-184" on="1"/>
        <pt x="35" y="-184" on="1"/>
      </contour>
    </TTGlyph>
    <TTGlyph name="bracketleft" xMin="116" yMin="-184" xMax="313" yMax="760">
      <contour>
        <pt x="116" y="-184" on="1"/>
        <pt x="116" y="760" on="1"/>
        <pt x="313" y="760" on="1"/>
        <pt x="313" y="686" on="1"/>
        <pt x="206" y="686" on="1"/>
        <pt x="206" y="-110" on="1"/>
        <pt x="313" y="-110" on="1"/>
        <pt x="313" y="-184" on="1"/>
      </contour>
    </TTGlyph>
    <TTGlyph name="bracketright" xMin="39" yMin="-184" xMax="236" yMax="760">
      <contour>
        <pt x="39" y="-184" on="1"/>
        <pt x="39" y="-110" on="1"/>
        <pt x="146" y="-110" on="1"/>
        <pt x="146" y="686" on="1"/>
        <pt x="39" y="686" on="1"/>
        <pt x="39" y="760" on="1"/>
        <pt x="236" y="760" on="1"/>
        <pt x="236" y="-184" on="1"/>
      </contour>
    </TTGlyph>
    <TTGlyph name="breve" xMin="58" yMin="561" xMax="418" yMax="722">
      <contour>
        <pt x="189" y="561" on="0"/>
        <pt x="108" y="603" on="0"/>
        <pt x="60" y="677" on="0"/>
        <pt x="58" y="722" on="1"/>
        <pt x="127" y="722" on="1"/>
        <pt x="128" y="679" on="0"/>
        <pt x="188" y="625" on="0"/>
        <pt x="238" y="625" on="1"/>
        <pt x="288" y="625" on="0"/>
        <pt x="347" y="678" on="0"/>
        <pt x="349" y="722" on="1"/>
        <pt x="418" y="722" on="1"/>
        <pt x="416" y="677" on="0"/>
        <pt x="367" y="603" on="0"/>
        <pt x="286" y="561" on="0"/>
        <pt x="238" y="561" on="1"/>
      </contour>
    </TTGlyph>
    <TTGlyph name="brevecombcy" xMin="-460" yMin="612" xMax="-100" yMax="773">
      <contour>
        <pt x="-329" y="612" on="0"/>
        <pt x="-410" y="654" on="0"/>
        <pt x="-458" y="728" on="0"/>
        <pt x="-460" y="773" on="1"/>
        <pt x="-391" y="773" on="1"/>
        <pt x="-390" y="730" on="0"/>
        <pt x="-330" y="676" on="0"/>
        <pt x="-280" y="676" on="1"/>
        <pt x="-230" y="676" on="0"/>
        <pt x="-171" y="729" on="0"/>
        <pt x="-169" y="773" on="1"/>
        <pt x="-100" y="773" on="1"/>
        <pt x="-102" y="728" on="0"/>
        <pt x="-151" y="654" on="0"/>
        <pt x="-232" y="612" on="0"/>
        <pt x="-280" y="612" on="1"/>
      </contour>
    </TTGlyph>
    <TTGlyph name="brokenbar" xMin="74" yMin="-131" xMax="150" yMax="844">
      <contour>
        <pt x="74" y="478" on="1"/>
        <pt x="74" y="844" on="1"/>
        <pt x="150" y="844" on="1"/>
        <pt x="150" y="478" on="1"/>
      </contour>
      <contour>
        <pt x="74" y="-131" on="1"/>
        <pt x="74" y="235" on="1"/>
        <pt x="150" y="235" on="1"/>
        <pt x="150" y="-131" on="1"/>
      </contour>
    </TTGlyph>
    <TTGlyph name="bullet" xMin="75" yMin="258" xMax="321" yMax="504">
      <contour>
        <pt x="146" y="258" on="0"/>
        <pt x="75" y="329" on="0"/>
        <pt x="75" y="381" on="1"/>
        <pt x="75" y="432" on="0"/>
        <pt x="146" y="504" on="0"/>
        <pt x="198" y="504" on="1"/>
        <pt x="249" y="504" on="0"/>
        <pt x="321" y="433" on="0"/>
        <pt x="321" y="381" on="1"/>
        <pt x="321" y="329" on="0"/>
        <pt x="249" y="258" on="0"/>
        <pt x="198" y="258" on="1"/>
      </contour>
    </TTGlyph>
    <TTGlyph name="c" xMin="44" yMin="-14" xMax="505" yMax="522">
      <contour>
        <pt x="413" y="372" on="1"/>
        <pt x="372" y="442" on="0"/>
        <pt x="288" y="442" on="1"/>
        <pt x="245" y="442" on="0"/>
        <pt x="176" y="396" on="0"/>
        <pt x="135" y="310" on="0"/>
        <pt x="135" y="254" on="1"/>
        <pt x="135" y="199" on="0"/>
        <pt x="176" y="115" on="0"/>
        <pt x="246" y="69" on="0"/>
        <pt x="288" y="69" on="1"/>
        <pt x="335" y="69" on="0"/>
        <pt x="405" y="115" on="0"/>
        <pt x="425" y="158" on="1"/>
        <pt x="500" y="121" on="1"/>
        <pt x="470" y="58" on="0"/>
        <pt x="359" y="-14" on="0"/>
        <pt x="287" y="-14" on="1"/>
        <pt x="217" y="-14" on="0"/>
        <pt x="107" y="54" on="0"/>
        <pt x="44" y="177" on="0"/>
        <pt x="44" y="254" on="1"/>
        <pt x="44" y="330" on="0"/>
        <pt x="109" y="453" on="0"/>
        <pt x="221" y="522" on="0"/>
        <pt x="288" y="522" on="1"/>
        <pt x="336" y="522" on="0"/>
        <pt x="422" y="488" on="0"/>
        <pt x="454" y="455" on="1"/>
        <pt x="505" y="455" on="1"/>
        <pt x="505" y="371" on="1"/>
        <pt x="416" y="371" on="1"/>
        <pt x="414" y="370" on="1"/>
        <pt x="414" y="370" on="0"/>
        <pt x="414" y="371" on="0"/>
        <pt x="413" y="371" on="1"/>
      </contour>
    </TTGlyph>
    <TTGlyph name="caron" xMin="109" yMin="554" xMax="379" yMax="717">
      <contour>
        <pt x="232" y="554" on="1"/>
        <pt x="109" y="717" on="1"/>
        <pt x="179" y="717" on="1"/>
        <pt x="244" y="631" on="1"/>
        <pt x="310" y="717" on="1"/>
        <pt x="379" y="717" on="1"/>
        <pt x="256" y="554" on="1"/>
      </contour>
    </TTGlyph>
    <TTGlyph name="ccaron" xMin="44" yMin="-14" xMax="505" yMax="717">
      <component glyphName="c" x="0" y="0" flags="0x0"/>
      <component glyphName="caron" x="62" y="0" flags="0x0"/>
    </TTGlyph>
    <TTGlyph name="ccedilla" xMin="44" yMin="-211" xMax="505" yMax="522">
      <component glyphName="c" x="0" y="0" flags="0x0"/>
      <component glyphName="cedilla" x="69" y="0" flags="0x0"/>
    </TTGlyph>
    <TTGlyph name="cedilla" xMin="89" yMin="-211" xMax="290" yMax="-38">
      <contour>
        <pt x="89" y="-148" on="1"/>
        <pt x="140" y="-147" on="0"/>
        <pt x="208" y="-85" on="0"/>
        <pt x="217" y="-38" on="1"/>
        <pt x="290" y="-60" on="1"/>
        <pt x="272" y="-130" on="0"/>
        <pt x="165" y="-211" on="0"/>
        <pt x="94" y="-211" on="1"/>
      </contour>
    </TTGlyph>
    <TTGlyph name="cent" xMin="54" yMin="-91" xMax="515" yMax="772">
      <contour>
        <pt x="423" y="452" on="1"/>
        <pt x="382" y="522" on="0"/>
        <pt x="298" y="522" on="1"/>
        <pt x="255" y="522" on="0"/>
        <pt x="186" y="476" on="0"/>
        <pt x="145" y="390" on="0"/>
        <pt x="145" y="334" on="1"/>
        <pt x="145" y="279" on="0"/>
        <pt x="186" y="195" on="0"/>
        <pt x="256" y="149" on="0"/>
        <pt x="298" y="149" on="1"/>
        <pt x="345" y="149" on="0"/>
        <pt x="415" y="195" on="0"/>
        <pt x="435" y="238" on="1"/>
        <pt x="510" y="201" on="1"/>
        <pt x="486" y="150" on="0"/>
        <pt x="402" y="82" on="0"/>
        <pt x="348" y="71" on="1"/>
        <pt x="348" y="-91" on="1"/>
        <pt x="252" y="-91" on="1"/>
        <pt x="252" y="70" on="1"/>
        <pt x="194" y="80" on="0"/>
        <pt x="104" y="153" on="0"/>
        <pt x="54" y="265" on="0"/>
        <pt x="54" y="334" on="1"/>
        <pt x="54" y="402" on="0"/>
        <pt x="105" y="513" on="0"/>
        <pt x="195" y="586" on="0"/>
        <pt x="252" y="598" on="1"/>
        <pt x="252" y="772" on="1"/>
        <pt x="348" y="772" on="1"/>
        <pt x="348" y="597" on="1"/>
        <pt x="419" y="582" on="0"/>
        <pt x="464" y="535" on="1"/>
        <pt x="515" y="535" on="1"/>
        <pt x="515" y="451" on="1"/>
        <pt x="426" y="451" on="1"/>
        <pt x="424" y="450" on="1"/>
        <pt x="424" y="450" on="0"/>
        <pt x="424" y="451" on="0"/>
        <pt x="423" y="451" on="1"/>
      </contour>
    </TTGlyph>
    <TTGlyph name="circumflex" xMin="106" yMin="574" xMax="382" yMax="727">
      <contour>
        <pt x="106" y="574" on="1"/>
        <pt x="228" y="727" on="1"/>
        <pt x="259" y="727" on="1"/>
        <pt x="382" y="574" on="1"/>
        <pt x="309" y="574" on="1"/>
        <pt x="244" y="650" on="1"/>
        <pt x="178" y="574" on="1"/>
      </contour>
    </TTGlyph>
    <TTGlyph name="colon" xMin="47" yMin="-6" xMax="174" yMax="506">
      <component glyphName="dotaccent" x="-38" y="-242" flags="0x4"/>
      <component glyphName="dotaccent" x="-38" y="-626" flags="0x4"/>
    </TTGlyph>
    <TTGlyph name="comma" xMin="10" yMin="-166" xMax="207" yMax="138">
      <contour>
        <pt x="80" y="-166" on="1"/>
        <pt x="10" y="-140" on="1"/>
        <pt x="100" y="138" on="1"/>
        <pt x="207" y="96" on="1"/>
      </contour>
    </TTGlyph>
    <TTGlyph name="commabelow" xMin="10" yMin="-231" xMax="168" yMax="-20">
      <contour>
        <pt x="80" y="-231" on="1"/>
        <pt x="10" y="-205" on="1"/>
        <pt x="65" y="-20" on="1"/>
        <pt x="168" y="-61" on="1"/>
      </contour>
    </TTGlyph>
    <TTGlyph name="copyright" xMin="50" yMin="-12" xMax="887" yMax="823">
      <contour>
        <pt x="354" y="-12" on="0"/>
        <pt x="162" y="100" on="0"/>
        <pt x="50" y="292" on="0"/>
        <pt x="50" y="406" on="1"/>
        <pt x="50" y="520" on="0"/>
        <pt x="162" y="711" on="0"/>
        <pt x="354" y="823" on="0"/>
        <pt x="468" y="823" on="1"/>
        <pt x="582" y="823" on="0"/>
        <pt x="774" y="711" on="0"/>
        <pt x="887" y="520" on="0"/>
        <pt x="887" y="406" on="1"/>
        <pt x="887" y="292" on="0"/>
        <pt x="774" y="100" on="0"/>
        <pt x="582" y="-12" on="0"/>
        <pt x="468" y="-12" on="1"/>
      </contour>
      <contour>
        <pt x="559" y="75" on="0"/>
        <pt x="710" y="163" on="0"/>
        <pt x="798" y="315" on="0"/>
        <pt x="798" y="406" on="1"/>
        <pt x="798" y="497" on="0"/>
        <pt x="710" y="648" on="0"/>
        <pt x="559" y="736" on="0"/>
        <pt x="468" y="736" on="1"/>
        <pt x="377" y="736" on="0"/>
        <pt x="226" y="648" on="0"/>
        <pt x="138" y="497" on="0"/>
        <pt x="138" y="406" on="1"/>
        <pt x="138" y="315" on="0"/>
        <pt x="226" y="163" on="0"/>
        <pt x="377" y="75" on="0"/>
        <pt x="468" y="75" on="1"/>
      </contour>
      <contour>
        <pt x="411" y="162" on="0"/>
        <pt x="299" y="228" on="0"/>
        <pt x="233" y="340" on="0"/>
        <pt x="233" y="407" on="1"/>
        <pt x="233" y="474" on="0"/>
        <pt x="299" y="587" on="0"/>
        <pt x="411" y="653" on="0"/>
        <pt x="478" y="653" on="1"/>
        <pt x="530" y="653" on="0"/>
        <pt x="618" y="612" on="0"/>
        <pt x="650" y="581" on="1"/>
        <pt x="581" y="517" on="1"/>
        <pt x="565" y="536" on="0"/>
        <pt x="505" y="560" on="0"/>
        <pt x="478" y="560" on="1"/>
        <pt x="437" y="560" on="0"/>
        <pt x="368" y="519" on="0"/>
        <pt x="328" y="448" on="0"/>
        <pt x="328" y="407" on="1"/>
        <pt x="328" y="366" on="0"/>
        <pt x="368" y="297" on="0"/>
        <pt x="437" y="257" on="0"/>
        <pt x="478" y="257" on="1"/>
        <pt x="505" y="257" on="0"/>
        <pt x="557" y="279" on="0"/>
        <pt x="572" y="296" on="1"/>
        <pt x="637" y="233" on="1"/>
        <pt x="614" y="203" on="0"/>
        <pt x="524" y="162" on="0"/>
        <pt x="478" y="162" on="1"/>
      </contour>
    </TTGlyph>
    <TTGlyph name="currency" xMin="27" yMin="83" xMax="526" yMax="645">
      <contour>
        <pt x="452" y="86" on="1"/>
        <pt x="383" y="169" on="1"/>
        <pt x="335" y="144" on="0"/>
        <pt x="280" y="144" on="1"/>
        <pt x="226" y="144" on="0"/>
        <pt x="179" y="169" on="1"/>
        <pt x="108" y="83" on="1"/>
        <pt x="27" y="137" on="1"/>
        <pt x="106" y="230" on="1"/>
        <pt x="61" y="289" on="0"/>
        <pt x="61" y="363" on="1"/>
        <pt x="61" y="437" on="0"/>
        <pt x="108" y="499" on="1"/>
        <pt x="36" y="585" on="1"/>
        <pt x="107" y="645" on="1"/>
        <pt x="180" y="558" on="1"/>
        <pt x="228" y="582" on="0"/>
        <pt x="280" y="582" on="1"/>
        <pt x="331" y="582" on="0"/>
        <pt x="379" y="558" on="1"/>
        <pt x="446" y="638" on="1"/>
        <pt x="524" y="582" on="1"/>
        <pt x="453" y="497" on="1"/>
        <pt x="499" y="438" on="0"/>
        <pt x="499" y="363" on="1"/>
        <pt x="499" y="289" on="0"/>
        <pt x="454" y="230" on="1"/>
        <pt x="526" y="144" on="1"/>
      </contour>
      <contour>
        <pt x="144" y="328" on="0"/>
        <pt x="181" y="265" on="0"/>
        <pt x="244" y="228" on="0"/>
        <pt x="281" y="228" on="1"/>
        <pt x="318" y="228" on="0"/>
        <pt x="381" y="265" on="0"/>
        <pt x="418" y="328" on="0"/>
        <pt x="418" y="365" on="1"/>
        <pt x="418" y="402" on="0"/>
        <pt x="381" y="465" on="0"/>
        <pt x="318" y="502" on="0"/>
        <pt x="281" y="502" on="1"/>
        <pt x="244" y="502" on="0"/>
        <pt x="181" y="465" on="0"/>
        <pt x="144" y="402" on="0"/>
        <pt x="144" y="365" on="1"/>
      </contour>
    </TTGlyph>
    <TTGlyph name="d" xMin="45" yMin="-11" xMax="581" yMax="760">
      <contour>
        <pt x="581" y="84" on="1"/>
        <pt x="581" y="0" on="1"/>
        <pt x="416" y="0" on="1"/>
        <pt x="416" y="41" on="1"/>
        <pt x="364" y="-11" on="0"/>
        <pt x="286" y="-11" on="1"/>
        <pt x="217" y="-11" on="0"/>
        <pt x="107" y="53" on="0"/>
        <pt x="45" y="174" on="0"/>
        <pt x="45" y="258" on="1"/>
        <pt x="45" y="335" on="0"/>
        <pt x="106" y="453" on="0"/>
        <pt x="218" y="518" on="0"/>
        <pt x="291" y="518" on="1"/>
        <pt x="329" y="518" on="0"/>
        <pt x="389" y="501" on="0"/>
        <pt x="416" y="482" on="1"/>
        <pt x="416" y="676" on="1"/>
        <pt x="347" y="676" on="1"/>
        <pt x="347" y="760" on="1"/>
        <pt x="507" y="760" on="1"/>
        <pt x="507" y="84" on="1"/>
      </contour>
      <contour>
        <pt x="338" y="68" on="0"/>
        <pt x="398" y="95" on="0"/>
        <pt x="416" y="116" on="1"/>
        <pt x="416" y="399" on="1"/>
        <pt x="371" y="438" on="0"/>
        <pt x="295" y="438" on="1"/>
        <pt x="251" y="438" on="0"/>
        <pt x="180" y="395" on="0"/>
        <pt x="139" y="314" on="0"/>
        <pt x="139" y="259" on="1"/>
        <pt x="139" y="168" on="0"/>
        <pt x="226" y="68" on="0"/>
        <pt x="298" y="68" on="1"/>
      </contour>
    </TTGlyph>
    <TTGlyph name="dagger" xMin="25" yMin="-230" xMax="525" yMax="739">
      <contour>
        <pt x="525" y="506" on="1"/>
        <pt x="525" y="422" on="1"/>
        <pt x="324" y="422" on="1"/>
        <pt x="324" y="-230" on="1"/>
        <pt x="228" y="-230" on="1"/>
        <pt x="228" y="422" on="1"/>
        <pt x="25" y="422" on="1"/>
        <pt x="25" y="506" on="1"/>
        <pt x="228" y="506" on="1"/>
        <pt x="228" y="739" on="1"/>
        <pt x="324" y="739" on="1"/>
        <pt x="324" y="506" on="1"/>
      </contour>
    </TTGlyph>
    <TTGlyph name="daggerdbl" xMin="25" yMin="-230" xMax="525" yMax="739">
      <contour>
        <pt x="525" y="422" on="1"/>
        <pt x="324" y="422" on="1"/>
        <pt x="324" y="83" on="1"/>
        <pt x="525" y="83" on="1"/>
        <pt x="525" y="-1" on="1"/>
        <pt x="324" y="-1" on="1"/>
        <pt x="324" y="-230" on="1"/>
        <pt x="228" y="-230" on="1"/>
        <pt x="228" y="-1" on="1"/>
        <pt x="25" y="-1" on="1"/>
        <pt x="25" y="83" on="1"/>
        <pt x="228" y="83" on="1"/>
        <pt x="228" y="422" on="1"/>
        <pt x="25" y="422" on="1"/>
        <pt x="25" y="506" on="1"/>
        <pt x="228" y="506" on="1"/>
        <pt x="228" y="739" on="1"/>
        <pt x="324" y="739" on="1"/>
        <pt x="324" y="506" on="1"/>
        <pt x="525" y="506" on="1"/>
      </contour>
    </TTGlyph>
    <TTGlyph name="degree" xMin="50" yMin="615" xMax="283" yMax="848">
      <contour>
        <pt x="118" y="615" on="0"/>
        <pt x="50" y="683" on="0"/>
        <pt x="50" y="731" on="1"/>
        <pt x="50" y="779" on="0"/>
        <pt x="118" y="848" on="0"/>
        <pt x="166" y="848" on="1"/>
        <pt x="214" y="848" on="0"/>
        <pt x="283" y="779" on="0"/>
        <pt x="283" y="731" on="1"/>
        <pt x="283" y="683" on="0"/>
        <pt x="214" y="615" on="0"/>
        <pt x="166" y="615" on="1"/>
      </contour>
      <contour>
        <pt x="193" y="665" on="0"/>
        <pt x="233" y="704" on="0"/>
        <pt x="233" y="731" on="1"/>
        <pt x="233" y="758" on="0"/>
        <pt x="193" y="798" on="0"/>
        <pt x="166" y="798" on="1"/>
        <pt x="139" y="798" on="0"/>
        <pt x="100" y="758" on="0"/>
        <pt x="100" y="731" on="1"/>
        <pt x="100" y="704" on="0"/>
        <pt x="139" y="665" on="0"/>
        <pt x="166" y="665" on="1"/>
      </contour>
    </TTGlyph>
    <TTGlyph name="dieresis" xMin="19" yMin="599" xMax="367" yMax="727">
      <contour>
        <pt x="57" y="599" on="0"/>
        <pt x="19" y="638" on="0"/>
        <pt x="19" y="664" on="1"/>
        <pt x="19" y="690" on="0"/>
        <pt x="57" y="727" on="0"/>
        <pt x="82" y="727" on="1"/>
        <pt x="107" y="727" on="0"/>
        <pt x="143" y="690" on="0"/>
        <pt x="143" y="664" on="1"/>
        <pt x="143" y="638" on="0"/>
        <pt x="107" y="599" on="0"/>
        <pt x="82" y="599" on="1"/>
      </contour>
      <contour>
        <pt x="281" y="599" on="0"/>
        <pt x="243" y="638" on="0"/>
        <pt x="243" y="664" on="1"/>
        <pt x="243" y="690" on="0"/>
        <pt x="281" y="727" on="0"/>
        <pt x="306" y="727" on="1"/>
        <pt x="331" y="727" on="0"/>
        <pt x="367" y="690" on="0"/>
        <pt x="367" y="664" on="1"/>
        <pt x="367" y="638" on="0"/>
        <pt x="331" y="599" on="0"/>
        <pt x="306" y="599" on="1"/>
      </contour>
    </TTGlyph>
    <TTGlyph name="divide" xMin="25" yMin="-6" xMax="525" yMax="506">
      <component glyphName="dotaccent" x="117" y="-242" flags="0x4"/>
      <component glyphName="dotaccent" x="117" y="-626" flags="0x4"/>
      <component glyphName="endash" x="25" y="-16" flags="0x4"/>
    </TTGlyph>
    <TTGlyph name="dollar" xMin="73" yMin="-91" xMax="518" yMax="772">
      <contour>
        <pt x="404" y="448" on="1"/>
        <pt x="404" y="460" on="1"/>
        <pt x="399" y="491" on="0"/>
        <pt x="344" y="530" on="0"/>
        <pt x="301" y="530" on="1"/>
        <pt x="248" y="530" on="0"/>
        <pt x="192" y="495" on="0"/>
        <pt x="192" y="465" on="1"/>
        <pt x="192" y="433" on="0"/>
        <pt x="231" y="407" on="0"/>
        <pt x="277" y="394" on="0"/>
        <pt x="285" y="392" on="1"/>
        <pt x="370" y="366" on="1"/>
        <pt x="439" y="345" on="0"/>
        <pt x="508" y="280" on="0"/>
        <pt x="508" y="224" on="1"/>
        <pt x="508" y="164" on="0"/>
        <pt x="420" y="78" on="0"/>
        <pt x="348" y="67" on="1"/>
        <pt x="348" y="-91" on="1"/>
        <pt x="252" y="-91" on="1"/>
        <pt x="252" y="67" on="1"/>
        <pt x="168" y="80" on="0"/>
        <pt x="131" y="148" on="1"/>
        <pt x="73" y="148" on="1"/>
        <pt x="73" y="232" on="1"/>
        <pt x="196" y="232" on="1"/>
        <pt x="196" y="227" on="1"/>
        <pt x="197" y="227" on="1"/>
        <pt x="197" y="188" on="0"/>
        <pt x="252" y="146" on="0"/>
        <pt x="305" y="146" on="1"/>
        <pt x="354" y="146" on="0"/>
        <pt x="411" y="185" on="0"/>
        <pt x="411" y="219" on="1"/>
        <pt x="411" y="251" on="0"/>
        <pt x="359" y="280" on="0"/>
        <pt x="312" y="292" on="1"/>
        <pt x="226" y="315" on="1"/>
        <pt x="99" y="349" on="0"/>
        <pt x="99" y="461" on="1"/>
        <pt x="99" y="518" on="0"/>
        <pt x="180" y="595" on="0"/>
        <pt x="252" y="605" on="1"/>
        <pt x="252" y="772" on="1"/>
        <pt x="348" y="772" on="1"/>
        <pt x="348" y="604" on="1"/>
        <pt x="388" y="597" on="0"/>
        <pt x="450" y="559" on="0"/>
        <pt x="469" y="532" on="1"/>
        <pt x="518" y="532" on="1"/>
        <pt x="518" y="448" on="1"/>
        <pt x="413" y="448" on="1"/>
        <pt x="405" y="447" on="1"/>
        <pt x="405" y="448" on="1"/>
      </contour>
    </TTGlyph>
    <TTGlyph name="dotaccent" xMin="85" yMin="620" xMax="212" yMax="748">
      <contour>
        <pt x="123" y="620" on="0"/>
        <pt x="85" y="659" on="0"/>
        <pt x="85" y="685" on="1"/>
        <pt x="85" y="711" on="0"/>
        <pt x="123" y="748" on="0"/>
        <pt x="149" y="748" on="1"/>
        <pt x="175" y="748" on="0"/>
        <pt x="212" y="711" on="0"/>
        <pt x="212" y="685" on="1"/>
        <pt x="212" y="659" on="0"/>
        <pt x="174" y="620" on="0"/>
        <pt x="149" y="620" on="1"/>
      </contour>
    </TTGlyph>
    <TTGlyph name="dotlessi" xMin="29" yMin="0" xMax="270" yMax="506">
      <contour>
        <pt x="194" y="84" on="1"/>
        <pt x="270" y="84" on="1"/>
        <pt x="270" y="0" on="1"/>
        <pt x="30" y="0" on="1"/>
        <pt x="30" y="84" on="1"/>
        <pt x="102" y="84" on="1"/>
        <pt x="102" y="422" on="1"/>
        <pt x="29" y="422" on="1"/>
        <pt x="29" y="506" on="1"/>
        <pt x="194" y="506" on="1"/>
      </contour>
    </TTGlyph>
    <TTGlyph name="e" xMin="45" yMin="-14" xMax="499" yMax="519">
      <contour>
        <pt x="372" y="70" on="0"/>
        <pt x="450" y="115" on="1"/>
        <pt x="487" y="53" on="1"/>
        <pt x="389" y="-14" on="0"/>
        <pt x="282" y="-14" on="1"/>
        <pt x="212" y="-14" on="0"/>
        <pt x="105" y="47" on="0"/>
        <pt x="45" y="168" on="0"/>
        <pt x="45" y="255" on="1"/>
        <pt x="45" y="329" on="0"/>
        <pt x="100" y="449" on="0"/>
        <pt x="207" y="519" on="0"/>
        <pt x="283" y="519" on="1"/>
        <pt x="469" y="519" on="0"/>
        <pt x="495" y="316" on="1"/>
        <pt x="499" y="283" on="0"/>
        <pt x="499" y="241" on="1"/>
        <pt x="135" y="241" on="1"/>
        <pt x="135" y="200" on="0"/>
        <pt x="147" y="168" on="1"/>
        <pt x="165" y="120" on="0"/>
        <pt x="243" y="70" on="0"/>
        <pt x="295" y="70" on="1"/>
      </contour>
      <contour>
        <pt x="161" y="443" on="0"/>
        <pt x="140" y="312" on="1"/>
        <pt x="402" y="312" on="1"/>
        <pt x="393" y="443" on="0"/>
        <pt x="277" y="443" on="1"/>
      </contour>
    </TTGlyph>
    <TTGlyph name="eacute" xMin="45" yMin="-14" xMax="499" yMax="721">
      <component glyphName="e" x="0" y="0" flags="0x0"/>
      <component glyphName="acute" x="174" y="0" flags="0x0"/>
    </TTGlyph>
    <TTGlyph name="ecircumflex" xMin="45" yMin="-14" xMax="499" yMax="727">
      <component glyphName="e" x="0" y="0" flags="0x0"/>
      <component glyphName="circumflex" x="51" y="0" flags="0x0"/>
    </TTGlyph>
    <TTGlyph name="edieresis" xMin="45" yMin="-14" xMax="499" yMax="727">
      <component glyphName="e" x="0" y="0" flags="0x0"/>
      <component glyphName="uni0308" x="557" y="0" flags="0x0"/>
    </TTGlyph>
    <TTGlyph name="egrave" xMin="45" yMin="-14" xMax="499" yMax="721">
      <component glyphName="e" x="0" y="0" flags="0x0"/>
      <component glyphName="grave" x="18" y="0" flags="0x0"/>
    </TTGlyph>
    <TTGlyph name="eight" xMin="68" yMin="-8" xMax="543" yMax="754">
      <contour>
        <pt x="483" y="374" on="0"/>
        <pt x="543" y="274" on="0"/>
        <pt x="543" y="216" on="1"/>
        <pt x="543" y="156" on="0"/>
        <pt x="479" y="53" on="0"/>
        <pt x="370" y="-8" on="0"/>
        <pt x="306" y="-8" on="1"/>
        <pt x="242" y="-8" on="0"/>
        <pt x="132" y="53" on="0"/>
        <pt x="68" y="156" on="0"/>
        <pt x="68" y="216" on="1"/>
        <pt x="68" y="275" on="0"/>
        <pt x="129" y="375" on="0"/>
        <pt x="181" y="405" on="1"/>
        <pt x="143" y="432" on="0"/>
        <pt x="100" y="513" on="0"/>
        <pt x="100" y="560" on="1"/>
        <pt x="100" y="613" on="0"/>
        <pt x="156" y="702" on="0"/>
        <pt x="251" y="754" on="0"/>
        <pt x="308" y="754" on="1"/>
        <pt x="363" y="754" on="0"/>
        <pt x="458" y="702" on="0"/>
        <pt x="514" y="613" on="0"/>
        <pt x="514" y="560" on="1"/>
        <pt x="514" y="513" on="0"/>
        <pt x="470" y="432" on="0"/>
        <pt x="432" y="405" on="1"/>
      </contour>
      <contour>
        <pt x="255" y="675" on="0"/>
        <pt x="184" y="607" on="0"/>
        <pt x="184" y="558" on="1"/>
        <pt x="184" y="509" on="0"/>
        <pt x="255" y="441" on="0"/>
        <pt x="308" y="441" on="1"/>
        <pt x="358" y="441" on="0"/>
        <pt x="430" y="510" on="0"/>
        <pt x="430" y="558" on="1"/>
        <pt x="430" y="589" on="0"/>
        <pt x="397" y="643" on="0"/>
        <pt x="340" y="675" on="0"/>
        <pt x="308" y="675" on="1"/>
      </contour>
      <contour>
        <pt x="346" y="77" on="0"/>
        <pt x="414" y="115" on="0"/>
        <pt x="454" y="180" on="0"/>
        <pt x="454" y="218" on="1"/>
        <pt x="454" y="255" on="0"/>
        <pt x="414" y="319" on="0"/>
        <pt x="346" y="357" on="0"/>
        <pt x="306" y="357" on="1"/>
        <pt x="266" y="357" on="0"/>
        <pt x="197" y="319" on="0"/>
        <pt x="157" y="255" on="0"/>
        <pt x="157" y="218" on="1"/>
        <pt x="157" y="180" on="0"/>
        <pt x="197" y="115" on="0"/>
        <pt x="266" y="77" on="0"/>
        <pt x="306" y="77" on="1"/>
      </contour>
    </TTGlyph>
    <TTGlyph name="ellipsis" xMin="100" yMin="-12" xMax="901" yMax="132">
      <contour>
        <pt x="143" y="-12" on="0"/>
        <pt x="100" y="31" on="0"/>
        <pt x="100" y="60" on="1"/>
        <pt x="100" y="89" on="0"/>
        <pt x="143" y="132" on="0"/>
        <pt x="172" y="132" on="1"/>
        <pt x="202" y="132" on="0"/>
        <pt x="245" y="89" on="0"/>
        <pt x="245" y="60" on="1"/>
        <pt x="245" y="31" on="0"/>
        <pt x="202" y="-12" on="0"/>
        <pt x="172" y="-12" on="1"/>
      </contour>
      <contour>
        <pt x="471" y="-12" on="0"/>
        <pt x="428" y="31" on="0"/>
        <pt x="428" y="60" on="1"/>
        <pt x="428" y="89" on="0"/>
        <pt x="471" y="132" on="0"/>
        <pt x="500" y="132" on="1"/>
        <pt x="530" y="132" on="0"/>
        <pt x="573" y="89" on="0"/>
        <pt x="573" y="60" on="1"/>
        <pt x="573" y="31" on="0"/>
        <pt x="530" y="-12" on="0"/>
        <pt x="500" y="-12" on="1"/>
      </contour>
      <contour>
        <pt x="799" y="-12" on="0"/>
        <pt x="756" y="31" on="0"/>
        <pt x="756" y="60" on="1"/>
        <pt x="756" y="89" on="0"/>
        <pt x="799" y="132" on="0"/>
        <pt x="828" y="132" on="1"/>
        <pt x="858" y="132" on="0"/>
        <pt x="901" y="89" on="0"/>
        <pt x="901" y="60" on="1"/>
        <pt x="901" y="31" on="0"/>
        <pt x="858" y="-12" on="0"/>
        <pt x="828" y="-12" on="1"/>
      </contour>
    </TTGlyph>
    <TTGlyph name="emdash" xMin="0" yMin="237" xMax="1000" yMax="316">
      <contour>
        <pt x="0" y="237" on="1"/>
        <pt x="0" y="316" on="1"/>
        <pt x="1000" y="316" on="1"/>
        <pt x="1000" y="237" on="1"/>
      </contour>
    </TTGlyph>
    <TTGlyph name="endash" xMin="0" yMin="237" xMax="500" yMax="316">
      <contour>
        <pt x="0" y="237" on="1"/>
        <pt x="0" y="316" on="1"/>
        <pt x="500" y="316" on="1"/>
        <pt x="500" y="237" on="1"/>
      </contour>
    </TTGlyph>
    <TTGlyph name="eogonek" xMin="45" yMin="-230" xMax="499" yMax="519">
      <contour>
        <pt x="315" y="-48" on="0"/>
        <pt x="315" y="-110" on="1"/>
        <pt x="315" y="-133" on="0"/>
        <pt x="348" y="-158" on="0"/>
        <pt x="378" y="-158" on="1"/>
        <pt x="410" y="-158" on="0"/>
        <pt x="438" y="-145" on="1"/>
        <pt x="459" y="-207" on="1"/>
        <pt x="444" y="-216" on="0"/>
        <pt x="392" y="-230" on="0"/>
        <pt x="363" y="-230" on="1"/>
        <pt x="303" y="-230" on="0"/>
        <pt x="230" y="-176" on="0"/>
        <pt x="230" y="-127" on="1"/>
        <pt x="230" y="-63" on="0"/>
        <pt x="290" y="-14" on="1"/>
        <pt x="282" y="-14" on="1"/>
        <pt x="212" y="-14" on="0"/>
        <pt x="105" y="47" on="0"/>
        <pt x="45" y="168" on="0"/>
        <pt x="45" y="255" on="1"/>
        <pt x="45" y="329" on="0"/>
        <pt x="100" y="449" on="0"/>
        <pt x="207" y="519" on="0"/>
        <pt x="283" y="519" on="1"/>
        <pt x="469" y="519" on="0"/>
        <pt x="495" y="316" on="1"/>
        <pt x="499" y="283" on="0"/>
        <pt x="499" y="241" on="1"/>
        <pt x="135" y="241" on="1"/>
        <pt x="135" y="200" on="0"/>
        <pt x="147" y="168" on="1"/>
        <pt x="165" y="120" on="0"/>
        <pt x="243" y="70" on="0"/>
        <pt x="295" y="70" on="1"/>
        <pt x="372" y="70" on="0"/>
        <pt x="450" y="115" on="1"/>
        <pt x="487" y="53" on="1"/>
        <pt x="463" y="37" on="0"/>
        <pt x="441" y="26" on="1"/>
      </contour>
      <contour>
        <pt x="161" y="443" on="0"/>
        <pt x="140" y="312" on="1"/>
        <pt x="402" y="312" on="1"/>
        <pt x="393" y="443" on="0"/>
        <pt x="277" y="443" on="1"/>
      </contour>
    </TTGlyph>
    <TTGlyph name="equal" xMin="42" yMin="149" xMax="408" yMax="383">
      <contour>
        <pt x="42" y="314" on="1"/>
        <pt x="42" y="383" on="1"/>
        <pt x="408" y="383" on="1"/>
        <pt x="408" y="314" on="1"/>
      </contour>
      <contour>
        <pt x="42" y="149" on="1"/>
        <pt x="42" y="218" on="1"/>
        <pt x="408" y="218" on="1"/>
        <pt x="408" y="149" on="1"/>
      </contour>
    </TTGlyph>
    <TTGlyph name="estimated" xMin="50" yMin="-15" xMax="761" yMax="635">
      <contour>
        <pt x="305" y="-15" on="0"/>
        <pt x="143" y="65" on="0"/>
        <pt x="50" y="212" on="0"/>
        <pt x="50" y="309" on="1"/>
        <pt x="50" y="411" on="0"/>
        <pt x="147" y="559" on="0"/>
        <pt x="309" y="635" on="0"/>
        <pt x="403" y="635" on="1"/>
        <pt x="510" y="635" on="0"/>
        <pt x="670" y="552" on="0"/>
        <pt x="758" y="400" on="0"/>
        <pt x="761" y="300" on="1"/>
        <pt x="195" y="300" on="1"/>
        <pt x="188" y="300" on="0"/>
        <pt x="181" y="294" on="0"/>
        <pt x="181" y="284" on="1"/>
        <pt x="181" y="119" on="1"/>
        <pt x="181" y="100" on="0"/>
        <pt x="240" y="48" on="0"/>
        <pt x="342" y="11" on="0"/>
        <pt x="405" y="11" on="1"/>
        <pt x="474" y="11" on="0"/>
        <pt x="594" y="67" on="0"/>
        <pt x="631" y="113" on="1"/>
        <pt x="696" y="113" on="1"/>
        <pt x="633" y="46" on="0"/>
        <pt x="492" y="-15" on="0"/>
        <pt x="405" y="-15" on="1"/>
      </contour>
      <contour>
        <pt x="612" y="326" on="1"/>
        <pt x="623" y="326" on="0"/>
        <pt x="629" y="333" on="0"/>
        <pt x="629" y="342" on="1"/>
        <pt x="629" y="508" on="1"/>
        <pt x="629" y="533" on="0"/>
        <pt x="560" y="580" on="0"/>
        <pt x="454" y="609" on="0"/>
        <pt x="403" y="609" on="1"/>
        <pt x="348" y="609" on="0"/>
        <pt x="245" y="579" on="0"/>
        <pt x="181" y="532" on="0"/>
        <pt x="181" y="508" on="1"/>
        <pt x="181" y="342" on="1"/>
        <pt x="181" y="333" on="0"/>
        <pt x="188" y="326" on="0"/>
        <pt x="196" y="326" on="1"/>
      </contour>
    </TTGlyph>
    <TTGlyph name="eth" xMin="46" yMin="-2" xMax="562" yMax="745">
      <contour>
        <pt x="533" y="365" on="0"/>
        <pt x="562" y="286" on="0"/>
        <pt x="562" y="246" on="1"/>
        <pt x="562" y="174" on="0"/>
        <pt x="491" y="61" on="0"/>
        <pt x="373" y="-2" on="0"/>
        <pt x="306" y="-2" on="1"/>
        <pt x="235" y="-2" on="0"/>
        <pt x="116" y="60" on="0"/>
        <pt x="46" y="178" on="0"/>
        <pt x="46" y="258" on="1"/>
        <pt x="46" y="323" on="0"/>
        <pt x="111" y="429" on="0"/>
        <pt x="219" y="488" on="0"/>
        <pt x="279" y="488" on="1"/>
        <pt x="308" y="488" on="0"/>
        <pt x="350" y="483" on="0"/>
        <pt x="376" y="471" on="1"/>
        <pt x="315" y="573" on="1"/>
        <pt x="232" y="573" on="1"/>
        <pt x="232" y="657" on="1"/>
        <pt x="264" y="657" on="1"/>
        <pt x="211" y="745" on="1"/>
        <pt x="325" y="745" on="1"/>
        <pt x="374" y="657" on="1"/>
        <pt x="472" y="657" on="1"/>
        <pt x="472" y="573" on="1"/>
        <pt x="420" y="573" on="1"/>
        <pt x="505" y="419" on="1"/>
      </contour>
      <contour>
        <pt x="377" y="83" on="0"/>
        <pt x="471" y="170" on="0"/>
        <pt x="471" y="245" on="1"/>
        <pt x="471" y="287" on="0"/>
        <pt x="458" y="326" on="1"/>
        <pt x="409" y="408" on="0"/>
        <pt x="317" y="408" on="1"/>
        <pt x="268" y="408" on="0"/>
        <pt x="186" y="370" on="0"/>
        <pt x="137" y="297" on="0"/>
        <pt x="137" y="245" on="1"/>
        <pt x="137" y="198" on="0"/>
        <pt x="183" y="124" on="0"/>
        <pt x="259" y="83" on="0"/>
        <pt x="304" y="83" on="1"/>
      </contour>
    </TTGlyph>
    <TTGlyph name="exclam" xMin="103" yMin="-6" xMax="230" yMax="770">
      <contour>
        <pt x="123" y="200" on="1"/>
        <pt x="103" y="770" on="1"/>
        <pt x="230" y="770" on="1"/>
        <pt x="210" y="200" on="1"/>
      </contour>
      <contour>
        <pt x="141" y="-6" on="0"/>
        <pt x="103" y="33" on="0"/>
        <pt x="103" y="59" on="1"/>
        <pt x="103" y="85" on="0"/>
        <pt x="141" y="122" on="0"/>
        <pt x="167" y="122" on="1"/>
        <pt x="193" y="122" on="0"/>
        <pt x="230" y="85" on="0"/>
        <pt x="230" y="59" on="1"/>
        <pt x="230" y="33" on="0"/>
        <pt x="192" y="-6" on="0"/>
        <pt x="167" y="-6" on="1"/>
      </contour>
    </TTGlyph>
    <TTGlyph name="exclamdown" xMin="103" yMin="-230" xMax="230" yMax="556">
      <contour>
        <pt x="141" y="428" on="0"/>
        <pt x="103" y="467" on="0"/>
        <pt x="103" y="493" on="1"/>
        <pt x="103" y="519" on="0"/>
        <pt x="141" y="556" on="0"/>
        <pt x="167" y="556" on="1"/>
        <pt x="193" y="556" on="0"/>
        <pt x="230" y="519" on="0"/>
        <pt x="230" y="493" on="1"/>
        <pt x="230" y="467" on="0"/>
        <pt x="192" y="428" on="0"/>
        <pt x="167" y="428" on="1"/>
      </contour>
      <contour>
        <pt x="123" y="340" on="1"/>
        <pt x="210" y="340" on="1"/>
        <pt x="230" y="-230" on="1"/>
        <pt x="103" y="-230" on="1"/>
      </contour>
    </TTGlyph>
    <TTGlyph name="f" xMin="20" yMin="0" xMax="416" yMax="760">
      <contour>
        <pt x="254" y="687" on="0"/>
        <pt x="208" y="636" on="0"/>
        <pt x="208" y="588" on="1"/>
        <pt x="208" y="506" on="1"/>
        <pt x="325" y="506" on="1"/>
        <pt x="325" y="432" on="1"/>
        <pt x="208" y="432" on="1"/>
        <pt x="208" y="84" on="1"/>
        <pt x="287" y="84" on="1"/>
        <pt x="287" y="0" on="1"/>
        <pt x="47" y="0" on="1"/>
        <pt x="47" y="84" on="1"/>
        <pt x="118" y="84" on="1"/>
        <pt x="118" y="432" on="1"/>
        <pt x="20" y="432" on="1"/>
        <pt x="20" y="506" on="1"/>
        <pt x="118" y="506" on="1"/>
        <pt x="118" y="585" on="1"/>
        <pt x="118" y="671" on="0"/>
        <pt x="206" y="760" on="0"/>
        <pt x="282" y="760" on="1"/>
        <pt x="360" y="760" on="0"/>
        <pt x="416" y="732" on="1"/>
        <pt x="388" y="667" on="1"/>
        <pt x="371" y="676" on="0"/>
        <pt x="321" y="687" on="0"/>
        <pt x="295" y="687" on="1"/>
      </contour>
    </TTGlyph>
    <TTGlyph name="fi" xMin="20" yMin="0" xMax="642" yMax="760">
      <contour>
        <pt x="254" y="687" on="0"/>
        <pt x="208" y="636" on="0"/>
        <pt x="208" y="588" on="1"/>
        <pt x="208" y="506" on="1"/>
        <pt x="325" y="506" on="1"/>
        <pt x="325" y="432" on="1"/>
        <pt x="208" y="432" on="1"/>
        <pt x="208" y="84" on="1"/>
        <pt x="287" y="84" on="1"/>
        <pt x="287" y="0" on="1"/>
        <pt x="47" y="0" on="1"/>
        <pt x="47" y="84" on="1"/>
        <pt x="118" y="84" on="1"/>
        <pt x="118" y="432" on="1"/>
        <pt x="20" y="432" on="1"/>
        <pt x="20" y="506" on="1"/>
        <pt x="118" y="506" on="1"/>
        <pt x="118" y="585" on="1"/>
        <pt x="118" y="671" on="0"/>
        <pt x="206" y="760" on="0"/>
        <pt x="282" y="760" on="1"/>
        <pt x="360" y="760" on="0"/>
        <pt x="416" y="732" on="1"/>
        <pt x="388" y="667" on="1"/>
        <pt x="371" y="676" on="0"/>
        <pt x="321" y="687" on="0"/>
        <pt x="295" y="687" on="1"/>
      </contour>
      <contour>
        <pt x="495" y="620" on="0"/>
        <pt x="457" y="659" on="0"/>
        <pt x="457" y="685" on="1"/>
        <pt x="457" y="711" on="0"/>
        <pt x="495" y="748" on="0"/>
        <pt x="521" y="748" on="1"/>
        <pt x="547" y="748" on="0"/>
        <pt x="584" y="711" on="0"/>
        <pt x="584" y="685" on="1"/>
        <pt x="584" y="659" on="0"/>
        <pt x="546" y="620" on="0"/>
        <pt x="521" y="620" on="1"/>
      </contour>
      <contour>
        <pt x="566" y="84" on="1"/>
        <pt x="642" y="84" on="1"/>
        <pt x="642" y="0" on="1"/>
        <pt x="402" y="0" on="1"/>
        <pt x="402" y="84" on="1"/>
        <pt x="474" y="84" on="1"/>
        <pt x="474" y="422" on="1"/>
        <pt x="401" y="422" on="1"/>
        <pt x="401" y="506" on="1"/>
        <pt x="566" y="506" on="1"/>
      </contour>
    </TTGlyph>
    <TTGlyph name="five" xMin="36" yMin="-14" xMax="526" yMax="740">
      <contour>
        <pt x="348" y="475" on="0"/>
        <pt x="462" y="409" on="0"/>
        <pt x="526" y="298" on="0"/>
        <pt x="526" y="232" on="1"/>
        <pt x="526" y="165" on="0"/>
        <pt x="462" y="53" on="0"/>
        <pt x="347" y="-14" on="0"/>
        <pt x="273" y="-14" on="1"/>
        <pt x="188" y="-14" on="0"/>
        <pt x="63" y="72" on="0"/>
        <pt x="36" y="142" on="1"/>
        <pt x="116" y="182" on="1"/>
        <pt x="132" y="131" on="0"/>
        <pt x="218" y="67" on="0"/>
        <pt x="273" y="67" on="1"/>
        <pt x="319" y="67" on="0"/>
        <pt x="394" y="111" on="0"/>
        <pt x="438" y="187" on="0"/>
        <pt x="438" y="232" on="1"/>
        <pt x="438" y="277" on="0"/>
        <pt x="394" y="351" on="0"/>
        <pt x="318" y="394" on="0"/>
        <pt x="273" y="394" on="1"/>
        <pt x="235" y="394" on="0"/>
        <pt x="168" y="367" on="0"/>
        <pt x="146" y="343" on="1"/>
        <pt x="74" y="354" on="1"/>
        <pt x="74" y="740" on="1"/>
        <pt x="491" y="740" on="1"/>
        <pt x="491" y="659" on="1"/>
        <pt x="155" y="659" on="1"/>
        <pt x="155" y="437" on="1"/>
        <pt x="183" y="456" on="0"/>
        <pt x="241" y="475" on="0"/>
        <pt x="277" y="475" on="1"/>
      </contour>
    </TTGlyph>
    <TTGlyph name="fl" xMin="20" yMin="0" xMax="554" yMax="760">
      <contour>
        <pt x="554" y="84" on="1"/>
        <pt x="554" y="0" on="1"/>
        <pt x="387" y="0" on="1"/>
        <pt x="387" y="668" on="1"/>
        <pt x="370" y="676" on="0"/>
        <pt x="320" y="687" on="0"/>
        <pt x="295" y="687" on="1"/>
        <pt x="254" y="687" on="0"/>
        <pt x="208" y="636" on="0"/>
        <pt x="208" y="588" on="1"/>
        <pt x="208" y="506" on="1"/>
        <pt x="325" y="506" on="1"/>
        <pt x="325" y="432" on="1"/>
        <pt x="208" y="432" on="1"/>
        <pt x="208" y="84" on="1"/>
        <pt x="287" y="84" on="1"/>
        <pt x="287" y="0" on="1"/>
        <pt x="47" y="0" on="1"/>
        <pt x="47" y="84" on="1"/>
        <pt x="118" y="84" on="1"/>
        <pt x="118" y="432" on="1"/>
        <pt x="20" y="432" on="1"/>
        <pt x="20" y="506" on="1"/>
        <pt x="118" y="506" on="1"/>
        <pt x="118" y="585" on="1"/>
        <pt x="118" y="671" on="0"/>
        <pt x="206" y="760" on="0"/>
        <pt x="282" y="760" on="1"/>
        <pt x="343" y="760" on="0"/>
        <pt x="387" y="744" on="1"/>
        <pt x="387" y="760" on="1"/>
        <pt x="478" y="760" on="1"/>
        <pt x="478" y="84" on="1"/>
      </contour>
    </TTGlyph>
    <TTGlyph name="four" xMin="44" yMin="0" xMax="557" yMax="740">
      <contour>
        <pt x="557" y="214" on="1"/>
        <pt x="447" y="214" on="1"/>
        <pt x="447" y="84" on="1"/>
        <pt x="520" y="84" on="1"/>
        <pt x="520" y="0" on="1"/>
        <pt x="280" y="0" on="1"/>
        <pt x="280" y="84" on="1"/>
        <pt x="351" y="84" on="1"/>
        <pt x="351" y="214" on="1"/>
        <pt x="44" y="214" on="1"/>
        <pt x="45" y="291" on="1"/>
        <pt x="308" y="740" on="1"/>
        <pt x="412" y="740" on="1"/>
        <pt x="162" y="298" on="1"/>
        <pt x="351" y="298" on="1"/>
        <pt x="351" y="420" on="1"/>
        <pt x="447" y="427" on="1"/>
        <pt x="447" y="298" on="1"/>
        <pt x="557" y="298" on="1"/>
      </contour>
    </TTGlyph>
    <TTGlyph name="fraction" xMin="30" yMin="-30" xMax="750" yMax="770">
      <contour>
        <pt x="30" y="-30" on="1"/>
        <pt x="653" y="770" on="1"/>
        <pt x="750" y="770" on="1"/>
        <pt x="127" y="-30" on="1"/>
      </contour>
    </TTGlyph>
    <TTGlyph name="g" xMin="49" yMin="-223" xMax="515" yMax="518">
      <contour>
        <pt x="515" y="506" on="1"/>
        <pt x="515" y="20" on="1"/>
        <pt x="515" y="-101" on="0"/>
        <pt x="399" y="-223" on="0"/>
        <pt x="280" y="-223" on="1"/>
        <pt x="222" y="-223" on="0"/>
        <pt x="106" y="-188" on="0"/>
        <pt x="64" y="-153" on="1"/>
        <pt x="113" y="-79" on="1"/>
        <pt x="143" y="-105" on="0"/>
        <pt x="232" y="-137" on="0"/>
        <pt x="277" y="-137" on="1"/>
        <pt x="329" y="-137" on="0"/>
        <pt x="392" y="-107" on="0"/>
        <pt x="423" y="-31" on="0"/>
        <pt x="423" y="37" on="1"/>
        <pt x="423" y="44" on="1"/>
        <pt x="371" y="-11" on="0"/>
        <pt x="290" y="-11" on="1"/>
        <pt x="221" y="-11" on="0"/>
        <pt x="111" y="53" on="0"/>
        <pt x="49" y="174" on="0"/>
        <pt x="49" y="258" on="1"/>
        <pt x="49" y="335" on="0"/>
        <pt x="110" y="453" on="0"/>
        <pt x="222" y="518" on="0"/>
        <pt x="295" y="518" on="1"/>
        <pt x="334" y="518" on="0"/>
        <pt x="395" y="500" on="0"/>
        <pt x="423" y="480" on="1"/>
        <pt x="423" y="506" on="1"/>
      </contour>
      <contour>
        <pt x="343" y="68" on="0"/>
        <pt x="405" y="97" on="0"/>
        <pt x="423" y="120" on="1"/>
        <pt x="423" y="397" on="1"/>
        <pt x="400" y="418" on="0"/>
        <pt x="335" y="438" on="0"/>
        <pt x="299" y="438" on="1"/>
        <pt x="255" y="438" on="0"/>
        <pt x="184" y="395" on="0"/>
        <pt x="143" y="314" on="0"/>
        <pt x="143" y="259" on="1"/>
        <pt x="143" y="168" on="0"/>
        <pt x="230" y="68" on="0"/>
        <pt x="302" y="68" on="1"/>
      </contour>
    </TTGlyph>
    <TTGlyph name="germandbls" xMin="8" yMin="-7" xMax="569" yMax="770">
      <contour>
        <pt x="511" y="409" on="0"/>
        <pt x="569" y="302" on="0"/>
        <pt x="569" y="237" on="1"/>
        <pt x="569" y="166" on="0"/>
        <pt x="504" y="55" on="0"/>
        <pt x="392" y="-7" on="0"/>
        <pt x="325" y="-7" on="1"/>
        <pt x="307" y="-7" on="0"/>
        <pt x="287" y="-4" on="1"/>
        <pt x="287" y="88" on="1"/>
        <pt x="309" y="83" on="0"/>
        <pt x="325" y="83" on="1"/>
        <pt x="367" y="83" on="0"/>
        <pt x="437" y="124" on="0"/>
        <pt x="478" y="195" on="0"/>
        <pt x="478" y="237" on="1"/>
        <pt x="478" y="279" on="0"/>
        <pt x="436" y="349" on="0"/>
        <pt x="366" y="390" on="0"/>
        <pt x="326" y="390" on="1"/>
        <pt x="287" y="390" on="1"/>
        <pt x="287" y="481" on="1"/>
        <pt x="325" y="481" on="1"/>
        <pt x="341" y="481" on="1"/>
        <pt x="372" y="485" on="0"/>
        <pt x="415" y="537" on="0"/>
        <pt x="415" y="566" on="1"/>
        <pt x="415" y="615" on="0"/>
        <pt x="350" y="679" on="0"/>
        <pt x="297" y="679" on="1"/>
        <pt x="250" y="679" on="0"/>
        <pt x="194" y="616" on="0"/>
        <pt x="194" y="565" on="1"/>
        <pt x="194" y="0" on="1"/>
        <pt x="8" y="0" on="1"/>
        <pt x="8" y="84" on="1"/>
        <pt x="98" y="84" on="1"/>
        <pt x="98" y="576" on="1"/>
        <pt x="98" y="623" on="0"/>
        <pt x="146" y="713" on="0"/>
        <pt x="237" y="770" on="0"/>
        <pt x="298" y="770" on="1"/>
        <pt x="357" y="770" on="0"/>
        <pt x="455" y="715" on="0"/>
        <pt x="512" y="622" on="0"/>
        <pt x="512" y="568" on="1"/>
        <pt x="512" y="493" on="0"/>
        <pt x="461" y="442" on="1"/>
      </contour>
    </TTGlyph>
    <TTGlyph name="grave" xMin="90" yMin="575" xMax="301" yMax="721">
      <contour>
        <pt x="230" y="575" on="1"/>
        <pt x="90" y="713" on="1"/>
        <pt x="90" y="721" on="1"/>
        <pt x="211" y="721" on="1"/>
        <pt x="301" y="575" on="1"/>
      </contour>
    </TTGlyph>
    <TTGlyph name="gravecomb" xMin="-301" yMin="575" xMax="-90" yMax="721">
      <component glyphName="grave" x="-391" y="0" flags="0x0"/>
    </TTGlyph>
    <TTGlyph name="greater" xMin="26" yMin="93" xMax="412" yMax="449">
      <contour>
        <pt x="26" y="449" on="1"/>
        <pt x="412" y="297" on="1"/>
        <pt x="412" y="242" on="1"/>
        <pt x="26" y="93" on="1"/>
        <pt x="26" y="162" on="1"/>
        <pt x="329" y="271" on="1"/>
        <pt x="26" y="379" on="1"/>
      </contour>
    </TTGlyph>
    <TTGlyph name="greaterequal" xMin="21" yMin="149" xMax="408" yMax="593">
      <contour>
        <pt x="22" y="593" on="1"/>
        <pt x="408" y="444" on="1"/>
        <pt x="408" y="389" on="1"/>
        <pt x="22" y="237" on="1"/>
        <pt x="22" y="306" on="1"/>
        <pt x="324" y="417" on="1"/>
        <pt x="22" y="523" on="1"/>
      </contour>
      <contour>
        <pt x="21" y="149" on="1"/>
        <pt x="21" y="218" on="1"/>
        <pt x="408" y="218" on="1"/>
        <pt x="408" y="149" on="1"/>
      </contour>
    </TTGlyph>
    <TTGlyph name="guillemotleft" xMin="50" yMin="84" xMax="458" yMax="468">
      <contour>
        <pt x="157" y="84" on="1"/>
        <pt x="50" y="276" on="1"/>
        <pt x="77" y="324" on="1"/>
        <pt x="157" y="468" on="1"/>
        <pt x="251" y="468" on="1"/>
        <pt x="139" y="276" on="1"/>
        <pt x="251" y="84" on="1"/>
      </contour>
      <contour>
        <pt x="364" y="84" on="1"/>
        <pt x="257" y="276" on="1"/>
        <pt x="284" y="324" on="1"/>
        <pt x="364" y="468" on="1"/>
        <pt x="458" y="468" on="1"/>
        <pt x="346" y="276" on="1"/>
        <pt x="458" y="84" on="1"/>
      </contour>
    </TTGlyph>
    <TTGlyph name="guillemotright" xMin="50" yMin="84" xMax="458" yMax="468">
      <contour>
        <pt x="50" y="84" on="1"/>
        <pt x="162" y="276" on="1"/>
        <pt x="50" y="468" on="1"/>
        <pt x="144" y="468" on="1"/>
        <pt x="224" y="324" on="1"/>
        <pt x="251" y="276" on="1"/>
        <pt x="144" y="84" on="1"/>
      </contour>
      <contour>
        <pt x="257" y="84" on="1"/>
        <pt x="369" y="276" on="1"/>
        <pt x="257" y="468" on="1"/>
        <pt x="351" y="468" on="1"/>
        <pt x="431" y="324" on="1"/>
        <pt x="458" y="276" on="1"/>
        <pt x="351" y="84" on="1"/>
      </contour>
    </TTGlyph>
    <TTGlyph name="guilsinglleft" xMin="50" yMin="84" xMax="251" yMax="468">
      <contour>
        <pt x="157" y="84" on="1"/>
        <pt x="50" y="276" on="1"/>
        <pt x="77" y="324" on="1"/>
        <pt x="157" y="468" on="1"/>
        <pt x="251" y="468" on="1"/>
        <pt x="139" y="276" on="1"/>
        <pt x="251" y="84" on="1"/>
      </contour>
    </TTGlyph>
    <TTGlyph name="guilsinglright" xMin="50" yMin="84" xMax="251" yMax="468">
      <contour>
        <pt x="50" y="84" on="1"/>
        <pt x="162" y="276" on="1"/>
        <pt x="50" y="468" on="1"/>
        <pt x="144" y="468" on="1"/>
        <pt x="224" y="324" on="1"/>
        <pt x="251" y="276" on="1"/>
        <pt x="144" y="84" on="1"/>
      </contour>
    </TTGlyph>
    <TTGlyph name="h" xMin="45" yMin="0" xMax="621" yMax="760">
      <contour>
        <pt x="621" y="84" on="1"/>
        <pt x="621" y="0" on="1"/>
        <pt x="381" y="0" on="1"/>
        <pt x="381" y="84" on="1"/>
        <pt x="450" y="84" on="1"/>
        <pt x="450" y="315" on="1"/>
        <pt x="450" y="372" on="0"/>
        <pt x="391" y="433" on="0"/>
        <pt x="336" y="433" on="1"/>
        <pt x="307" y="433" on="0"/>
        <pt x="242" y="405" on="0"/>
        <pt x="212" y="381" on="1"/>
        <pt x="212" y="84" on="1"/>
        <pt x="285" y="84" on="1"/>
        <pt x="285" y="0" on="1"/>
        <pt x="45" y="0" on="1"/>
        <pt x="45" y="84" on="1"/>
        <pt x="121" y="84" on="1"/>
        <pt x="121" y="676" on="1"/>
        <pt x="52" y="676" on="1"/>
        <pt x="52" y="760" on="1"/>
        <pt x="212" y="760" on="1"/>
        <pt x="212" y="450" on="1"/>
        <pt x="289" y="515" on="0"/>
        <pt x="368" y="515" on="1"/>
        <pt x="452" y="515" on="0"/>
        <pt x="545" y="421" on="0"/>
        <pt x="545" y="326" on="1"/>
        <pt x="545" y="84" on="1"/>
      </contour>
    </TTGlyph>
    <TTGlyph name="hungarumlaut" xMin="250" yMin="725" xMax="573" yMax="931">
      <contour>
        <pt x="298" y="725" on="1"/>
        <pt x="250" y="747" on="1"/>
        <pt x="364" y="931" on="1"/>
        <pt x="416" y="908" on="1"/>
      </contour>
      <contour>
        <pt x="453" y="725" on="1"/>
        <pt x="405" y="747" on="1"/>
        <pt x="521" y="931" on="1"/>
        <pt x="573" y="908" on="1"/>
      </contour>
    </TTGlyph>
    <TTGlyph name="hyphen" xMin="46" yMin="242" xMax="315" yMax="326">
      <contour>
        <pt x="46" y="242" on="1"/>
        <pt x="46" y="326" on="1"/>
        <pt x="315" y="326" on="1"/>
        <pt x="315" y="242" on="1"/>
      </contour>
    </TTGlyph>
    <TTGlyph name="i" xMin="45" yMin="0" xMax="286" yMax="748">
      <contour>
        <pt x="139" y="620" on="0"/>
        <pt x="101" y="659" on="0"/>
        <pt x="101" y="685" on="1"/>
        <pt x="101" y="711" on="0"/>
        <pt x="139" y="748" on="0"/>
        <pt x="165" y="748" on="1"/>
        <pt x="191" y="748" on="0"/>
        <pt x="228" y="711" on="0"/>
        <pt x="228" y="685" on="1"/>
        <pt x="228" y="659" on="0"/>
        <pt x="190" y="620" on="0"/>
        <pt x="165" y="620" on="1"/>
      </contour>
      <contour>
        <pt x="210" y="84" on="1"/>
        <pt x="286" y="84" on="1"/>
        <pt x="286" y="0" on="1"/>
        <pt x="46" y="0" on="1"/>
        <pt x="46" y="84" on="1"/>
        <pt x="118" y="84" on="1"/>
        <pt x="118" y="422" on="1"/>
        <pt x="45" y="422" on="1"/>
        <pt x="45" y="506" on="1"/>
        <pt x="210" y="506" on="1"/>
      </contour>
    </TTGlyph>
    <TTGlyph name="iacute" xMin="29" yMin="0" xMax="302" yMax="721">
      <contour>
        <pt x="185" y="721" on="1"/>
        <pt x="302" y="721" on="1"/>
        <pt x="302" y="713" on="1"/>
        <pt x="156" y="575" on="1"/>
        <pt x="81" y="575" on="1"/>
      </contour>
      <contour>
        <pt x="194" y="506" on="1"/>
        <pt x="194" y="84" on="1"/>
        <pt x="270" y="84" on="1"/>
        <pt x="270" y="0" on="1"/>
        <pt x="30" y="0" on="1"/>
        <pt x="30" y="84" on="1"/>
        <pt x="102" y="84" on="1"/>
        <pt x="102" y="422" on="1"/>
        <pt x="29" y="422" on="1"/>
        <pt x="29" y="506" on="1"/>
      </contour>
    </TTGlyph>
    <TTGlyph name="icircumflex" xMin="23" yMin="0" xMax="299" yMax="727">
      <contour>
        <pt x="161" y="650" on="1"/>
        <pt x="95" y="574" on="1"/>
        <pt x="23" y="574" on="1"/>
        <pt x="145" y="727" on="1"/>
        <pt x="176" y="727" on="1"/>
        <pt x="299" y="574" on="1"/>
        <pt x="226" y="574" on="1"/>
      </contour>
      <contour>
        <pt x="194" y="506" on="1"/>
        <pt x="194" y="84" on="1"/>
        <pt x="270" y="84" on="1"/>
        <pt x="270" y="0" on="1"/>
        <pt x="30" y="0" on="1"/>
        <pt x="30" y="84" on="1"/>
        <pt x="102" y="84" on="1"/>
        <pt x="102" y="422" on="1"/>
        <pt x="29" y="422" on="1"/>
        <pt x="29" y="506" on="1"/>
      </contour>
    </TTGlyph>
    <TTGlyph name="idieresis" xMin="-25" yMin="0" xMax="323" yMax="727">
      <component glyphName="dotlessi" x="0" y="0" flags="0x0"/>
      <component glyphName="uni0308" x="423" y="0" flags="0x0"/>
    </TTGlyph>
    <TTGlyph name="igrave" xMin="-26" yMin="0" xMax="270" yMax="721">
      <contour>
        <pt x="185" y="575" on="1"/>
        <pt x="114" y="575" on="1"/>
        <pt x="-26" y="713" on="1"/>
        <pt x="-26" y="721" on="1"/>
        <pt x="95" y="721" on="1"/>
      </contour>
      <contour>
        <pt x="194" y="84" on="1"/>
        <pt x="270" y="84" on="1"/>
        <pt x="270" y="0" on="1"/>
        <pt x="30" y="0" on="1"/>
        <pt x="30" y="84" on="1"/>
        <pt x="102" y="84" on="1"/>
        <pt x="102" y="422" on="1"/>
        <pt x="29" y="422" on="1"/>
        <pt x="29" y="506" on="1"/>
        <pt x="194" y="506" on="1"/>
      </contour>
    </TTGlyph>
    <TTGlyph name="infinity" xMin="60" yMin="182" xMax="832" yMax="593">
      <contour>
        <pt x="688" y="593" on="0"/>
        <pt x="779" y="537" on="0"/>
        <pt x="832" y="443" on="0"/>
        <pt x="832" y="387" on="1"/>
        <pt x="832" y="332" on="0"/>
        <pt x="779" y="237" on="0"/>
        <pt x="688" y="182" on="0"/>
        <pt x="633" y="182" on="1"/>
        <pt x="514" y="182" on="0"/>
        <pt x="446" y="305" on="1"/>
        <pt x="374" y="182" on="0"/>
        <pt x="261" y="182" on="1"/>
        <pt x="205" y="182" on="0"/>
        <pt x="113" y="237" on="0"/>
        <pt x="60" y="331" on="0"/>
        <pt x="60" y="387" on="1"/>
        <pt x="60" y="444" on="0"/>
        <pt x="113" y="538" on="0"/>
        <pt x="205" y="593" on="0"/>
        <pt x="261" y="593" on="1"/>
        <pt x="379" y="593" on="0"/>
        <pt x="448" y="476" on="1"/>
        <pt x="523" y="593" on="0"/>
        <pt x="633" y="593" on="1"/>
      </contour>
      <contour>
        <pt x="313" y="261" on="0"/>
        <pt x="385" y="330" on="0"/>
        <pt x="405" y="387" on="1"/>
        <pt x="408" y="394" on="1"/>
        <pt x="391" y="444" on="0"/>
        <pt x="310" y="514" on="0"/>
        <pt x="262" y="514" on="1"/>
        <pt x="211" y="514" on="0"/>
        <pt x="140" y="441" on="0"/>
        <pt x="140" y="387" on="1"/>
        <pt x="140" y="353" on="0"/>
        <pt x="173" y="295" on="0"/>
        <pt x="229" y="261" on="0"/>
        <pt x="262" y="261" on="1"/>
      </contour>
      <contour>
        <pt x="661" y="261" on="0"/>
        <pt x="718" y="295" on="0"/>
        <pt x="751" y="353" on="0"/>
        <pt x="751" y="387" on="1"/>
        <pt x="751" y="441" on="0"/>
        <pt x="679" y="514" on="0"/>
        <pt x="628" y="514" on="1"/>
        <pt x="578" y="514" on="0"/>
        <pt x="505" y="447" on="0"/>
        <pt x="485" y="392" on="1"/>
        <pt x="486" y="391" on="0"/>
        <pt x="486" y="388" on="0"/>
        <pt x="487" y="387" on="1"/>
        <pt x="506" y="330" on="0"/>
        <pt x="578" y="261" on="0"/>
        <pt x="628" y="261" on="1"/>
      </contour>
    </TTGlyph>
    <TTGlyph name="integral" xMin="-90" yMin="-231" xMax="416" yMax="770">
      <contour>
        <pt x="360" y="770" on="0"/>
        <pt x="416" y="742" on="1"/>
        <pt x="388" y="677" on="1"/>
        <pt x="371" y="686" on="0"/>
        <pt x="321" y="697" on="0"/>
        <pt x="295" y="697" on="1"/>
        <pt x="254" y="697" on="0"/>
        <pt x="208" y="646" on="0"/>
        <pt x="208" y="598" on="1"/>
        <pt x="208" y="-56" on="1"/>
        <pt x="208" y="-142" on="0"/>
        <pt x="120" y="-231" on="0"/>
        <pt x="44" y="-231" on="1"/>
        <pt x="-34" y="-231" on="0"/>
        <pt x="-90" y="-203" on="1"/>
        <pt x="-62" y="-138" on="1"/>
        <pt x="-45" y="-147" on="0"/>
        <pt x="5" y="-158" on="0"/>
        <pt x="31" y="-158" on="1"/>
        <pt x="72" y="-158" on="0"/>
        <pt x="118" y="-107" on="0"/>
        <pt x="118" y="-59" on="1"/>
        <pt x="118" y="595" on="1"/>
        <pt x="118" y="681" on="0"/>
        <pt x="206" y="770" on="0"/>
        <pt x="282" y="770" on="1"/>
      </contour>
    </TTGlyph>
    <TTGlyph name="iogonek" xMin="-48" yMin="-230" xMax="270" yMax="506">
      <contour>
        <pt x="270" y="84" on="1"/>
        <pt x="270" y="0" on="1"/>
        <pt x="207" y="0" on="1"/>
        <pt x="148" y="0" on="0"/>
        <pt x="117" y="-11" on="1"/>
        <pt x="80" y="-26" on="0"/>
        <pt x="37" y="-76" on="0"/>
        <pt x="37" y="-105" on="1"/>
        <pt x="37" y="-129" on="0"/>
        <pt x="71" y="-158" on="0"/>
        <pt x="102" y="-158" on="1"/>
        <pt x="142" y="-158" on="0"/>
        <pt x="172" y="-144" on="1"/>
        <pt x="193" y="-206" on="1"/>
        <pt x="152" y="-230" on="0"/>
        <pt x="89" y="-230" on="1"/>
        <pt x="30" y="-230" on="0"/>
        <pt x="-48" y="-172" on="0"/>
        <pt x="-48" y="-119" on="1"/>
        <pt x="-48" y="-81" on="0"/>
        <pt x="-5" y="-17" on="0"/>
        <pt x="30" y="7" on="1"/>
        <pt x="30" y="84" on="1"/>
        <pt x="102" y="84" on="1"/>
        <pt x="102" y="422" on="1"/>
        <pt x="29" y="422" on="1"/>
        <pt x="29" y="506" on="1"/>
        <pt x="194" y="506" on="1"/>
        <pt x="194" y="84" on="1"/>
      </contour>
    </TTGlyph>
    <TTGlyph name="j" xMin="30" yMin="-230" xMax="217" yMax="742">
      <contour>
        <pt x="135" y="626" on="0"/>
        <pt x="101" y="661" on="0"/>
        <pt x="101" y="685" on="1"/>
        <pt x="101" y="708" on="0"/>
        <pt x="135" y="742" on="0"/>
        <pt x="159" y="742" on="1"/>
        <pt x="183" y="742" on="0"/>
        <pt x="217" y="708" on="0"/>
        <pt x="217" y="685" on="1"/>
        <pt x="217" y="661" on="0"/>
        <pt x="183" y="626" on="0"/>
        <pt x="159" y="626" on="1"/>
      </contour>
      <contour>
        <pt x="205" y="-39" on="1"/>
        <pt x="205" y="-126" on="0"/>
        <pt x="117" y="-228" on="0"/>
        <pt x="39" y="-230" on="1"/>
        <pt x="30" y="-162" on="1"/>
        <pt x="113" y="-151" on="0"/>
        <pt x="113" y="-29" on="1"/>
        <pt x="113" y="422" on="1"/>
        <pt x="41" y="422" on="1"/>
        <pt x="41" y="506" on="1"/>
        <pt x="205" y="506" on="1"/>
      </contour>
    </TTGlyph>
    <TTGlyph name="k" xMin="45" yMin="0" xMax="603" yMax="760">
      <contour>
        <pt x="542" y="84" on="1"/>
        <pt x="603" y="84" on="1"/>
        <pt x="603" y="0" on="1"/>
        <pt x="496" y="0" on="1"/>
        <pt x="289" y="226" on="1"/>
        <pt x="222" y="226" on="1"/>
        <pt x="222" y="84" on="1"/>
        <pt x="264" y="84" on="1"/>
        <pt x="264" y="0" on="1"/>
        <pt x="48" y="0" on="1"/>
        <pt x="48" y="84" on="1"/>
        <pt x="131" y="84" on="1"/>
        <pt x="131" y="676" on="1"/>
        <pt x="45" y="676" on="1"/>
        <pt x="45" y="760" on="1"/>
        <pt x="223" y="760" on="1"/>
        <pt x="223" y="676" on="1"/>
        <pt x="222" y="676" on="1"/>
        <pt x="222" y="298" on="1"/>
        <pt x="310" y="298" on="1"/>
        <pt x="431" y="422" on="1"/>
        <pt x="400" y="422" on="1"/>
        <pt x="400" y="506" on="1"/>
        <pt x="592" y="506" on="1"/>
        <pt x="592" y="422" on="1"/>
        <pt x="528" y="422" on="1"/>
        <pt x="374" y="263" on="1"/>
      </contour>
    </TTGlyph>
    <TTGlyph name="l" xMin="45" yMin="0" xMax="285" yMax="760">
      <contour>
        <pt x="209" y="84" on="1"/>
        <pt x="285" y="84" on="1"/>
        <pt x="285" y="0" on="1"/>
        <pt x="45" y="0" on="1"/>
        <pt x="45" y="84" on="1"/>
        <pt x="118" y="84" on="1"/>
        <pt x="118" y="676" on="1"/>
        <pt x="45" y="676" on="1"/>
        <pt x="45" y="760" on="1"/>
        <pt x="209" y="760" on="1"/>
      </contour>
    </TTGlyph>
    <TTGlyph name="less" xMin="5" yMin="93" xMax="391" yMax="449">
      <contour>
        <pt x="391" y="449" on="1"/>
        <pt x="391" y="379" on="1"/>
        <pt x="89" y="273" on="1"/>
        <pt x="391" y="162" on="1"/>
        <pt x="391" y="93" on="1"/>
        <pt x="5" y="245" on="1"/>
        <pt x="5" y="300" on="1"/>
      </contour>
    </TTGlyph>
    <TTGlyph name="lessequal" xMin="5" yMin="149" xMax="391" yMax="593">
      <contour>
        <pt x="391" y="593" on="1"/>
        <pt x="391" y="523" on="1"/>
        <pt x="89" y="417" on="1"/>
        <pt x="391" y="306" on="1"/>
        <pt x="391" y="237" on="1"/>
        <pt x="5" y="389" on="1"/>
        <pt x="5" y="444" on="1"/>
      </contour>
      <contour>
        <pt x="5" y="149" on="1"/>
        <pt x="5" y="218" on="1"/>
        <pt x="371" y="218" on="1"/>
        <pt x="371" y="149" on="1"/>
      </contour>
    </TTGlyph>
    <TTGlyph name="logicalnot" xMin="24" yMin="211" xMax="558" yMax="488">
      <contour>
        <pt x="469" y="211" on="1"/>
        <pt x="469" y="398" on="1"/>
        <pt x="24" y="398" on="1"/>
        <pt x="24" y="488" on="1"/>
        <pt x="558" y="488" on="1"/>
        <pt x="558" y="211" on="1"/>
      </contour>
    </TTGlyph>
    <TTGlyph name="lozenge" xMin="50" yMin="0" xMax="527" yMax="763">
      <contour>
        <pt x="313" y="763" on="1"/>
        <pt x="527" y="386" on="1"/>
        <pt x="308" y="0" on="1"/>
        <pt x="262" y="0" on="1"/>
        <pt x="50" y="387" on="1"/>
        <pt x="264" y="763" on="1"/>
      </contour>
      <contour>
        <pt x="286" y="117" on="1"/>
        <pt x="434" y="384" on="1"/>
        <pt x="286" y="648" on="1"/>
        <pt x="142" y="386" on="1"/>
      </contour>
    </TTGlyph>
    <TTGlyph name="lslash" xMin="45" yMin="0" xMax="288" yMax="760">
      <contour>
        <pt x="288" y="412" on="1"/>
        <pt x="209" y="339" on="1"/>
        <pt x="209" y="84" on="1"/>
        <pt x="285" y="84" on="1"/>
        <pt x="285" y="0" on="1"/>
        <pt x="45" y="0" on="1"/>
        <pt x="45" y="84" on="1"/>
        <pt x="118" y="84" on="1"/>
        <pt x="118" y="255" on="1"/>
        <pt x="46" y="188" on="1"/>
        <pt x="46" y="309" on="1"/>
        <pt x="118" y="376" on="1"/>
        <pt x="118" y="676" on="1"/>
        <pt x="45" y="676" on="1"/>
        <pt x="45" y="760" on="1"/>
        <pt x="209" y="760" on="1"/>
        <pt x="209" y="460" on="1"/>
        <pt x="288" y="533" on="1"/>
      </contour>
    </TTGlyph>
    <TTGlyph name="m" xMin="45" yMin="0" xMax="956" yMax="515">
      <contour>
        <pt x="956" y="84" on="1"/>
        <pt x="956" y="0" on="1"/>
        <pt x="716" y="0" on="1"/>
        <pt x="716" y="84" on="1"/>
        <pt x="788" y="84" on="1"/>
        <pt x="788" y="315" on="1"/>
        <pt x="788" y="372" on="0"/>
        <pt x="729" y="433" on="0"/>
        <pt x="674" y="433" on="1"/>
        <pt x="614" y="433" on="0"/>
        <pt x="544" y="377" on="1"/>
        <pt x="548" y="356" on="0"/>
        <pt x="548" y="326" on="1"/>
        <pt x="548" y="84" on="1"/>
        <pt x="621" y="84" on="1"/>
        <pt x="621" y="0" on="1"/>
        <pt x="381" y="0" on="1"/>
        <pt x="381" y="84" on="1"/>
        <pt x="453" y="84" on="1"/>
        <pt x="453" y="315" on="1"/>
        <pt x="453" y="372" on="0"/>
        <pt x="394" y="433" on="0"/>
        <pt x="339" y="433" on="1"/>
        <pt x="281" y="433" on="0"/>
        <pt x="214" y="380" on="1"/>
        <pt x="214" y="84" on="1"/>
        <pt x="286" y="84" on="1"/>
        <pt x="286" y="0" on="1"/>
        <pt x="46" y="0" on="1"/>
        <pt x="46" y="84" on="1"/>
        <pt x="119" y="84" on="1"/>
        <pt x="119" y="422" on="1"/>
        <pt x="45" y="422" on="1"/>
        <pt x="45" y="506" on="1"/>
        <pt x="211" y="506" on="1"/>
        <pt x="211" y="447" on="1"/>
        <pt x="292" y="515" on="0"/>
        <pt x="371" y="515" on="1"/>
        <pt x="486" y="515" on="0"/>
        <pt x="527" y="432" on="1"/>
        <pt x="569" y="470" on="0"/>
        <pt x="657" y="515" on="0"/>
        <pt x="706" y="515" on="1"/>
        <pt x="790" y="515" on="0"/>
        <pt x="883" y="421" on="0"/>
        <pt x="883" y="326" on="1"/>
        <pt x="883" y="84" on="1"/>
      </contour>
    </TTGlyph>
    <TTGlyph name="macron" xMin="19" yMin="600" xMax="389" yMax="657">
      <contour>
        <pt x="19" y="600" on="1"/>
        <pt x="19" y="657" on="1"/>
        <pt x="389" y="657" on="1"/>
        <pt x="389" y="600" on="1"/>
      </contour>
    </TTGlyph>
    <TTGlyph name="minus" xMin="0" yMin="237" xMax="500" yMax="316">
      <contour>
        <pt x="0" y="237" on="1"/>
        <pt x="0" y="316" on="1"/>
        <pt x="500" y="316" on="1"/>
        <pt x="500" y="237" on="1"/>
      </contour>
    </TTGlyph>
    <TTGlyph name="multiply" xMin="65" yMin="47" xMax="564" yMax="609">
      <contour>
        <pt x="564" y="108" on="1"/>
        <pt x="490" y="50" on="1"/>
        <pt x="319" y="255" on="1"/>
        <pt x="146" y="47" on="1"/>
        <pt x="65" y="101" on="1"/>
        <pt x="257" y="330" on="1"/>
        <pt x="74" y="549" on="1"/>
        <pt x="145" y="609" on="1"/>
        <pt x="317" y="403" on="1"/>
        <pt x="484" y="602" on="1"/>
        <pt x="562" y="546" on="1"/>
        <pt x="380" y="328" on="1"/>
      </contour>
    </TTGlyph>
    <TTGlyph name="n" xMin="45" yMin="0" xMax="620" yMax="515">
      <contour>
        <pt x="620" y="84" on="1"/>
        <pt x="620" y="0" on="1"/>
        <pt x="380" y="0" on="1"/>
        <pt x="380" y="84" on="1"/>
        <pt x="453" y="84" on="1"/>
        <pt x="453" y="315" on="1"/>
        <pt x="453" y="372" on="0"/>
        <pt x="394" y="433" on="0"/>
        <pt x="339" y="433" on="1"/>
        <pt x="281" y="433" on="0"/>
        <pt x="214" y="380" on="1"/>
        <pt x="214" y="84" on="1"/>
        <pt x="286" y="84" on="1"/>
        <pt x="286" y="0" on="1"/>
        <pt x="46" y="0" on="1"/>
        <pt x="46" y="84" on="1"/>
        <pt x="119" y="84" on="1"/>
        <pt x="119" y="422" on="1"/>
        <pt x="45" y="422" on="1"/>
        <pt x="45" y="506" on="1"/>
        <pt x="211" y="506" on="1"/>
        <pt x="211" y="447" on="1"/>
        <pt x="292" y="515" on="0"/>
        <pt x="371" y="515" on="1"/>
        <pt x="455" y="515" on="0"/>
        <pt x="548" y="421" on="0"/>
        <pt x="548" y="326" on="1"/>
        <pt x="548" y="84" on="1"/>
      </contour>
    </TTGlyph>
    <TTGlyph name="nine" xMin="46" yMin="-1" xMax="562" yMax="746">
      <contour>
        <pt x="373" y="746" on="0"/>
        <pt x="491" y="683" on="0"/>
        <pt x="562" y="570" on="0"/>
        <pt x="562" y="498" on="1"/>
        <pt x="562" y="458" on="0"/>
        <pt x="533" y="379" on="0"/>
        <pt x="505" y="325" on="1"/>
        <pt x="325" y="-1" on="1"/>
        <pt x="211" y="-1" on="1"/>
        <pt x="376" y="273" on="1"/>
        <pt x="350" y="261" on="0"/>
        <pt x="308" y="256" on="0"/>
        <pt x="279" y="256" on="1"/>
        <pt x="219" y="256" on="0"/>
        <pt x="111" y="315" on="0"/>
        <pt x="46" y="421" on="0"/>
        <pt x="46" y="486" on="1"/>
        <pt x="46" y="566" on="0"/>
        <pt x="116" y="684" on="0"/>
        <pt x="235" y="746" on="0"/>
        <pt x="306" y="746" on="1"/>
      </contour>
      <contour>
        <pt x="471" y="457" on="0"/>
        <pt x="471" y="499" on="1"/>
        <pt x="471" y="574" on="0"/>
        <pt x="377" y="661" on="0"/>
        <pt x="304" y="661" on="1"/>
        <pt x="259" y="661" on="0"/>
        <pt x="183" y="620" on="0"/>
        <pt x="137" y="546" on="0"/>
        <pt x="137" y="499" on="1"/>
        <pt x="137" y="447" on="0"/>
        <pt x="186" y="374" on="0"/>
        <pt x="268" y="336" on="0"/>
        <pt x="317" y="336" on="1"/>
        <pt x="409" y="336" on="0"/>
        <pt x="458" y="418" on="1"/>
      </contour>
    </TTGlyph>
    <TTGlyph name="notequal" xMin="42" yMin="68" xMax="408" yMax="512">
      <contour>
        <pt x="408" y="314" on="1"/>
        <pt x="272" y="314" on="1"/>
        <pt x="236" y="218" on="1"/>
        <pt x="408" y="218" on="1"/>
        <pt x="408" y="149" on="1"/>
        <pt x="210" y="149" on="1"/>
        <pt x="180" y="68" on="1"/>
        <pt x="108" y="68" on="1"/>
        <pt x="138" y="149" on="1"/>
        <pt x="42" y="149" on="1"/>
        <pt x="42" y="218" on="1"/>
        <pt x="164" y="218" on="1"/>
        <pt x="200" y="314" on="1"/>
        <pt x="42" y="314" on="1"/>
        <pt x="42" y="383" on="1"/>
        <pt x="226" y="383" on="1"/>
        <pt x="274" y="512" on="1"/>
        <pt x="346" y="512" on="1"/>
        <pt x="298" y="383" on="1"/>
        <pt x="408" y="383" on="1"/>
      </contour>
    </TTGlyph>
    <TTGlyph name="ntilde" xMin="35" yMin="0" xMax="621" yMax="706">
      <contour>
        <pt x="180" y="638" on="0"/>
        <pt x="153" y="624" on="0"/>
        <pt x="146" y="600" on="1"/>
        <pt x="93" y="626" on="1"/>
        <pt x="105" y="668" on="0"/>
        <pt x="165" y="706" on="0"/>
        <pt x="203" y="706" on="1"/>
        <pt x="226" y="706" on="0"/>
        <pt x="260" y="692" on="0"/>
        <pt x="282" y="678" on="1"/>
        <pt x="300" y="666" on="0"/>
        <pt x="327" y="655" on="0"/>
        <pt x="343" y="655" on="1"/>
        <pt x="358" y="655" on="0"/>
        <pt x="383" y="675" on="0"/>
        <pt x="387" y="694" on="1"/>
        <pt x="445" y="677" on="1"/>
        <pt x="435" y="636" on="0"/>
        <pt x="379" y="590" on="0"/>
        <pt x="339" y="590" on="1"/>
        <pt x="312" y="590" on="0"/>
        <pt x="273" y="605" on="0"/>
        <pt x="250" y="619" on="1"/>
        <pt x="233" y="629" on="0"/>
        <pt x="212" y="638" on="0"/>
        <pt x="199" y="638" on="1"/>
      </contour>
      <contour>
        <pt x="621" y="84" on="1"/>
        <pt x="621" y="0" on="1"/>
        <pt x="381" y="0" on="1"/>
        <pt x="381" y="84" on="1"/>
        <pt x="443" y="84" on="1"/>
        <pt x="443" y="315" on="1"/>
        <pt x="443" y="372" on="0"/>
        <pt x="384" y="433" on="0"/>
        <pt x="329" y="433" on="1"/>
        <pt x="271" y="433" on="0"/>
        <pt x="204" y="380" on="1"/>
        <pt x="204" y="84" on="1"/>
        <pt x="276" y="84" on="1"/>
        <pt x="276" y="0" on="1"/>
        <pt x="36" y="0" on="1"/>
        <pt x="36" y="84" on="1"/>
        <pt x="109" y="84" on="1"/>
        <pt x="109" y="422" on="1"/>
        <pt x="35" y="422" on="1"/>
        <pt x="35" y="506" on="1"/>
        <pt x="201" y="506" on="1"/>
        <pt x="201" y="447" on="1"/>
        <pt x="282" y="515" on="0"/>
        <pt x="361" y="515" on="1"/>
        <pt x="445" y="515" on="0"/>
        <pt x="538" y="421" on="0"/>
        <pt x="538" y="326" on="1"/>
        <pt x="538" y="84" on="1"/>
      </contour>
    </TTGlyph>
    <TTGlyph name="numbersign" xMin="10" yMin="0" xMax="675" yMax="740">
      <contour>
        <pt x="656" y="488" on="1"/>
        <pt x="546" y="488" on="1"/>
        <pt x="506" y="285" on="1"/>
        <pt x="623" y="285" on="1"/>
        <pt x="605" y="190" on="1"/>
        <pt x="488" y="190" on="1"/>
        <pt x="451" y="0" on="1"/>
        <pt x="357" y="0" on="1"/>
        <pt x="394" y="190" on="1"/>
        <pt x="223" y="190" on="1"/>
        <pt x="186" y="0" on="1"/>
        <pt x="90" y="0" on="1"/>
        <pt x="128" y="190" on="1"/>
        <pt x="10" y="190" on="1"/>
        <pt x="30" y="285" on="1"/>
        <pt x="147" y="285" on="1"/>
        <pt x="187" y="488" on="1"/>
        <pt x="63" y="488" on="1"/>
        <pt x="83" y="585" on="1"/>
        <pt x="206" y="585" on="1"/>
        <pt x="237" y="740" on="1"/>
        <pt x="330" y="740" on="1"/>
        <pt x="300" y="585" on="1"/>
        <pt x="472" y="585" on="1"/>
        <pt x="502" y="740" on="1"/>
        <pt x="595" y="740" on="1"/>
        <pt x="565" y="585" on="1"/>
        <pt x="675" y="585" on="1"/>
      </contour>
      <contour>
        <pt x="413" y="285" on="1"/>
        <pt x="453" y="488" on="1"/>
        <pt x="281" y="488" on="1"/>
        <pt x="241" y="285" on="1"/>
      </contour>
    </TTGlyph>
    <TTGlyph name="o" xMin="45" yMin="-15" xMax="550" yMax="521">
      <contour>
        <pt x="222" y="-15" on="0"/>
        <pt x="108" y="52" on="0"/>
        <pt x="45" y="174" on="0"/>
        <pt x="45" y="253" on="1"/>
        <pt x="45" y="332" on="0"/>
        <pt x="109" y="453" on="0"/>
        <pt x="223" y="521" on="0"/>
        <pt x="297" y="521" on="1"/>
        <pt x="371" y="521" on="0"/>
        <pt x="486" y="454" on="0"/>
        <pt x="550" y="333" on="0"/>
        <pt x="550" y="254" on="1"/>
        <pt x="550" y="174" on="0"/>
        <pt x="488" y="52" on="0"/>
        <pt x="373" y="-15" on="0"/>
        <pt x="297" y="-15" on="1"/>
      </contour>
      <contour>
        <pt x="342" y="64" on="0"/>
        <pt x="414" y="110" on="0"/>
        <pt x="456" y="196" on="0"/>
        <pt x="456" y="253" on="1"/>
        <pt x="456" y="343" on="0"/>
        <pt x="367" y="443" on="0"/>
        <pt x="297" y="443" on="1"/>
        <pt x="253" y="443" on="0"/>
        <pt x="181" y="398" on="0"/>
        <pt x="139" y="313" on="0"/>
        <pt x="139" y="253" on="1"/>
        <pt x="139" y="197" on="0"/>
        <pt x="182" y="111" on="0"/>
        <pt x="254" y="64" on="0"/>
        <pt x="297" y="64" on="1"/>
      </contour>
    </TTGlyph>
    <TTGlyph name="oacute" xMin="45" yMin="-15" xMax="550" yMax="721">
      <component glyphName="o" x="0" y="0" flags="0x0"/>
      <component glyphName="acute" x="188" y="0" flags="0x0"/>
    </TTGlyph>
    <TTGlyph name="ocircumflex" xMin="45" yMin="-15" xMax="550" yMax="727">
      <component glyphName="o" x="0" y="0" flags="0x0"/>
      <component glyphName="circumflex" x="65" y="0" flags="0x0"/>
    </TTGlyph>
    <TTGlyph name="odieresis" xMin="45" yMin="-15" xMax="550" yMax="727">
      <component glyphName="o" x="0" y="0" flags="0x0"/>
      <component glyphName="uni0308" x="571" y="0" flags="0x0"/>
    </TTGlyph>
    <TTGlyph name="oe" xMin="45" yMin="-15" xMax="914" yMax="521">
      <contour>
        <pt x="787" y="70" on="0"/>
        <pt x="865" y="115" on="1"/>
        <pt x="902" y="53" on="1"/>
        <pt x="804" y="-14" on="0"/>
        <pt x="697" y="-14" on="1"/>
        <pt x="634" y="-14" on="0"/>
        <pt x="533" y="37" on="0"/>
        <pt x="503" y="86" on="1"/>
        <pt x="470" y="38" on="0"/>
        <pt x="364" y="-15" on="0"/>
        <pt x="297" y="-15" on="1"/>
        <pt x="222" y="-15" on="0"/>
        <pt x="108" y="52" on="0"/>
        <pt x="45" y="174" on="0"/>
        <pt x="45" y="253" on="1"/>
        <pt x="45" y="332" on="0"/>
        <pt x="109" y="453" on="0"/>
        <pt x="223" y="521" on="0"/>
        <pt x="297" y="521" on="1"/>
        <pt x="363" y="521" on="0"/>
        <pt x="470" y="467" on="0"/>
        <pt x="503" y="418" on="1"/>
        <pt x="533" y="466" on="0"/>
        <pt x="632" y="519" on="0"/>
        <pt x="698" y="519" on="1"/>
        <pt x="884" y="519" on="0"/>
        <pt x="910" y="316" on="1"/>
        <pt x="914" y="283" on="0"/>
        <pt x="914" y="241" on="1"/>
        <pt x="550" y="241" on="1"/>
        <pt x="550" y="200" on="0"/>
        <pt x="562" y="168" on="1"/>
        <pt x="580" y="120" on="0"/>
        <pt x="658" y="70" on="0"/>
        <pt x="710" y="70" on="1"/>
      </contour>
      <contour>
        <pt x="342" y="64" on="0"/>
        <pt x="414" y="110" on="0"/>
        <pt x="456" y="196" on="0"/>
        <pt x="456" y="253" on="1"/>
        <pt x="456" y="343" on="0"/>
        <pt x="367" y="443" on="0"/>
        <pt x="297" y="443" on="1"/>
        <pt x="253" y="443" on="0"/>
        <pt x="181" y="398" on="0"/>
        <pt x="139" y="313" on="0"/>
        <pt x="139" y="253" on="1"/>
        <pt x="139" y="197" on="0"/>
        <pt x="182" y="111" on="0"/>
        <pt x="254" y="64" on="0"/>
        <pt x="297" y="64" on="1"/>
      </contour>
      <contour>
        <pt x="576" y="443" on="0"/>
        <pt x="555" y="312" on="1"/>
        <pt x="817" y="312" on="1"/>
        <pt x="808" y="443" on="0"/>
        <pt x="692" y="443" on="1"/>
      </contour>
    </TTGlyph>
    <TTGlyph name="ogonek" xMin="14" yMin="-230" xMax="238" yMax="47">
      <contour>
        <pt x="90" y="-230" on="0"/>
        <pt x="14" y="-175" on="0"/>
        <pt x="14" y="-127" on="1"/>
        <pt x="14" y="-81" on="0"/>
        <pt x="72" y="-8" on="0"/>
        <pt x="153" y="38" on="0"/>
        <pt x="187" y="47" on="1"/>
        <pt x="229" y="0" on="1"/>
        <pt x="164" y="-22" on="0"/>
        <pt x="99" y="-74" on="0"/>
        <pt x="99" y="-110" on="1"/>
        <pt x="99" y="-131" on="0"/>
        <pt x="130" y="-158" on="0"/>
        <pt x="154" y="-158" on="1"/>
        <pt x="172" y="-158" on="0"/>
        <pt x="207" y="-152" on="0"/>
        <pt x="217" y="-147" on="1"/>
        <pt x="238" y="-209" on="1"/>
        <pt x="224" y="-218" on="0"/>
        <pt x="177" y="-230" on="0"/>
        <pt x="151" y="-230" on="1"/>
      </contour>
    </TTGlyph>
    <TTGlyph name="ograve" xMin="45" yMin="-15" xMax="550" yMax="721">
      <component glyphName="o" x="0" y="0" flags="0x0"/>
      <component glyphName="grave" x="32" y="0" flags="0x0"/>
    </TTGlyph>
    <TTGlyph name="one" xMin="40" yMin="0" xMax="358" yMax="761">
      <contour>
        <pt x="285" y="84" on="1"/>
        <pt x="358" y="84" on="1"/>
        <pt x="358" y="0" on="1"/>
        <pt x="118" y="0" on="1"/>
        <pt x="118" y="84" on="1"/>
        <pt x="190" y="84" on="1"/>
        <pt x="190" y="626" on="1"/>
        <pt x="40" y="544" on="1"/>
        <pt x="40" y="646" on="1"/>
        <pt x="246" y="761" on="1"/>
        <pt x="285" y="761" on="1"/>
      </contour>
    </TTGlyph>
    <TTGlyph name="onehalf" xMin="30" yMin="-30" xMax="782" yMax="773">
      <contour>
        <pt x="161" y="473" on="1"/>
        <pt x="161" y="670" on="1"/>
        <pt x="98" y="635" on="1"/>
        <pt x="98" y="714" on="1"/>
        <pt x="204" y="773" on="1"/>
        <pt x="238" y="773" on="1"/>
        <pt x="238" y="473" on="1"/>
        <pt x="278" y="473" on="1"/>
        <pt x="278" y="410" on="1"/>
        <pt x="120" y="410" on="1"/>
        <pt x="120" y="473" on="1"/>
      </contour>
      <contour>
        <pt x="653" y="770" on="1"/>
        <pt x="750" y="770" on="1"/>
        <pt x="127" y="-30" on="1"/>
        <pt x="30" y="-30" on="1"/>
      </contour>
      <contour>
        <pt x="635" y="69" on="1"/>
        <pt x="781" y="69" on="1"/>
        <pt x="781" y="0" on="1"/>
        <pt x="535" y="0" on="1"/>
        <pt x="535" y="59" on="1"/>
        <pt x="669" y="194" on="1"/>
        <pt x="706" y="228" on="0"/>
        <pt x="706" y="257" on="1"/>
        <pt x="706" y="275" on="0"/>
        <pt x="679" y="299" on="0"/>
        <pt x="657" y="299" on="1"/>
        <pt x="633" y="299" on="0"/>
        <pt x="605" y="271" on="0"/>
        <pt x="605" y="250" on="1"/>
        <pt x="534" y="250" on="1"/>
        <pt x="534" y="303" on="0"/>
        <pt x="606" y="367" on="0"/>
        <pt x="659" y="367" on="1"/>
        <pt x="711" y="367" on="0"/>
        <pt x="782" y="309" on="0"/>
        <pt x="782" y="259" on="1"/>
        <pt x="782" y="222" on="0"/>
        <pt x="746" y="184" on="1"/>
      </contour>
    </TTGlyph>
    <TTGlyph name="onequarter" xMin="50" yMin="-30" xMax="827" yMax="773">
      <contour>
        <pt x="144" y="473" on="1"/>
        <pt x="144" y="670" on="1"/>
        <pt x="81" y="635" on="1"/>
        <pt x="81" y="714" on="1"/>
        <pt x="187" y="773" on="1"/>
        <pt x="221" y="773" on="1"/>
        <pt x="221" y="473" on="1"/>
        <pt x="261" y="473" on="1"/>
        <pt x="261" y="410" on="1"/>
        <pt x="103" y="410" on="1"/>
        <pt x="103" y="473" on="1"/>
      </contour>
      <contour>
        <pt x="673" y="770" on="1"/>
        <pt x="770" y="770" on="1"/>
        <pt x="147" y="-30" on="1"/>
        <pt x="50" y="-30" on="1"/>
      </contour>
      <contour>
        <pt x="827" y="149" on="1"/>
        <pt x="827" y="95" on="1"/>
        <pt x="772" y="95" on="1"/>
        <pt x="772" y="0" on="1"/>
        <pt x="706" y="0" on="1"/>
        <pt x="706" y="95" on="1"/>
        <pt x="542" y="95" on="1"/>
        <pt x="541" y="148" on="1"/>
        <pt x="678" y="371" on="1"/>
        <pt x="750" y="371" on="1"/>
        <pt x="617" y="149" on="1"/>
        <pt x="706" y="149" on="1"/>
        <pt x="706" y="229" on="1"/>
        <pt x="772" y="229" on="1"/>
        <pt x="772" y="149" on="1"/>
      </contour>
    </TTGlyph>
    <TTGlyph name="ordfeminine" xMin="50" yMin="461" xMax="380" yMax="809">
      <contour>
        <pt x="380" y="534" on="1"/>
        <pt x="380" y="470" on="1"/>
        <pt x="269" y="470" on="1"/>
        <pt x="269" y="498" on="1"/>
        <pt x="224" y="461" on="0"/>
        <pt x="171" y="461" on="1"/>
        <pt x="118" y="461" on="0"/>
        <pt x="50" y="519" on="0"/>
        <pt x="50" y="561" on="1"/>
        <pt x="50" y="614" on="0"/>
        <pt x="138" y="667" on="0"/>
        <pt x="196" y="667" on="1"/>
        <pt x="236" y="667" on="0"/>
        <pt x="269" y="660" on="1"/>
        <pt x="269" y="684" on="1"/>
        <pt x="269" y="716" on="0"/>
        <pt x="229" y="747" on="0"/>
        <pt x="194" y="747" on="1"/>
        <pt x="135" y="747" on="0"/>
        <pt x="94" y="724" on="1"/>
        <pt x="70" y="771" on="1"/>
        <pt x="98" y="789" on="0"/>
        <pt x="168" y="809" on="0"/>
        <pt x="203" y="809" on="1"/>
        <pt x="268" y="809" on="0"/>
        <pt x="340" y="749" on="0"/>
        <pt x="340" y="687" on="1"/>
        <pt x="340" y="534" on="1"/>
      </contour>
      <contour>
        <pt x="208" y="518" on="0"/>
        <pt x="256" y="537" on="0"/>
        <pt x="269" y="551" on="1"/>
        <pt x="269" y="617" on="1"/>
        <pt x="193" y="617" on="1"/>
        <pt x="161" y="617" on="0"/>
        <pt x="119" y="590" on="0"/>
        <pt x="119" y="567" on="1"/>
        <pt x="119" y="543" on="0"/>
        <pt x="153" y="518" on="0"/>
        <pt x="183" y="518" on="1"/>
      </contour>
    </TTGlyph>
    <TTGlyph name="ordmasculine" xMin="50" yMin="459" xMax="406" yMax="812">
      <contour>
        <pt x="148" y="459" on="0"/>
        <pt x="50" y="557" on="0"/>
        <pt x="50" y="635" on="1"/>
        <pt x="50" y="686" on="0"/>
        <pt x="95" y="766" on="0"/>
        <pt x="176" y="812" on="0"/>
        <pt x="228" y="812" on="1"/>
        <pt x="280" y="812" on="0"/>
        <pt x="361" y="767" on="0"/>
        <pt x="406" y="687" on="0"/>
        <pt x="406" y="636" on="1"/>
        <pt x="406" y="558" on="0"/>
        <pt x="308" y="459" on="0"/>
        <pt x="228" y="459" on="1"/>
      </contour>
      <contour>
        <pt x="273" y="524" on="0"/>
        <pt x="332" y="585" on="0"/>
        <pt x="332" y="635" on="1"/>
        <pt x="332" y="687" on="0"/>
        <pt x="274" y="746" on="0"/>
        <pt x="228" y="746" on="1"/>
        <pt x="183" y="746" on="0"/>
        <pt x="124" y="687" on="0"/>
        <pt x="124" y="635" on="1"/>
        <pt x="124" y="585" on="0"/>
        <pt x="184" y="524" on="0"/>
        <pt x="228" y="524" on="1"/>
      </contour>
    </TTGlyph>
    <TTGlyph name="oslash" xMin="24" yMin="-30" xMax="590" yMax="570">
      <contour>
        <pt x="488" y="439" on="1"/>
        <pt x="518" y="404" on="0"/>
        <pt x="550" y="309" on="0"/>
        <pt x="550" y="254" on="1"/>
        <pt x="550" y="174" on="0"/>
        <pt x="488" y="52" on="0"/>
        <pt x="373" y="-15" on="0"/>
        <pt x="297" y="-15" on="1"/>
        <pt x="220" y="-15" on="0"/>
        <pt x="161" y="21" on="1"/>
        <pt x="121" y="-30" on="1"/>
        <pt x="24" y="-30" on="1"/>
        <pt x="103" y="72" on="1"/>
        <pt x="45" y="144" on="0"/>
        <pt x="45" y="253" on="1"/>
        <pt x="45" y="332" on="0"/>
        <pt x="109" y="453" on="0"/>
        <pt x="223" y="521" on="0"/>
        <pt x="297" y="521" on="1"/>
        <pt x="369" y="521" on="0"/>
        <pt x="429" y="488" on="1"/>
        <pt x="493" y="570" on="1"/>
        <pt x="590" y="570" on="1"/>
      </contour>
      <contour>
        <pt x="139" y="194" on="0"/>
        <pt x="163" y="148" on="1"/>
        <pt x="377" y="422" on="1"/>
        <pt x="343" y="443" on="0"/>
        <pt x="297" y="443" on="1"/>
        <pt x="253" y="443" on="0"/>
        <pt x="181" y="398" on="0"/>
        <pt x="139" y="313" on="0"/>
        <pt x="139" y="253" on="1"/>
      </contour>
      <contour>
        <pt x="456" y="320" on="0"/>
        <pt x="430" y="366" on="1"/>
        <pt x="214" y="89" on="1"/>
        <pt x="253" y="64" on="0"/>
        <pt x="297" y="64" on="1"/>
        <pt x="342" y="64" on="0"/>
        <pt x="414" y="110" on="0"/>
        <pt x="456" y="196" on="0"/>
        <pt x="456" y="253" on="1"/>
      </contour>
    </TTGlyph>
    <TTGlyph name="otilde" xMin="45" yMin="-15" xMax="550" yMax="691">
      <component glyphName="o" x="0" y="0" flags="0x0"/>
      <component glyphName="tilde" x="81" y="0" flags="0x0"/>
    </TTGlyph>
    <TTGlyph name="p" xMin="29" yMin="-230" xMax="565" yMax="518">
      <contour>
        <pt x="404" y="518" on="0"/>
        <pt x="507" y="453" on="0"/>
        <pt x="565" y="337" on="0"/>
        <pt x="565" y="262" on="1"/>
        <pt x="565" y="182" on="0"/>
        <pt x="501" y="58" on="0"/>
        <pt x="388" y="-11" on="0"/>
        <pt x="317" y="-11" on="1"/>
        <pt x="252" y="-11" on="0"/>
        <pt x="191" y="18" on="1"/>
        <pt x="191" y="-146" on="1"/>
        <pt x="270" y="-146" on="1"/>
        <pt x="270" y="-230" on="1"/>
        <pt x="30" y="-230" on="1"/>
        <pt x="30" y="-146" on="1"/>
        <pt x="99" y="-146" on="1"/>
        <pt x="99" y="422" on="1"/>
        <pt x="29" y="422" on="1"/>
        <pt x="29" y="506" on="1"/>
        <pt x="190" y="506" on="1"/>
        <pt x="190" y="464" on="1"/>
        <pt x="260" y="518" on="0"/>
        <pt x="339" y="518" on="1"/>
      </contour>
      <contour>
        <pt x="355" y="68" on="0"/>
        <pt x="428" y="112" on="0"/>
        <pt x="471" y="199" on="0"/>
        <pt x="471" y="259" on="1"/>
        <pt x="471" y="314" on="0"/>
        <pt x="430" y="395" on="0"/>
        <pt x="359" y="438" on="0"/>
        <pt x="315" y="438" on="1"/>
        <pt x="280" y="438" on="0"/>
        <pt x="215" y="410" on="0"/>
        <pt x="191" y="385" on="1"/>
        <pt x="191" y="110" on="1"/>
        <pt x="210" y="92" on="0"/>
        <pt x="271" y="68" on="0"/>
        <pt x="312" y="68" on="1"/>
      </contour>
    </TTGlyph>
    <TTGlyph name="paragraph" xMin="20" yMin="-180" xMax="554" yMax="740">
      <contour>
        <pt x="554" y="661" on="1"/>
        <pt x="515" y="661" on="1"/>
        <pt x="515" y="-180" on="1"/>
        <pt x="427" y="-180" on="1"/>
        <pt x="427" y="661" on="1"/>
        <pt x="315" y="661" on="1"/>
        <pt x="315" y="-180" on="1"/>
        <pt x="227" y="-180" on="1"/>
        <pt x="227" y="343" on="1"/>
        <pt x="166" y="347" on="0"/>
        <pt x="72" y="399" on="0"/>
        <pt x="20" y="485" on="0"/>
        <pt x="20" y="539" on="1"/>
        <pt x="20" y="637" on="0"/>
        <pt x="149" y="740" on="0"/>
        <pt x="262" y="740" on="1"/>
        <pt x="554" y="740" on="1"/>
      </contour>
    </TTGlyph>
    <TTGlyph name="parenleft" xMin="69" yMin="-220" xMax="326" yMax="796">
      <contour>
        <pt x="169" y="-107" on="0"/>
        <pt x="69" y="153" on="0"/>
        <pt x="69" y="288" on="1"/>
        <pt x="69" y="423" on="0"/>
        <pt x="169" y="683" on="0"/>
        <pt x="259" y="796" on="1"/>
        <pt x="326" y="742" on="1"/>
        <pt x="248" y="644" on="0"/>
        <pt x="165" y="410" on="0"/>
        <pt x="165" y="288" on="1"/>
        <pt x="165" y="166" on="0"/>
        <pt x="248" y="-68" on="0"/>
        <pt x="326" y="-166" on="1"/>
        <pt x="259" y="-220" on="1"/>
      </contour>
    </TTGlyph>
    <TTGlyph name="parenright" xMin="26" yMin="-220" xMax="283" yMax="796">
      <contour>
        <pt x="26" y="-166" on="1"/>
        <pt x="104" y="-68" on="0"/>
        <pt x="187" y="166" on="0"/>
        <pt x="187" y="288" on="1"/>
        <pt x="187" y="410" on="0"/>
        <pt x="104" y="644" on="0"/>
        <pt x="26" y="742" on="1"/>
        <pt x="93" y="796" on="1"/>
        <pt x="183" y="683" on="0"/>
        <pt x="283" y="423" on="0"/>
        <pt x="283" y="288" on="1"/>
        <pt x="283" y="153" on="0"/>
        <pt x="183" y="-107" on="0"/>
        <pt x="93" y="-220" on="1"/>
      </contour>
    </TTGlyph>
    <TTGlyph name="partialdiff" xMin="46" yMin="-2" xMax="562" yMax="745">
      <contour>
        <pt x="533" y="365" on="0"/>
        <pt x="562" y="286" on="0"/>
        <pt x="562" y="246" on="1"/>
        <pt x="562" y="174" on="0"/>
        <pt x="491" y="61" on="0"/>
        <pt x="373" y="-2" on="0"/>
        <pt x="306" y="-2" on="1"/>
        <pt x="235" y="-2" on="0"/>
        <pt x="116" y="60" on="0"/>
        <pt x="46" y="178" on="0"/>
        <pt x="46" y="258" on="1"/>
        <pt x="46" y="323" on="0"/>
        <pt x="111" y="429" on="0"/>
        <pt x="219" y="488" on="0"/>
        <pt x="279" y="488" on="1"/>
        <pt x="308" y="488" on="0"/>
        <pt x="350" y="483" on="0"/>
        <pt x="376" y="471" on="1"/>
        <pt x="211" y="745" on="1"/>
        <pt x="325" y="745" on="1"/>
        <pt x="505" y="419" on="1"/>
      </contour>
      <contour>
        <pt x="377" y="83" on="0"/>
        <pt x="471" y="170" on="0"/>
        <pt x="471" y="245" on="1"/>
        <pt x="471" y="287" on="0"/>
        <pt x="458" y="326" on="1"/>
        <pt x="409" y="408" on="0"/>
        <pt x="317" y="408" on="1"/>
        <pt x="268" y="408" on="0"/>
        <pt x="186" y="370" on="0"/>
        <pt x="137" y="297" on="0"/>
        <pt x="137" y="245" on="1"/>
        <pt x="137" y="198" on="0"/>
        <pt x="183" y="124" on="0"/>
        <pt x="259" y="83" on="0"/>
        <pt x="304" y="83" on="1"/>
      </contour>
    </TTGlyph>
    <TTGlyph name="percent" xMin="94" yMin="-8" xMax="851" yMax="752">
      <contour>
        <pt x="161" y="-8" on="1"/>
        <pt x="669" y="752" on="1"/>
        <pt x="764" y="752" on="1"/>
        <pt x="256" y="-8" on="1"/>
      </contour>
      <contour>
        <pt x="212" y="407" on="0"/>
        <pt x="136" y="451" on="0"/>
        <pt x="94" y="526" on="0"/>
        <pt x="94" y="570" on="1"/>
        <pt x="94" y="613" on="0"/>
        <pt x="137" y="688" on="0"/>
        <pt x="213" y="732" on="0"/>
        <pt x="261" y="732" on="1"/>
        <pt x="309" y="732" on="0"/>
        <pt x="385" y="688" on="0"/>
        <pt x="428" y="613" on="0"/>
        <pt x="428" y="570" on="1"/>
        <pt x="428" y="526" on="0"/>
        <pt x="386" y="451" on="0"/>
        <pt x="310" y="407" on="0"/>
        <pt x="261" y="407" on="1"/>
      </contour>
      <contour>
        <pt x="296" y="486" on="0"/>
        <pt x="344" y="535" on="0"/>
        <pt x="344" y="570" on="1"/>
        <pt x="344" y="605" on="0"/>
        <pt x="296" y="652" on="0"/>
        <pt x="261" y="652" on="1"/>
        <pt x="226" y="652" on="0"/>
        <pt x="177" y="605" on="0"/>
        <pt x="177" y="570" on="1"/>
        <pt x="177" y="536" on="0"/>
        <pt x="227" y="486" on="0"/>
        <pt x="261" y="486" on="1"/>
      </contour>
      <contour>
        <pt x="635" y="22" on="0"/>
        <pt x="559" y="66" on="0"/>
        <pt x="517" y="141" on="0"/>
        <pt x="517" y="185" on="1"/>
        <pt x="517" y="228" on="0"/>
        <pt x="560" y="303" on="0"/>
        <pt x="636" y="347" on="0"/>
        <pt x="684" y="347" on="1"/>
        <pt x="732" y="347" on="0"/>
        <pt x="808" y="303" on="0"/>
        <pt x="851" y="228" on="0"/>
        <pt x="851" y="185" on="1"/>
        <pt x="851" y="141" on="0"/>
        <pt x="809" y="66" on="0"/>
        <pt x="733" y="22" on="0"/>
        <pt x="684" y="22" on="1"/>
      </contour>
      <contour>
        <pt x="719" y="101" on="0"/>
        <pt x="767" y="150" on="0"/>
        <pt x="767" y="185" on="1"/>
        <pt x="767" y="220" on="0"/>
        <pt x="719" y="267" on="0"/>
        <pt x="684" y="267" on="1"/>
        <pt x="649" y="267" on="0"/>
        <pt x="600" y="220" on="0"/>
        <pt x="600" y="185" on="1"/>
        <pt x="600" y="151" on="0"/>
        <pt x="650" y="101" on="0"/>
        <pt x="684" y="101" on="1"/>
      </contour>
    </TTGlyph>
    <TTGlyph name="period" xMin="47" yMin="-6" xMax="174" yMax="122">
      <component glyphName="dotaccent" x="-38" y="-626" flags="0x4"/>
    </TTGlyph>
    <TTGlyph name="periodcentered" xMin="85" yMin="260" xMax="212" yMax="388">
      <component glyphName="dotaccent" x="0" y="-360" flags="0x4"/>
    </TTGlyph>
    <TTGlyph name="pi" xMin="45" yMin="-8" xMax="616" yMax="506">
      <contour>
        <pt x="616" y="9" on="1"/>
        <pt x="580" y="-8" on="0"/>
        <pt x="539" y="-8" on="1"/>
        <pt x="394" y="-8" on="0"/>
        <pt x="394" y="144" on="1"/>
        <pt x="394" y="422" on="1"/>
        <pt x="213" y="422" on="1"/>
        <pt x="213" y="84" on="1"/>
        <pt x="286" y="84" on="1"/>
        <pt x="286" y="0" on="1"/>
        <pt x="46" y="0" on="1"/>
        <pt x="46" y="84" on="1"/>
        <pt x="118" y="84" on="1"/>
        <pt x="118" y="422" on="1"/>
        <pt x="45" y="422" on="1"/>
        <pt x="45" y="506" on="1"/>
        <pt x="602" y="506" on="1"/>
        <pt x="602" y="422" on="1"/>
        <pt x="489" y="422" on="1"/>
        <pt x="489" y="160" on="1"/>
        <pt x="489" y="128" on="0"/>
        <pt x="494" y="94" on="0"/>
        <pt x="517" y="74" on="0"/>
        <pt x="543" y="74" on="1"/>
        <pt x="572" y="74" on="0"/>
        <pt x="601" y="87" on="1"/>
      </contour>
    </TTGlyph>
    <TTGlyph name="plus" xMin="70" yMin="91" xMax="570" yMax="591">
      <contour>
        <pt x="570" y="386" on="1"/>
        <pt x="570" y="297" on="1"/>
        <pt x="364" y="297" on="1"/>
        <pt x="364" y="91" on="1"/>
        <pt x="275" y="91" on="1"/>
        <pt x="275" y="297" on="1"/>
        <pt x="70" y="297" on="1"/>
        <pt x="70" y="386" on="1"/>
        <pt x="275" y="386" on="1"/>
        <pt x="275" y="591" on="1"/>
        <pt x="364" y="591" on="1"/>
        <pt x="364" y="386" on="1"/>
      </contour>
    </TTGlyph>
    <TTGlyph name="plusminus" xMin="50" yMin="39" xMax="550" yMax="641">
      <contour>
        <pt x="344" y="436" on="1"/>
        <pt x="550" y="436" on="1"/>
        <pt x="550" y="347" on="1"/>
        <pt x="344" y="347" on="1"/>
        <pt x="344" y="151" on="1"/>
        <pt x="255" y="151" on="1"/>
        <pt x="255" y="347" on="1"/>
        <pt x="50" y="347" on="1"/>
        <pt x="50" y="436" on="1"/>
        <pt x="255" y="436" on="1"/>
        <pt x="255" y="641" on="1"/>
        <pt x="344" y="641" on="1"/>
      </contour>
      <contour>
        <pt x="50" y="39" on="1"/>
        <pt x="50" y="118" on="1"/>
        <pt x="550" y="118" on="1"/>
        <pt x="550" y="39" on="1"/>
      </contour>
    </TTGlyph>
    <TTGlyph name="product" xMin="68" yMin="-229" xMax="728" yMax="740">
      <contour>
        <pt x="656" y="-145" on="1"/>
        <pt x="728" y="-145" on="1"/>
        <pt x="728" y="-229" on="1"/>
        <pt x="488" y="-229" on="1"/>
        <pt x="488" y="-145" on="1"/>
        <pt x="560" y="-145" on="1"/>
        <pt x="560" y="656" on="1"/>
        <pt x="236" y="656" on="1"/>
        <pt x="236" y="-145" on="1"/>
        <pt x="308" y="-145" on="1"/>
        <pt x="308" y="-229" on="1"/>
        <pt x="68" y="-229" on="1"/>
        <pt x="68" y="-145" on="1"/>
        <pt x="140" y="-145" on="1"/>
        <pt x="140" y="656" on="1"/>
        <pt x="75" y="656" on="1"/>
        <pt x="75" y="740" on="1"/>
        <pt x="721" y="740" on="1"/>
        <pt x="721" y="656" on="1"/>
        <pt x="656" y="656" on="1"/>
      </contour>
    </TTGlyph>
    <TTGlyph name="q" xMin="45" yMin="-230" xMax="581" yMax="518">
      <contour>
        <pt x="581" y="-146" on="1"/>
        <pt x="581" y="-230" on="1"/>
        <pt x="341" y="-230" on="1"/>
        <pt x="341" y="-146" on="1"/>
        <pt x="414" y="-146" on="1"/>
        <pt x="414" y="39" on="1"/>
        <pt x="362" y="-11" on="0"/>
        <pt x="286" y="-11" on="1"/>
        <pt x="217" y="-11" on="0"/>
        <pt x="107" y="53" on="0"/>
        <pt x="45" y="174" on="0"/>
        <pt x="45" y="258" on="1"/>
        <pt x="45" y="335" on="0"/>
        <pt x="106" y="453" on="0"/>
        <pt x="218" y="518" on="0"/>
        <pt x="291" y="518" on="1"/>
        <pt x="328" y="518" on="0"/>
        <pt x="388" y="502" on="0"/>
        <pt x="414" y="484" on="1"/>
        <pt x="414" y="506" on="1"/>
        <pt x="505" y="506" on="1"/>
        <pt x="505" y="-146" on="1"/>
      </contour>
      <contour>
        <pt x="336" y="68" on="0"/>
        <pt x="396" y="94" on="0"/>
        <pt x="414" y="114" on="1"/>
        <pt x="414" y="401" on="1"/>
        <pt x="368" y="438" on="0"/>
        <pt x="295" y="438" on="1"/>
        <pt x="252" y="438" on="0"/>
        <pt x="180" y="395" on="0"/>
        <pt x="139" y="314" on="0"/>
        <pt x="139" y="259" on="1"/>
        <pt x="139" y="168" on="0"/>
        <pt x="226" y="68" on="0"/>
        <pt x="298" y="68" on="1"/>
      </contour>
    </TTGlyph>
</ttFont>
